<svg width="255" height="58" viewBox="0 0 255 58" fill="none" xmlns="http://www.w3.org/2000/svg">
<rect width="255" height="58" fill="#FE0001"/>
<path d="M35.0757 38.6152L40.3149 14.6953H43.4404L45.1387 16.7368L39.5562 41H36.1055L35.0757 38.6152ZM33.6846 14.6953L38.1108 38.7959L36.9727 41H32.98L27.3975 14.6953H33.6846ZM48.0112 38.6694L52.4014 14.6953H58.6704L53.0879 41H49.1133L48.0112 38.6694ZM45.6987 14.6953L51.0645 38.7598L49.9805 41H46.5298L40.8208 16.7007L42.5913 14.6953H45.6987ZM85.2714 27.3237V28.3896C85.2714 30.401 84.9883 32.2077 84.4223 33.8096C83.8682 35.3994 83.0793 36.7604 82.0556 37.8926C81.0318 39.0127 79.8214 39.8739 78.4242 40.4761C77.0271 41.0662 75.4854 41.3613 73.7992 41.3613C72.101 41.3613 70.5473 41.0662 69.1381 40.4761C67.7409 39.8739 66.5245 39.0127 65.4887 37.8926C64.4649 36.7604 63.67 35.3994 63.1039 33.8096C62.5499 32.2077 62.2729 30.401 62.2729 28.3896V27.3237C62.2729 25.3123 62.5499 23.5057 63.1039 21.9038C63.67 20.3019 64.4589 18.9409 65.4706 17.8208C66.4944 16.6886 67.7048 15.8275 69.102 15.2373C70.5111 14.6351 72.0648 14.334 73.7631 14.334C75.4493 14.334 76.9909 14.6351 78.3881 15.2373C79.7973 15.8275 81.0137 16.6886 82.0375 17.8208C83.0613 18.9409 83.8562 20.3019 84.4223 21.9038C84.9883 23.5057 85.2714 25.3123 85.2714 27.3237ZM78.8397 28.3896V27.2876C78.8397 25.9868 78.7253 24.8426 78.4965 23.855C78.2797 22.8553 77.9545 22.0182 77.5209 21.3438C77.0873 20.6693 76.5513 20.1634 75.913 19.8262C75.2867 19.4769 74.5701 19.3022 73.7631 19.3022C72.92 19.3022 72.1853 19.4769 71.559 19.8262C70.9327 20.1634 70.4088 20.6693 69.9872 21.3438C69.5657 22.0182 69.2465 22.8553 69.0297 23.855C68.8249 24.8426 68.7226 25.9868 68.7226 27.2876V28.3896C68.7226 29.6784 68.8249 30.8226 69.0297 31.8223C69.2465 32.8099 69.5657 33.647 69.9872 34.3335C70.4208 35.02 70.9507 35.5379 71.577 35.8872C72.2154 36.2365 72.9561 36.4111 73.7992 36.4111C74.6062 36.4111 75.3228 36.2365 75.9491 35.8872C76.5754 35.5379 77.0993 35.02 77.5209 34.3335C77.9545 33.647 78.2797 32.8099 78.4965 31.8223C78.7253 30.8226 78.8397 29.6784 78.8397 28.3896ZM96.4798 38.6152L101.719 14.6953H104.845L106.543 16.7368L100.96 41H97.5096L96.4798 38.6152ZM95.0887 14.6953L99.5149 38.7959L98.3768 41H94.3841L88.8016 14.6953H95.0887ZM109.415 38.6694L113.805 14.6953H120.075L114.492 41H110.517L109.415 38.6694ZM107.103 14.6953L112.469 38.7598L111.385 41H107.934L102.225 16.7007L103.995 14.6953H107.103ZM124.183 13.25H130.271V36.1943L129.639 41H124.183V13.25ZM142.267 31.0093V31.3887C142.267 32.8701 142.117 34.2191 141.816 35.4355C141.515 36.652 141.051 37.7059 140.425 38.5972C139.798 39.4764 139.009 40.1569 138.058 40.6387C137.106 41.1204 135.98 41.3613 134.679 41.3613C133.499 41.3613 132.487 41.1084 131.644 40.6025C130.801 40.0846 130.097 39.374 129.53 38.4707C128.964 37.5553 128.507 36.5015 128.157 35.3091C127.808 34.1047 127.531 32.8159 127.326 31.4429V30.9912C127.531 29.6302 127.808 28.3535 128.157 27.1611C128.507 25.9567 128.964 24.9028 129.53 23.9995C130.097 23.0841 130.795 22.3735 131.626 21.8677C132.469 21.3498 133.475 21.0908 134.643 21.0908C135.956 21.0908 137.088 21.3377 138.04 21.8315C139.003 22.3254 139.798 23.0179 140.425 23.9092C141.051 24.8005 141.515 25.8483 141.816 27.0527C142.117 28.2572 142.267 29.576 142.267 31.0093ZM136.179 31.3887V31.0093C136.179 30.2987 136.137 29.6302 136.052 29.0039C135.968 28.3776 135.818 27.8236 135.601 27.3418C135.384 26.86 135.077 26.4806 134.679 26.2036C134.282 25.9266 133.764 25.7881 133.126 25.7881C132.475 25.7881 131.927 25.8965 131.482 26.1133C131.048 26.3301 130.699 26.6432 130.434 27.0527C130.181 27.4502 130 27.944 129.892 28.5342C129.783 29.1123 129.735 29.7687 129.747 30.5034V31.9307C129.723 32.9303 129.814 33.7855 130.018 34.4961C130.223 35.2067 130.578 35.7487 131.084 36.1221C131.59 36.4954 132.283 36.6821 133.162 36.6821C133.812 36.6821 134.336 36.5557 134.734 36.3027C135.143 36.0498 135.45 35.6885 135.655 35.2188C135.86 34.749 135.998 34.189 136.071 33.5386C136.143 32.8882 136.179 32.1715 136.179 31.3887ZM153.259 21.4521V41H147.152V21.4521H153.259ZM146.791 16.4116C146.791 15.5444 147.104 14.8338 147.731 14.2798C148.357 13.7257 149.17 13.4487 150.17 13.4487C151.169 13.4487 151.982 13.7257 152.608 14.2798C153.235 14.8338 153.548 15.5444 153.548 16.4116C153.548 17.2788 153.235 17.9894 152.608 18.5435C151.982 19.0975 151.169 19.3745 150.17 19.3745C149.17 19.3745 148.357 19.0975 147.731 18.5435C147.104 17.9894 146.791 17.2788 146.791 16.4116ZM174.946 36.3027V41H159.806V36.3027H174.946ZM174.765 24.7402L162.534 41H158.361V37.6035L170.574 21.4521H174.765V24.7402ZM172.76 21.4521V26.1494H158.722V21.4521H172.76ZM180.192 38.1455C180.192 37.2783 180.505 36.5557 181.132 35.9775C181.758 35.3874 182.565 35.0923 183.553 35.0923C184.552 35.0923 185.359 35.3874 185.974 35.9775C186.6 36.5557 186.913 37.2783 186.913 38.1455C186.913 39.0127 186.6 39.7414 185.974 40.3315C185.359 40.9097 184.552 41.1987 183.553 41.1987C182.565 41.1987 181.758 40.9097 181.132 40.3315C180.505 39.7414 180.192 39.0127 180.192 38.1455ZM198.989 26.2939V41H192.9V21.4521H198.591L198.989 26.2939ZM204.77 21.3076L204.661 26.9624C204.421 26.9383 204.095 26.9082 203.686 26.8721C203.276 26.8359 202.933 26.8179 202.656 26.8179C201.945 26.8179 201.331 26.9022 200.813 27.0708C200.307 27.2274 199.886 27.4683 199.549 27.7935C199.223 28.1066 198.983 28.5041 198.826 28.9858C198.681 29.4676 198.615 30.0277 198.627 30.666L197.525 29.9434C197.525 28.6305 197.652 27.4382 197.905 26.3662C198.17 25.2822 198.543 24.3488 199.025 23.5659C199.506 22.771 200.091 22.1628 200.777 21.7412C201.464 21.3076 202.235 21.0908 203.09 21.0908C203.391 21.0908 203.686 21.1089 203.975 21.145C204.276 21.1812 204.541 21.2354 204.77 21.3076ZM207.306 31.4248V31.0454C207.306 29.6121 207.511 28.2933 207.921 27.0889C208.33 25.8724 208.932 24.8185 209.727 23.9272C210.522 23.036 211.504 22.3434 212.672 21.8496C213.84 21.3438 215.189 21.0908 216.719 21.0908C218.261 21.0908 219.616 21.3438 220.784 21.8496C221.964 22.3434 222.952 23.036 223.747 23.9272C224.542 24.8185 225.144 25.8724 225.553 27.0889C225.963 28.2933 226.168 29.6121 226.168 31.0454V31.4248C226.168 32.846 225.963 34.1649 225.553 35.3813C225.144 36.5858 224.542 37.6396 223.747 38.543C222.952 39.4342 221.97 40.1268 220.802 40.6206C219.634 41.1144 218.285 41.3613 216.755 41.3613C215.225 41.3613 213.87 41.1144 212.69 40.6206C211.51 40.1268 210.522 39.4342 209.727 38.543C208.932 37.6396 208.33 36.5858 207.921 35.3813C207.511 34.1649 207.306 32.846 207.306 31.4248ZM213.395 31.0454V31.4248C213.395 32.1595 213.449 32.846 213.557 33.4844C213.666 34.1227 213.846 34.6828 214.099 35.1646C214.352 35.6343 214.696 36.0016 215.129 36.2666C215.563 36.5316 216.105 36.6641 216.755 36.6641C217.393 36.6641 217.923 36.5316 218.345 36.2666C218.779 36.0016 219.122 35.6343 219.375 35.1646C219.628 34.6828 219.808 34.1227 219.917 33.4844C220.025 32.846 220.079 32.1595 220.079 31.4248V31.0454C220.079 30.3348 220.025 29.6663 219.917 29.04C219.808 28.4017 219.628 27.8416 219.375 27.3599C219.122 26.866 218.779 26.4806 218.345 26.2036C217.911 25.9266 217.369 25.7881 216.719 25.7881C216.081 25.7881 215.545 25.9266 215.111 26.2036C214.689 26.4806 214.352 26.866 214.099 27.3599C213.846 27.8416 213.666 28.4017 213.557 29.04C213.449 29.6663 213.395 30.3348 213.395 31.0454Z" fill="white"/>
</svg>
