<svg width="23" height="32" viewBox="0 0 23 32" fill="none" xmlns="http://www.w3.org/2000/svg">
<path d="M21.3163 29.9464H20.7534C20.7534 29.9404 20.7506 29.9344 20.7495 29.9288L20.7341 29.86C20.7242 29.8147 20.7135 29.7698 20.7025 29.7252C20.6978 29.7043 20.6926 29.6833 20.6875 29.6624C20.6729 29.6036 20.6575 29.5448 20.6417 29.4861L20.637 29.4693C20.6196 29.4056 20.6014 29.3423 20.5825 29.2791L20.5635 29.2181C20.5505 29.1747 20.5367 29.1317 20.5241 29.0886C20.5166 29.0651 20.5087 29.0419 20.5012 29.0187C20.4874 28.9771 20.4731 28.9356 20.4585 28.8944C20.451 28.8727 20.4431 28.8506 20.4356 28.8293C20.4172 28.7777 20.3983 28.7264 20.3788 28.6755C20.3745 28.6646 20.3709 28.6542 20.3666 28.6433C20.3437 28.5834 20.3196 28.5239 20.2951 28.4644C20.2864 28.4427 20.2773 28.4214 20.2683 28.4C20.2517 28.3626 20.2351 28.3215 20.2181 28.2825L20.1862 28.2103C20.1696 28.1729 20.1526 28.1354 20.1352 28.098C20.1246 28.0748 20.1135 28.0512 20.1025 28.028C20.0823 27.985 20.063 27.9423 20.0405 27.9C20.0322 27.884 20.0247 27.8675 20.0164 27.851C19.9884 27.7953 19.9596 27.7387 19.9304 27.6849L19.8909 27.6149L19.8352 27.5135L19.7918 27.4386C19.7736 27.4072 19.7555 27.3757 19.7369 27.3443C19.7223 27.3188 19.7073 27.2934 19.6923 27.2694C19.6718 27.2354 19.6529 27.2021 19.6303 27.1684L19.5735 27.0771C19.5467 27.0352 19.5198 26.9929 19.4922 26.9513C19.4748 26.9251 19.4575 26.8993 19.4397 26.8735C19.4219 26.8477 19.4026 26.8181 19.3836 26.7908C19.3647 26.7635 19.3442 26.7362 19.3268 26.7092C19.3094 26.6823 19.2905 26.6579 19.2719 26.6344C19.2534 26.6108 19.2324 26.5793 19.2123 26.552L19.1567 26.4772C19.1172 26.4274 19.0809 26.3776 19.0422 26.3275L18.9881 26.259C18.9652 26.2302 18.9415 26.2017 18.9182 26.1733L18.8661 26.1104C18.842 26.0816 18.8176 26.0532 18.7931 26.0243L18.7418 25.9652L18.6652 25.8784L18.6198 25.8282C18.5254 25.7246 18.4287 25.6224 18.3297 25.5229L18.2862 25.4791L18.1954 25.3904L18.1508 25.3477C18.1192 25.3174 18.0877 25.2875 18.0557 25.2579L18.0229 25.228C17.9112 25.125 17.7963 25.0247 17.6795 24.9286L17.6475 24.902C17.6115 24.872 17.5752 24.8425 17.5386 24.8133L17.5023 24.7841C17.4628 24.7542 17.4269 24.7246 17.3886 24.695L17.3692 24.6804C17.2401 24.5816 17.1079 24.4855 16.9745 24.393L16.9559 24.3799C16.9137 24.3511 16.8714 24.3227 16.8288 24.2946L16.8008 24.2762C16.7574 24.2474 16.7135 24.2194 16.6697 24.1913L16.6622 24.1868C16.517 24.0947 16.3689 24.0065 16.2181 23.9222L16.2122 23.9185C16.1645 23.8919 16.1167 23.8661 16.0689 23.8403L16.048 23.829C15.7938 23.6931 15.5327 23.5683 15.2648 23.4548L15.2482 23.4477C15.1776 23.4177 15.1065 23.3889 15.0347 23.3605H16.4475C16.6776 23.3605 16.8643 23.1094 16.8643 22.7991C16.8643 22.4889 16.6776 22.2377 16.4475 22.2377H16.0267C16.0527 22.1749 16.0816 22.1038 16.1127 22.0237C16.5106 21.7887 17.2109 21.2879 17.9057 20.368L17.9112 20.3609C17.9639 20.2921 18.0156 20.2208 18.0664 20.1472L18.0766 20.1326C18.1271 20.0604 18.1777 19.9859 18.2274 19.9081L18.2408 19.8875C18.2645 19.8501 18.2882 19.8126 18.3119 19.7752C18.3119 19.7752 18.3119 19.7722 18.3147 19.7704C18.3391 19.7329 18.3632 19.6918 18.3873 19.6517L18.4027 19.6259C18.4232 19.5915 18.4441 19.5563 18.4643 19.5207C18.4682 19.5144 18.4722 19.508 18.4757 19.5013C18.499 19.4609 18.5223 19.4197 18.5452 19.3781L18.561 19.3493C18.5799 19.3149 18.5985 19.2801 18.617 19.2449C18.6226 19.2352 18.6281 19.2251 18.6332 19.215C18.6553 19.1727 18.6774 19.13 18.6995 19.0866L18.7149 19.0563C18.7323 19.0211 18.7501 18.9852 18.7674 18.9493L18.7864 18.9118C18.8077 18.8677 18.8286 18.8228 18.8495 18.7775L18.8626 18.7487C18.8799 18.7112 18.8969 18.6738 18.9139 18.6364L18.934 18.5915C18.9537 18.5462 18.9735 18.5005 18.9924 18.4545C18.996 18.4463 18.9995 18.4377 19.0027 18.4294C19.0205 18.3872 19.0378 18.3441 19.0552 18.3007L19.0749 18.2513C19.0911 18.2101 19.1073 18.1686 19.1231 18.1271L19.1349 18.0956C19.1535 18.0462 19.1716 17.9957 19.1898 17.9459L19.2088 17.8928C19.223 17.8531 19.2368 17.8127 19.2506 17.7723C19.2557 17.7573 19.2609 17.7423 19.2656 17.7274C19.283 17.6757 19.3003 17.6229 19.3173 17.5702C19.3228 17.5518 19.3288 17.5328 19.3343 17.5155L19.3738 17.3924C19.3789 17.3744 19.3844 17.355 19.3896 17.3389C19.4057 17.2846 19.4219 17.2292 19.4373 17.1735C19.4424 17.1559 19.4472 17.1379 19.4519 17.12C19.4638 17.0769 19.4756 17.0339 19.4871 16.9901C19.4922 16.9703 19.4973 16.9504 19.5028 16.9306C19.5175 16.873 19.5321 16.815 19.5463 16.7562L19.5581 16.7072C19.5692 16.6604 19.5802 16.6132 19.5909 16.5657L19.6051 16.5021C19.6185 16.4411 19.6319 16.3801 19.6446 16.318C19.6473 16.306 19.6497 16.2936 19.6521 16.2805C19.6631 16.227 19.6738 16.1728 19.684 16.1185C19.6884 16.0964 19.6923 16.0743 19.6967 16.0522C19.7069 15.9965 19.7168 15.94 19.7267 15.8842C19.7286 15.8722 19.731 15.8606 19.733 15.849C19.744 15.7832 19.7548 15.7168 19.7654 15.6499C19.7689 15.6275 19.7725 15.605 19.7756 15.5822C19.7839 15.5279 19.7918 15.4733 19.7997 15.4179L19.8068 15.367C19.8163 15.2981 19.8254 15.2289 19.834 15.1585C19.8368 15.1365 19.8392 15.1144 19.8419 15.0919C19.8488 15.036 19.8551 14.9799 19.8609 14.9235C19.8633 14.9033 19.8656 14.8835 19.8676 14.8633C19.8752 14.7909 19.8823 14.7179 19.8889 14.6443C19.8889 14.6238 19.8925 14.6032 19.894 14.5822C19.8992 14.5231 19.9043 14.4636 19.9087 14.4037C19.9087 14.3816 19.9122 14.3595 19.9138 14.3375C19.9193 14.2611 19.9244 14.1843 19.9292 14.1069C19.9292 14.0893 19.9292 14.0695 19.9319 14.0538C19.9355 13.9894 19.939 13.9247 19.9418 13.8596C19.9418 13.836 19.9418 13.8124 19.945 13.7888C19.9481 13.7084 19.9513 13.6275 19.9537 13.5456C19.9537 13.5343 19.9537 13.5227 19.9537 13.5111C19.9558 13.4383 19.9573 13.3647 19.9584 13.2903C19.9584 13.266 19.9584 13.2417 19.9584 13.2173C19.9584 13.1375 19.9584 13.0572 19.9584 12.9763V12.9576C19.9584 12.8715 19.9584 12.7843 19.9584 12.6957V12.6208C19.9584 12.546 19.9552 12.4674 19.9533 12.3895V12.3472C19.9505 12.2574 19.9469 12.1665 19.9434 12.0752C19.9434 12.0516 19.941 12.0276 19.9402 12.004C19.9368 11.9272 19.9329 11.8499 19.9284 11.772C19.9284 11.7529 19.9284 11.7346 19.9252 11.714C19.9197 11.6204 19.9136 11.5261 19.9071 11.4311L19.9023 11.3648C19.8964 11.2855 19.8905 11.2058 19.8838 11.1253C19.8838 11.1021 19.8802 11.0789 19.8783 11.0557C19.87 10.9584 19.8609 10.86 19.8514 10.7612C19.8514 10.7425 19.8475 10.7238 19.8459 10.7047C19.8376 10.6205 19.8285 10.5355 19.8194 10.4498C19.8167 10.424 19.8139 10.3985 19.8108 10.3727C19.7997 10.2709 19.7879 10.1688 19.7752 10.0651C19.7752 10.0524 19.7717 10.0396 19.7701 10.0277C19.7588 9.93486 19.7468 9.84155 19.7342 9.74774C19.7302 9.72004 19.7267 9.69235 19.7227 9.66466C19.708 9.55837 19.6929 9.45121 19.6773 9.34318C18.0983 -1.31304 6.90876 0.416341 6.90876 0.416341L7.26719 2.70597L0.5 9.48352L0.795667 12.1006L3.35917 13.5976C3.47345 13.3222 3.62017 13.0599 3.79655 12.8158C5.45055 11.0071 8.65947 9.58718 9.57805 9.29265C9.76201 9.2339 9.86662 9.20433 9.86662 9.20433C5.47266 14.5957 5.97241 20.7722 6.16821 22.2445C5.96452 22.2819 5.80701 22.5151 5.80701 22.7995C5.80701 23.1094 5.99373 23.3609 6.22387 23.3609H7.63668C5.28699 24.2933 3.42185 26.0692 2.44848 28.3009C2.44734 28.3039 2.44602 28.3069 2.44454 28.3098C2.37269 28.4755 2.30585 28.6435 2.24401 28.814C2.24411 28.8157 2.24411 28.8174 2.24401 28.8192C2.22743 28.8656 2.21124 28.912 2.19545 28.9588C2.18953 28.9756 2.18361 28.9925 2.17808 29.0097C2.16387 29.0516 2.15071 29.0939 2.13861 29.1366C2.1315 29.1583 2.12479 29.1803 2.11808 29.202C2.10545 29.2421 2.09321 29.2825 2.08137 29.3229L2.06005 29.3978C2.049 29.4352 2.03795 29.4752 2.02768 29.5142C2.02018 29.5419 2.01308 29.5692 2.00597 29.5969C1.9965 29.6343 1.98663 29.6717 1.97755 29.7091C1.96847 29.7466 1.95978 29.784 1.9511 29.8237C1.94242 29.8633 1.93136 29.9097 1.92189 29.9532H1.35858C1.25026 29.9509 1.14255 29.9692 1.04178 30.0069C0.941006 30.0446 0.8492 30.1011 0.771747 30.1729C0.694294 30.2447 0.63275 30.3305 0.590736 30.4252C0.548723 30.5199 0.527081 30.6216 0.527081 30.7243C0.527081 30.827 0.548723 30.9287 0.590736 31.0234C0.63275 31.1181 0.694294 31.2038 0.771747 31.2757C0.8492 31.3475 0.941006 31.4039 1.04178 31.4417C1.14255 31.4794 1.25026 31.4977 1.35858 31.4954H21.3234C21.4318 31.4977 21.5395 31.4794 21.6402 31.4417C21.741 31.4039 21.8328 31.3475 21.9103 31.2757C21.9877 31.2038 22.0493 31.1181 22.0913 31.0234C22.1333 30.9287 22.1549 30.827 22.1549 30.7243C22.1549 30.6216 22.1333 30.5199 22.0913 30.4252C22.0493 30.3305 21.9877 30.2447 21.9103 30.1729C21.8328 30.1011 21.741 30.0446 21.6402 30.0069C21.5395 29.9692 21.4318 29.9509 21.3234 29.9532L21.3163 29.9464Z" fill="#595653"/>
</svg>
