<svg width="97" height="19" viewBox="0 0 97 19" fill="none" xmlns="http://www.w3.org/2000/svg">
<path d="M20.6274 2.70703V12H19.4531V4.17334L17.0854 5.03662V3.97656L20.4434 2.70703H20.6274ZM25.5659 7.60107L24.6265 7.35986L25.0898 2.75781H29.8315V3.84326H26.0864L25.8071 6.35693C25.9764 6.2596 26.1901 6.16862 26.4482 6.08398C26.7106 5.99935 27.0111 5.95703 27.3496 5.95703C27.777 5.95703 28.16 6.03109 28.4985 6.1792C28.8371 6.32308 29.1248 6.53044 29.3618 6.80127C29.603 7.0721 29.7871 7.39795 29.9141 7.77881C30.041 8.15967 30.1045 8.58496 30.1045 9.05469C30.1045 9.49902 30.0431 9.90739 29.9204 10.2798C29.8019 10.6522 29.6221 10.978 29.3809 11.2573C29.1396 11.5324 28.835 11.7461 28.4668 11.8984C28.1029 12.0508 27.6733 12.127 27.1782 12.127C26.8058 12.127 26.4525 12.0762 26.1182 11.9746C25.7881 11.8688 25.4919 11.7101 25.2295 11.4985C24.9714 11.2827 24.7598 11.0161 24.5947 10.6987C24.4339 10.3771 24.3324 10.0005 24.29 9.56885H25.4072C25.458 9.91585 25.5596 10.2078 25.7119 10.4448C25.8643 10.6818 26.0632 10.8617 26.3086 10.9844C26.5583 11.1029 26.8481 11.1621 27.1782 11.1621C27.4575 11.1621 27.7051 11.1134 27.9209 11.0161C28.1367 10.9188 28.3187 10.7791 28.4668 10.5972C28.6149 10.4152 28.7271 10.1951 28.8032 9.93701C28.8836 9.67887 28.9238 9.389 28.9238 9.06738C28.9238 8.77539 28.8836 8.50456 28.8032 8.25488C28.7228 8.00521 28.6022 7.78727 28.4414 7.60107C28.2848 7.41488 28.0923 7.271 27.8638 7.16943C27.6353 7.06364 27.3729 7.01074 27.0767 7.01074C26.6831 7.01074 26.3848 7.06364 26.1816 7.16943C25.9827 7.27523 25.7775 7.41911 25.5659 7.60107Z" fill="#1BCE2D"/>
<path d="M42.0571 2.75781L38.2041 12.7935H37.1948L41.0542 2.75781H42.0571Z" fill="black"/>
<path d="M66.4194 2.70703V12H65.2451V4.17334L62.8774 5.03662V3.97656L66.2354 2.70703H66.4194ZM75.9282 11.0352V12H69.8789V11.1558L72.9067 7.78516C73.2791 7.37044 73.5669 7.01921 73.77 6.73145C73.9774 6.43945 74.1213 6.1792 74.2017 5.95068C74.2863 5.71794 74.3286 5.48096 74.3286 5.23975C74.3286 4.93506 74.2651 4.65999 74.1382 4.41455C74.0155 4.16488 73.8335 3.96598 73.5923 3.81787C73.3511 3.66976 73.0591 3.5957 72.7163 3.5957C72.3058 3.5957 71.9631 3.67611 71.688 3.83691C71.4172 3.99349 71.214 4.21354 71.0786 4.49707C70.9432 4.7806 70.8755 5.10645 70.8755 5.47461H69.7012C69.7012 4.9541 69.8154 4.47803 70.0439 4.04639C70.2725 3.61475 70.611 3.27197 71.0596 3.01807C71.5081 2.75993 72.0604 2.63086 72.7163 2.63086C73.3003 2.63086 73.7996 2.73454 74.2144 2.94189C74.6291 3.14502 74.9465 3.43278 75.1665 3.80518C75.3908 4.17334 75.5029 4.60498 75.5029 5.1001C75.5029 5.37093 75.4564 5.646 75.3633 5.92529C75.2744 6.20036 75.1496 6.47542 74.9888 6.75049C74.8322 7.02555 74.6481 7.29639 74.4365 7.56299C74.2292 7.82959 74.007 8.09196 73.77 8.3501L71.2944 11.0352H75.9282ZM83.4312 8.88965V9.85449H76.7534V9.1626L80.8921 2.75781H81.8506L80.8223 4.61133L78.0864 8.88965H83.4312ZM82.1426 2.75781V12H80.9683V2.75781H82.1426Z" fill="#FF0F0F"/>
<path d="M7.5 3L13.9952 12H1.00481L7.5 3Z" fill="#1BCE2D"/>
<path d="M53.5 12L47.0048 3L59.9952 3L53.5 12Z" fill="#FF0F0F"/>
<rect y="17" width="11" height="2" fill="#1BCE2D"/>
<rect x="11" y="17" width="86" height="2" fill="#FF0F0F"/>
</svg>
