<svg width="97" height="19" viewBox="0 0 97 19" fill="none" xmlns="http://www.w3.org/2000/svg">
<path d="M20.6274 2.70703V12H19.4531V4.17334L17.0854 5.03662V3.97656L20.4434 2.70703H20.6274ZM29.8823 6.64258V8.05176C29.8823 8.80924 29.8146 9.44824 29.6792 9.96875C29.5438 10.4893 29.3491 10.9082 29.0952 11.2256C28.8413 11.543 28.5345 11.7736 28.1748 11.9175C27.8193 12.0571 27.4173 12.127 26.9688 12.127C26.6133 12.127 26.2853 12.0825 25.9849 11.9937C25.6844 11.9048 25.4136 11.763 25.1724 11.5684C24.9354 11.3695 24.7323 11.1113 24.563 10.7939C24.3937 10.4766 24.2646 10.0915 24.1758 9.63867C24.0869 9.18587 24.0425 8.6569 24.0425 8.05176V6.64258C24.0425 5.88509 24.1102 5.25033 24.2456 4.73828C24.3853 4.22624 24.582 3.81576 24.8359 3.50684C25.0898 3.19368 25.3945 2.9694 25.75 2.83398C26.1097 2.69857 26.5117 2.63086 26.9561 2.63086C27.3158 2.63086 27.6458 2.67529 27.9463 2.76416C28.251 2.8488 28.5218 2.98633 28.7588 3.17676C28.9958 3.36296 29.1968 3.61263 29.3618 3.92578C29.5311 4.2347 29.6602 4.61344 29.749 5.06201C29.8379 5.51058 29.8823 6.03743 29.8823 6.64258ZM28.7017 8.24219V6.4458C28.7017 6.03109 28.6763 5.66715 28.6255 5.354C28.5789 5.03662 28.5091 4.76579 28.416 4.5415C28.3229 4.31722 28.2044 4.13525 28.0605 3.99561C27.9209 3.85596 27.758 3.75439 27.5718 3.69092C27.3898 3.62321 27.1846 3.58936 26.9561 3.58936C26.6768 3.58936 26.4292 3.64225 26.2134 3.74805C25.9976 3.84961 25.8156 4.01253 25.6675 4.23682C25.5236 4.4611 25.4136 4.75521 25.3374 5.11914C25.2612 5.48307 25.2231 5.92529 25.2231 6.4458V8.24219C25.2231 8.6569 25.2464 9.02295 25.293 9.34033C25.3438 9.65771 25.4178 9.93278 25.5151 10.1655C25.6125 10.394 25.731 10.5824 25.8706 10.7305C26.0103 10.8786 26.1711 10.9886 26.353 11.0605C26.5392 11.1283 26.7445 11.1621 26.9688 11.1621C27.2565 11.1621 27.5083 11.1071 27.7241 10.9971C27.9399 10.887 28.1198 10.7157 28.2637 10.4829C28.4118 10.2459 28.5218 9.94336 28.5938 9.5752C28.6657 9.2028 28.7017 8.75846 28.7017 8.24219ZM35.2524 2.70703V12H34.0781V4.17334L31.7104 5.03662V3.97656L35.0684 2.70703H35.2524Z" fill="#1BCE2D"/>
<path d="M49.3696 2.75781L45.5166 12.7935H44.5073L48.3667 2.75781H49.3696Z" fill="black"/>
<path d="M79.3433 8.88965V9.85449H72.6655V9.1626L76.8042 2.75781H77.7627L76.7344 4.61133L73.9985 8.88965H79.3433ZM78.0547 2.75781V12H76.8804V2.75781H78.0547ZM86.6558 8.88965V9.85449H79.978V9.1626L84.1167 2.75781H85.0752L84.0469 4.61133L81.311 8.88965H86.6558ZM85.3672 2.75781V12H84.1929V2.75781H85.3672Z" fill="#FF0F0F"/>
<path d="M7.5 3L13.9952 12H1.00481L7.5 3Z" fill="#1BCE2D"/>
<path d="M61.5 12L55.0048 3L67.9952 3L61.5 12Z" fill="#FF0F0F"/>
<rect y="17" width="73" height="2" fill="#1BCE2D"/>
<rect x="73" y="17" width="24" height="2" fill="#FF0F0F"/>
</svg>
