<svg width="97" height="19" viewBox="0 0 97 19" fill="none" xmlns="http://www.w3.org/2000/svg">
<path d="M22.8237 11.0352V12H16.7744V11.1558L19.8022 7.78516C20.1746 7.37044 20.4624 7.01921 20.6655 6.73145C20.8729 6.43945 21.0168 6.1792 21.0972 5.95068C21.1818 5.71794 21.2241 5.48096 21.2241 5.23975C21.2241 4.93506 21.1606 4.65999 21.0337 4.41455C20.911 4.16488 20.729 3.96598 20.4878 3.81787C20.2466 3.66976 19.9546 3.5957 19.6118 3.5957C19.2013 3.5957 18.8586 3.67611 18.5835 3.83691C18.3127 3.99349 18.1095 4.21354 17.9741 4.49707C17.8387 4.7806 17.771 5.10645 17.771 5.47461H16.5967C16.5967 4.9541 16.7109 4.47803 16.9395 4.04639C17.168 3.61475 17.5065 3.27197 17.9551 3.01807C18.4036 2.75993 18.9559 2.63086 19.6118 2.63086C20.1958 2.63086 20.6951 2.73454 21.1099 2.94189C21.5246 3.14502 21.842 3.43278 22.062 3.80518C22.2863 4.17334 22.3984 4.60498 22.3984 5.1001C22.3984 5.37093 22.3519 5.646 22.2588 5.92529C22.1699 6.20036 22.0451 6.47542 21.8843 6.75049C21.7277 7.02555 21.5436 7.29639 21.332 7.56299C21.1247 7.82959 20.9025 8.09196 20.6655 8.3501L18.1899 11.0352H22.8237ZM27.9399 2.70703V12H26.7656V4.17334L24.3979 5.03662V3.97656L27.7559 2.70703H27.9399ZM35.2524 2.70703V12H34.0781V4.17334L31.7104 5.03662V3.97656L35.0684 2.70703H35.2524Z" fill="#1BCE2D"/>
<path d="M49.3696 2.75781L45.5166 12.7935H44.5073L48.3667 2.75781H49.3696Z" fill="black"/>
<path d="M74.2651 11.0161H74.3857C75.0628 11.0161 75.613 10.9209 76.0361 10.7305C76.4593 10.54 76.7852 10.284 77.0137 9.9624C77.2422 9.64079 77.3988 9.27897 77.4834 8.87695C77.568 8.4707 77.6104 8.05387 77.6104 7.62646V6.21094C77.6104 5.79199 77.5617 5.4196 77.4644 5.09375C77.3713 4.7679 77.2401 4.49495 77.0708 4.2749C76.9058 4.05485 76.7174 3.8877 76.5059 3.77344C76.2943 3.65918 76.07 3.60205 75.833 3.60205C75.5622 3.60205 75.3188 3.65706 75.103 3.76709C74.8914 3.87288 74.7116 4.02311 74.5635 4.21777C74.4196 4.41243 74.3096 4.64095 74.2334 4.90332C74.1572 5.16569 74.1191 5.45133 74.1191 5.76025C74.1191 6.03532 74.153 6.30192 74.2207 6.56006C74.2884 6.8182 74.3921 7.05094 74.5317 7.2583C74.6714 7.46566 74.8449 7.6307 75.0522 7.75342C75.2638 7.87191 75.5114 7.93115 75.7949 7.93115C76.0573 7.93115 76.3027 7.88037 76.5312 7.77881C76.764 7.67301 76.9692 7.53125 77.147 7.35352C77.3289 7.17155 77.4728 6.96631 77.5786 6.73779C77.6886 6.50928 77.7521 6.27018 77.769 6.02051H78.3276C78.3276 6.37174 78.2578 6.71875 78.1182 7.06152C77.9827 7.40007 77.7923 7.70898 77.5469 7.98828C77.3014 8.26758 77.0137 8.49186 76.6836 8.66113C76.3535 8.82617 75.9938 8.90869 75.6045 8.90869C75.1475 8.90869 74.7518 8.81982 74.4175 8.64209C74.0832 8.46436 73.8081 8.22738 73.5923 7.93115C73.3807 7.63493 73.222 7.30485 73.1162 6.94092C73.0146 6.57275 72.9639 6.20036 72.9639 5.82373C72.9639 5.38363 73.0252 4.97103 73.1479 4.58594C73.2707 4.20085 73.4526 3.8623 73.6938 3.57031C73.9351 3.27409 74.2334 3.04346 74.5889 2.87842C74.9486 2.71338 75.3633 2.63086 75.833 2.63086C76.362 2.63086 76.8127 2.73665 77.1851 2.94824C77.5575 3.15983 77.86 3.44336 78.0928 3.79883C78.3298 4.1543 78.5033 4.5542 78.6133 4.99854C78.7233 5.44287 78.7783 5.8999 78.7783 6.36963V6.79492C78.7783 7.27311 78.7466 7.75977 78.6831 8.25488C78.6239 8.74577 78.5075 9.21549 78.334 9.66406C78.1647 10.1126 77.9172 10.5146 77.5913 10.8701C77.2655 11.2214 76.8402 11.5007 76.3154 11.708C75.7949 11.9111 75.1517 12.0127 74.3857 12.0127H74.2651V11.0161Z" fill="#FF0F0F"/>
<path d="M7.5 3L13.9952 12H1.00481L7.5 3Z" fill="#1BCE2D"/>
<path d="M61.5 12L55.0048 3L67.9952 3L61.5 12Z" fill="#FF0F0F"/>
<rect y="17" width="89" height="2" fill="#1BCE2D"/>
<rect x="89" y="17" width="8" height="2" fill="#FF0F0F"/>
</svg>
