<svg width="97" height="19" viewBox="0 0 97 19" fill="none" xmlns="http://www.w3.org/2000/svg">
<path d="M20.6274 2.70703V12H19.4531V4.17334L17.0854 5.03662V3.97656L20.4434 2.70703H20.6274ZM25.2485 11.0161H25.3691C26.0462 11.0161 26.5964 10.9209 27.0195 10.7305C27.4427 10.54 27.7686 10.284 27.9971 9.9624C28.2256 9.64079 28.3822 9.27897 28.4668 8.87695C28.5514 8.4707 28.5938 8.05387 28.5938 7.62646V6.21094C28.5938 5.79199 28.5451 5.4196 28.4478 5.09375C28.3547 4.7679 28.2235 4.49495 28.0542 4.2749C27.8892 4.05485 27.7008 3.8877 27.4893 3.77344C27.2777 3.65918 27.0534 3.60205 26.8164 3.60205C26.5456 3.60205 26.3022 3.65706 26.0864 3.76709C25.8748 3.87288 25.695 4.02311 25.5469 4.21777C25.403 4.41243 25.293 4.64095 25.2168 4.90332C25.1406 5.16569 25.1025 5.45133 25.1025 5.76025C25.1025 6.03532 25.1364 6.30192 25.2041 6.56006C25.2718 6.8182 25.3755 7.05094 25.5151 7.2583C25.6548 7.46566 25.8283 7.6307 26.0356 7.75342C26.2472 7.87191 26.4948 7.93115 26.7783 7.93115C27.0407 7.93115 27.2861 7.88037 27.5146 7.77881C27.7474 7.67301 27.9526 7.53125 28.1304 7.35352C28.3123 7.17155 28.4562 6.96631 28.562 6.73779C28.672 6.50928 28.7355 6.27018 28.7524 6.02051H29.311C29.311 6.37174 29.2412 6.71875 29.1016 7.06152C28.9661 7.40007 28.7757 7.70898 28.5303 7.98828C28.2848 8.26758 27.9971 8.49186 27.667 8.66113C27.3369 8.82617 26.9772 8.90869 26.5879 8.90869C26.1309 8.90869 25.7352 8.81982 25.4009 8.64209C25.0666 8.46436 24.7915 8.22738 24.5757 7.93115C24.3641 7.63493 24.2054 7.30485 24.0996 6.94092C23.998 6.57275 23.9473 6.20036 23.9473 5.82373C23.9473 5.38363 24.0086 4.97103 24.1313 4.58594C24.2541 4.20085 24.436 3.8623 24.6772 3.57031C24.9185 3.27409 25.2168 3.04346 25.5723 2.87842C25.932 2.71338 26.3467 2.63086 26.8164 2.63086C27.3454 2.63086 27.7961 2.73665 28.1685 2.94824C28.5409 3.15983 28.8434 3.44336 29.0762 3.79883C29.3132 4.1543 29.4867 4.5542 29.5967 4.99854C29.7067 5.44287 29.7617 5.8999 29.7617 6.36963V6.79492C29.7617 7.27311 29.73 7.75977 29.6665 8.25488C29.6073 8.74577 29.4909 9.21549 29.3174 9.66406C29.1481 10.1126 28.9006 10.5146 28.5747 10.8701C28.2489 11.2214 27.8236 11.5007 27.2988 11.708C26.7783 11.9111 26.1351 12.0127 25.3691 12.0127H25.2485V11.0161ZM32.561 11.0161H32.6816C33.3587 11.0161 33.9089 10.9209 34.332 10.7305C34.7552 10.54 35.0811 10.284 35.3096 9.9624C35.5381 9.64079 35.6947 9.27897 35.7793 8.87695C35.8639 8.4707 35.9062 8.05387 35.9062 7.62646V6.21094C35.9062 5.79199 35.8576 5.4196 35.7603 5.09375C35.6672 4.7679 35.536 4.49495 35.3667 4.2749C35.2017 4.05485 35.0133 3.8877 34.8018 3.77344C34.5902 3.65918 34.3659 3.60205 34.1289 3.60205C33.8581 3.60205 33.6147 3.65706 33.3989 3.76709C33.1873 3.87288 33.0075 4.02311 32.8594 4.21777C32.7155 4.41243 32.6055 4.64095 32.5293 4.90332C32.4531 5.16569 32.415 5.45133 32.415 5.76025C32.415 6.03532 32.4489 6.30192 32.5166 6.56006C32.5843 6.8182 32.688 7.05094 32.8276 7.2583C32.9673 7.46566 33.1408 7.6307 33.3481 7.75342C33.5597 7.87191 33.8073 7.93115 34.0908 7.93115C34.3532 7.93115 34.5986 7.88037 34.8271 7.77881C35.0599 7.67301 35.2651 7.53125 35.4429 7.35352C35.6248 7.17155 35.7687 6.96631 35.8745 6.73779C35.9845 6.50928 36.048 6.27018 36.0649 6.02051H36.6235C36.6235 6.37174 36.5537 6.71875 36.4141 7.06152C36.2786 7.40007 36.0882 7.70898 35.8428 7.98828C35.5973 8.26758 35.3096 8.49186 34.9795 8.66113C34.6494 8.82617 34.2897 8.90869 33.9004 8.90869C33.4434 8.90869 33.0477 8.81982 32.7134 8.64209C32.3791 8.46436 32.104 8.22738 31.8882 7.93115C31.6766 7.63493 31.5179 7.30485 31.4121 6.94092C31.3105 6.57275 31.2598 6.20036 31.2598 5.82373C31.2598 5.38363 31.3211 4.97103 31.4438 4.58594C31.5666 4.20085 31.7485 3.8623 31.9897 3.57031C32.231 3.27409 32.5293 3.04346 32.8848 2.87842C33.2445 2.71338 33.6592 2.63086 34.1289 2.63086C34.6579 2.63086 35.1086 2.73665 35.481 2.94824C35.8534 3.15983 36.1559 3.44336 36.3887 3.79883C36.6257 4.1543 36.7992 4.5542 36.9092 4.99854C37.0192 5.44287 37.0742 5.8999 37.0742 6.36963V6.79492C37.0742 7.27311 37.0425 7.75977 36.979 8.25488C36.9198 8.74577 36.8034 9.21549 36.6299 9.66406C36.4606 10.1126 36.2131 10.5146 35.8872 10.8701C35.5614 11.2214 35.1361 11.5007 34.6113 11.708C34.0908 11.9111 33.4476 12.0127 32.6816 12.0127H32.561V11.0161Z" fill="#1BCE2D"/>
<path d="M49.3696 2.75781L45.5166 12.7935H44.5073L48.3667 2.75781H49.3696Z" fill="black"/>
<path d="M73.7319 2.70703V12H72.5576V4.17334L70.1899 5.03662V3.97656L73.5479 2.70703H73.7319ZM82.9868 6.64258V8.05176C82.9868 8.80924 82.9191 9.44824 82.7837 9.96875C82.6483 10.4893 82.4536 10.9082 82.1997 11.2256C81.9458 11.543 81.639 11.7736 81.2793 11.9175C80.9238 12.0571 80.5218 12.127 80.0732 12.127C79.7178 12.127 79.3898 12.0825 79.0894 11.9937C78.7889 11.9048 78.5181 11.763 78.2769 11.5684C78.0399 11.3695 77.8368 11.1113 77.6675 10.7939C77.4982 10.4766 77.3691 10.0915 77.2803 9.63867C77.1914 9.18587 77.147 8.6569 77.147 8.05176V6.64258C77.147 5.88509 77.2147 5.25033 77.3501 4.73828C77.4897 4.22624 77.6865 3.81576 77.9404 3.50684C78.1943 3.19368 78.499 2.9694 78.8545 2.83398C79.2142 2.69857 79.6162 2.63086 80.0605 2.63086C80.4202 2.63086 80.7503 2.67529 81.0508 2.76416C81.3555 2.8488 81.6263 2.98633 81.8633 3.17676C82.1003 3.36296 82.3013 3.61263 82.4663 3.92578C82.6356 4.2347 82.7646 4.61344 82.8535 5.06201C82.9424 5.51058 82.9868 6.03743 82.9868 6.64258ZM81.8062 8.24219V6.4458C81.8062 6.03109 81.7808 5.66715 81.73 5.354C81.6834 5.03662 81.6136 4.76579 81.5205 4.5415C81.4274 4.31722 81.3089 4.13525 81.165 3.99561C81.0254 3.85596 80.8625 3.75439 80.6763 3.69092C80.4943 3.62321 80.2891 3.58936 80.0605 3.58936C79.7812 3.58936 79.5337 3.64225 79.3179 3.74805C79.1021 3.84961 78.9201 4.01253 78.772 4.23682C78.6281 4.4611 78.5181 4.75521 78.4419 5.11914C78.3657 5.48307 78.3276 5.92529 78.3276 6.4458V8.24219C78.3276 8.6569 78.3509 9.02295 78.3975 9.34033C78.4482 9.65771 78.5223 9.93278 78.6196 10.1655C78.717 10.394 78.8354 10.5824 78.9751 10.7305C79.1147 10.8786 79.2756 10.9886 79.4575 11.0605C79.6437 11.1283 79.849 11.1621 80.0732 11.1621C80.361 11.1621 80.6128 11.1071 80.8286 10.9971C81.0444 10.887 81.2243 10.7157 81.3682 10.4829C81.5163 10.2459 81.6263 9.94336 81.6982 9.5752C81.7702 9.2028 81.8062 8.75846 81.8062 8.24219Z" fill="#FF0F0F"/>
<path d="M7.5 3L13.9952 12H1.00481L7.5 3Z" fill="#1BCE2D"/>
<path d="M59.5 12L53.0048 3L65.9952 3L59.5 12Z" fill="#FF0F0F"/>
<rect y="17" width="83" height="2" fill="#1BCE2D"/>
<rect x="83" y="17" width="14" height="2" fill="#FF0F0F"/>
</svg>
