<svg width="97" height="19" viewBox="0 0 97 19" fill="none" xmlns="http://www.w3.org/2000/svg">
<path d="M22.8237 11.0352V12H16.7744V11.1558L19.8022 7.78516C20.1746 7.37044 20.4624 7.01921 20.6655 6.73145C20.8729 6.43945 21.0168 6.1792 21.0972 5.95068C21.1818 5.71794 21.2241 5.48096 21.2241 5.23975C21.2241 4.93506 21.1606 4.65999 21.0337 4.41455C20.911 4.16488 20.729 3.96598 20.4878 3.81787C20.2466 3.66976 19.9546 3.5957 19.6118 3.5957C19.2013 3.5957 18.8586 3.67611 18.5835 3.83691C18.3127 3.99349 18.1095 4.21354 17.9741 4.49707C17.8387 4.7806 17.771 5.10645 17.771 5.47461H16.5967C16.5967 4.9541 16.7109 4.47803 16.9395 4.04639C17.168 3.61475 17.5065 3.27197 17.9551 3.01807C18.4036 2.75993 18.9559 2.63086 19.6118 2.63086C20.1958 2.63086 20.6951 2.73454 21.1099 2.94189C21.5246 3.14502 21.842 3.43278 22.062 3.80518C22.2863 4.17334 22.3984 4.60498 22.3984 5.1001C22.3984 5.37093 22.3519 5.646 22.2588 5.92529C22.1699 6.20036 22.0451 6.47542 21.8843 6.75049C21.7277 7.02555 21.5436 7.29639 21.332 7.56299C21.1247 7.82959 20.9025 8.09196 20.6655 8.3501L18.1899 11.0352H22.8237ZM25.2485 11.0161H25.3691C26.0462 11.0161 26.5964 10.9209 27.0195 10.7305C27.4427 10.54 27.7686 10.284 27.9971 9.9624C28.2256 9.64079 28.3822 9.27897 28.4668 8.87695C28.5514 8.4707 28.5938 8.05387 28.5938 7.62646V6.21094C28.5938 5.79199 28.5451 5.4196 28.4478 5.09375C28.3547 4.7679 28.2235 4.49495 28.0542 4.2749C27.8892 4.05485 27.7008 3.8877 27.4893 3.77344C27.2777 3.65918 27.0534 3.60205 26.8164 3.60205C26.5456 3.60205 26.3022 3.65706 26.0864 3.76709C25.8748 3.87288 25.695 4.02311 25.5469 4.21777C25.403 4.41243 25.293 4.64095 25.2168 4.90332C25.1406 5.16569 25.1025 5.45133 25.1025 5.76025C25.1025 6.03532 25.1364 6.30192 25.2041 6.56006C25.2718 6.8182 25.3755 7.05094 25.5151 7.2583C25.6548 7.46566 25.8283 7.6307 26.0356 7.75342C26.2472 7.87191 26.4948 7.93115 26.7783 7.93115C27.0407 7.93115 27.2861 7.88037 27.5146 7.77881C27.7474 7.67301 27.9526 7.53125 28.1304 7.35352C28.3123 7.17155 28.4562 6.96631 28.562 6.73779C28.672 6.50928 28.7355 6.27018 28.7524 6.02051H29.311C29.311 6.37174 29.2412 6.71875 29.1016 7.06152C28.9661 7.40007 28.7757 7.70898 28.5303 7.98828C28.2848 8.26758 27.9971 8.49186 27.667 8.66113C27.3369 8.82617 26.9772 8.90869 26.5879 8.90869C26.1309 8.90869 25.7352 8.81982 25.4009 8.64209C25.0666 8.46436 24.7915 8.22738 24.5757 7.93115C24.3641 7.63493 24.2054 7.30485 24.0996 6.94092C23.998 6.57275 23.9473 6.20036 23.9473 5.82373C23.9473 5.38363 24.0086 4.97103 24.1313 4.58594C24.2541 4.20085 24.436 3.8623 24.6772 3.57031C24.9185 3.27409 25.2168 3.04346 25.5723 2.87842C25.932 2.71338 26.3467 2.63086 26.8164 2.63086C27.3454 2.63086 27.7961 2.73665 28.1685 2.94824C28.5409 3.15983 28.8434 3.44336 29.0762 3.79883C29.3132 4.1543 29.4867 4.5542 29.5967 4.99854C29.7067 5.44287 29.7617 5.8999 29.7617 6.36963V6.79492C29.7617 7.27311 29.73 7.75977 29.6665 8.25488C29.6073 8.74577 29.4909 9.21549 29.3174 9.66406C29.1481 10.1126 28.9006 10.5146 28.5747 10.8701C28.2489 11.2214 27.8236 11.5007 27.2988 11.708C26.7783 11.9111 26.1351 12.0127 25.3691 12.0127H25.2485V11.0161ZM37.2202 9.49902C37.2202 10.0618 37.089 10.54 36.8267 10.9336C36.5685 11.3229 36.2173 11.6191 35.7729 11.8223C35.3328 12.0254 34.8356 12.127 34.2812 12.127C33.7269 12.127 33.2275 12.0254 32.7832 11.8223C32.3389 11.6191 31.9876 11.3229 31.7295 10.9336C31.4714 10.54 31.3423 10.0618 31.3423 9.49902C31.3423 9.13086 31.4121 8.79443 31.5518 8.48975C31.6956 8.18083 31.8966 7.91211 32.1548 7.68359C32.4172 7.45508 32.7261 7.27946 33.0815 7.15674C33.4412 7.02979 33.8369 6.96631 34.2686 6.96631C34.8356 6.96631 35.3413 7.07633 35.7856 7.29639C36.23 7.51221 36.5791 7.81055 36.833 8.19141C37.0911 8.57227 37.2202 9.00814 37.2202 9.49902ZM36.0396 9.47363C36.0396 9.13086 35.9655 8.82829 35.8174 8.56592C35.6693 8.29932 35.4619 8.09196 35.1953 7.94385C34.9287 7.79574 34.6198 7.72168 34.2686 7.72168C33.9089 7.72168 33.5978 7.79574 33.3354 7.94385C33.0773 8.09196 32.8763 8.29932 32.7324 8.56592C32.5885 8.82829 32.5166 9.13086 32.5166 9.47363C32.5166 9.8291 32.5864 10.1338 32.7261 10.3877C32.87 10.6374 33.0731 10.8299 33.3354 10.9653C33.6021 11.0965 33.9173 11.1621 34.2812 11.1621C34.6452 11.1621 34.9583 11.0965 35.2207 10.9653C35.4831 10.8299 35.6841 10.6374 35.8237 10.3877C35.9676 10.1338 36.0396 9.8291 36.0396 9.47363ZM37.0044 5.16357C37.0044 5.61214 36.8859 6.01628 36.6489 6.37598C36.4119 6.73568 36.0882 7.01921 35.6777 7.22656C35.2673 7.43392 34.8018 7.5376 34.2812 7.5376C33.7523 7.5376 33.2804 7.43392 32.8657 7.22656C32.4552 7.01921 32.1336 6.73568 31.9009 6.37598C31.6681 6.01628 31.5518 5.61214 31.5518 5.16357C31.5518 4.62614 31.6681 4.16911 31.9009 3.79248C32.1379 3.41585 32.4616 3.12809 32.8721 2.9292C33.2826 2.73031 33.7502 2.63086 34.2749 2.63086C34.8039 2.63086 35.2736 2.73031 35.6841 2.9292C36.0946 3.12809 36.4162 3.41585 36.6489 3.79248C36.8859 4.16911 37.0044 4.62614 37.0044 5.16357ZM35.8301 5.18262C35.8301 4.8737 35.7645 4.60075 35.6333 4.36377C35.5021 4.12679 35.3201 3.94059 35.0874 3.80518C34.8547 3.66553 34.5838 3.5957 34.2749 3.5957C33.966 3.5957 33.6951 3.6613 33.4624 3.79248C33.2339 3.91943 33.054 4.1014 32.9229 4.33838C32.7959 4.57536 32.7324 4.85677 32.7324 5.18262C32.7324 5.5 32.7959 5.77718 32.9229 6.01416C33.054 6.25114 33.236 6.43522 33.4688 6.56641C33.7015 6.69759 33.9723 6.76318 34.2812 6.76318C34.5902 6.76318 34.8589 6.69759 35.0874 6.56641C35.3201 6.43522 35.5021 6.25114 35.6333 6.01416C35.7645 5.77718 35.8301 5.5 35.8301 5.18262Z" fill="#1BCE2D"/>
<path d="M49.3696 2.75781L45.5166 12.7935H44.5073L48.3667 2.75781H49.3696Z" fill="black"/>
<path d="M73.7319 2.70703V12H72.5576V4.17334L70.1899 5.03662V3.97656L73.5479 2.70703H73.7319ZM78.6704 7.60107L77.731 7.35986L78.1943 2.75781H82.936V3.84326H79.1909L78.9116 6.35693C79.0809 6.2596 79.2946 6.16862 79.5527 6.08398C79.8151 5.99935 80.1156 5.95703 80.4541 5.95703C80.8815 5.95703 81.2645 6.03109 81.603 6.1792C81.9416 6.32308 82.2293 6.53044 82.4663 6.80127C82.7075 7.0721 82.8916 7.39795 83.0186 7.77881C83.1455 8.15967 83.209 8.58496 83.209 9.05469C83.209 9.49902 83.1476 9.90739 83.0249 10.2798C82.9064 10.6522 82.7266 10.978 82.4854 11.2573C82.2441 11.5324 81.9395 11.7461 81.5713 11.8984C81.2074 12.0508 80.7778 12.127 80.2827 12.127C79.9103 12.127 79.557 12.0762 79.2227 11.9746C78.8926 11.8688 78.5964 11.7101 78.334 11.4985C78.0758 11.2827 77.8643 11.0161 77.6992 10.6987C77.5384 10.3771 77.4368 10.0005 77.3945 9.56885H78.5117C78.5625 9.91585 78.6641 10.2078 78.8164 10.4448C78.9688 10.6818 79.1676 10.8617 79.4131 10.9844C79.6628 11.1029 79.9526 11.1621 80.2827 11.1621C80.562 11.1621 80.8096 11.1134 81.0254 11.0161C81.2412 10.9188 81.4232 10.7791 81.5713 10.5972C81.7194 10.4152 81.8315 10.1951 81.9077 9.93701C81.9881 9.67887 82.0283 9.389 82.0283 9.06738C82.0283 8.77539 81.9881 8.50456 81.9077 8.25488C81.8273 8.00521 81.7067 7.78727 81.5459 7.60107C81.3893 7.41488 81.1968 7.271 80.9683 7.16943C80.7397 7.06364 80.4774 7.01074 80.1812 7.01074C79.7876 7.01074 79.4893 7.06364 79.2861 7.16943C79.0872 7.27523 78.882 7.41911 78.6704 7.60107Z" fill="#FF0F0F"/>
<path d="M7.5 3L13.9952 12H1.00481L7.5 3Z" fill="#1BCE2D"/>
<path d="M59.5 12L53.0048 3L65.9952 3L59.5 12Z" fill="#FF0F0F"/>
<rect y="17" width="91" height="2" fill="#1BCE2D"/>
<rect x="91" y="17" width="6" height="2" fill="#FF0F0F"/>
</svg>
