<svg width="97" height="19" viewBox="0 0 97 19" fill="none" xmlns="http://www.w3.org/2000/svg">
<path d="M18.2534 7.60107L17.314 7.35986L17.7773 2.75781H22.519V3.84326H18.7739L18.4946 6.35693C18.6639 6.2596 18.8776 6.16862 19.1357 6.08398C19.3981 5.99935 19.6986 5.95703 20.0371 5.95703C20.4645 5.95703 20.8475 6.03109 21.186 6.1792C21.5246 6.32308 21.8123 6.53044 22.0493 6.80127C22.2905 7.0721 22.4746 7.39795 22.6016 7.77881C22.7285 8.15967 22.792 8.58496 22.792 9.05469C22.792 9.49902 22.7306 9.90739 22.6079 10.2798C22.4894 10.6522 22.3096 10.978 22.0684 11.2573C21.8271 11.5324 21.5225 11.7461 21.1543 11.8984C20.7904 12.0508 20.3608 12.127 19.8657 12.127C19.4933 12.127 19.14 12.0762 18.8057 11.9746C18.4756 11.8688 18.1794 11.7101 17.917 11.4985C17.6589 11.2827 17.4473 11.0161 17.2822 10.6987C17.1214 10.3771 17.0199 10.0005 16.9775 9.56885H18.0947C18.1455 9.91585 18.2471 10.2078 18.3994 10.4448C18.5518 10.6818 18.7507 10.8617 18.9961 10.9844C19.2458 11.1029 19.5356 11.1621 19.8657 11.1621C20.145 11.1621 20.3926 11.1134 20.6084 11.0161C20.8242 10.9188 21.0062 10.7791 21.1543 10.5972C21.3024 10.4152 21.4146 10.1951 21.4907 9.93701C21.5711 9.67887 21.6113 9.389 21.6113 9.06738C21.6113 8.77539 21.5711 8.50456 21.4907 8.25488C21.4103 8.00521 21.2897 7.78727 21.1289 7.60107C20.9723 7.41488 20.7798 7.271 20.5513 7.16943C20.3228 7.06364 20.0604 7.01074 19.7642 7.01074C19.3706 7.01074 19.0723 7.06364 18.8691 7.16943C18.6702 7.27523 18.465 7.41911 18.2534 7.60107ZM30.3267 8.88965V9.85449H23.6489V9.1626L27.7876 2.75781H28.7461L27.7178 4.61133L24.9819 8.88965H30.3267ZM29.0381 2.75781V12H27.8638V2.75781H29.0381ZM37.3662 2.75781V3.41797L33.5386 12H32.3008L36.1221 3.72266H31.1201V2.75781H37.3662Z" fill="#1BCE2D"/>
<path d="M49.3696 2.75781L45.5166 12.7935H44.5073L48.3667 2.75781H49.3696Z" fill="black"/>
<path d="M76.1187 8.88965V9.85449H69.4409V9.1626L73.5796 2.75781H74.5381L73.5098 4.61133L70.7739 8.88965H76.1187ZM74.8301 2.75781V12H73.6558V2.75781H74.8301ZM83.1582 2.75781V3.41797L79.3306 12H78.0928L81.9141 3.72266H76.9121V2.75781H83.1582Z" fill="#FF0F0F"/>
<path d="M7.5 3L13.9952 12H1.00481L7.5 3Z" fill="#1BCE2D"/>
<path d="M59.5 12L53.0048 3L65.9952 3L59.5 12Z" fill="#FF0F0F"/>
<rect y="17" width="85" height="2" fill="#1BCE2D"/>
<rect x="85" y="17" width="12" height="2" fill="#FF0F0F"/>
</svg>
