<svg width="97" height="19" viewBox="0 0 97 19" fill="none" xmlns="http://www.w3.org/2000/svg">
<path d="M21.2749 2.74512H21.3765V3.7417H21.2749C20.6528 3.7417 20.1323 3.84326 19.7134 4.04639C19.2944 4.24528 18.9622 4.514 18.7168 4.85254C18.4714 5.18685 18.2936 5.56348 18.1836 5.98242C18.0778 6.40137 18.0249 6.82666 18.0249 7.2583V8.6167C18.0249 9.02718 18.0736 9.39111 18.1709 9.7085C18.2682 10.0216 18.4015 10.2861 18.5708 10.502C18.7401 10.7178 18.9305 10.8807 19.1421 10.9907C19.3579 11.1007 19.5822 11.1558 19.8149 11.1558C20.0858 11.1558 20.327 11.105 20.5386 11.0034C20.7502 10.8976 20.9279 10.7516 21.0718 10.5654C21.2199 10.375 21.332 10.1507 21.4082 9.89258C21.4844 9.63444 21.5225 9.35091 21.5225 9.04199C21.5225 8.76693 21.4886 8.50244 21.4209 8.24854C21.3532 7.9904 21.2495 7.76188 21.1099 7.56299C20.9702 7.35986 20.7946 7.20117 20.583 7.08691C20.3757 6.96842 20.1281 6.90918 19.8403 6.90918C19.5145 6.90918 19.2098 6.98958 18.9263 7.15039C18.647 7.30697 18.4163 7.51432 18.2344 7.77246C18.0566 8.02637 17.9551 8.30355 17.9297 8.604L17.3076 8.59766C17.3669 8.1237 17.4769 7.71956 17.6377 7.38525C17.8027 7.04671 18.0059 6.77165 18.2471 6.56006C18.4925 6.34424 18.7655 6.18766 19.0659 6.09033C19.3706 5.98877 19.6922 5.93799 20.0308 5.93799C20.492 5.93799 20.8898 6.02474 21.2241 6.19824C21.5584 6.37174 21.8335 6.60449 22.0493 6.89648C22.2651 7.18424 22.4238 7.51009 22.5254 7.87402C22.6312 8.23372 22.6841 8.604 22.6841 8.98486C22.6841 9.42074 22.6227 9.8291 22.5 10.21C22.3773 10.5908 22.1932 10.9251 21.9478 11.2129C21.7065 11.5007 21.4082 11.7249 21.0527 11.8857C20.6973 12.0465 20.2847 12.127 19.8149 12.127C19.3156 12.127 18.8797 12.0254 18.5073 11.8223C18.1349 11.6149 17.826 11.3398 17.5806 10.9971C17.3351 10.6543 17.151 10.2734 17.0283 9.85449C16.9056 9.43555 16.8442 9.01025 16.8442 8.57861V8.02637C16.8442 7.37467 16.9098 6.73568 17.041 6.10938C17.1722 5.48307 17.3986 4.91602 17.7202 4.4082C18.0461 3.90039 18.4967 3.49626 19.0723 3.1958C19.6478 2.89535 20.382 2.74512 21.2749 2.74512ZM29.8823 6.64258V8.05176C29.8823 8.80924 29.8146 9.44824 29.6792 9.96875C29.5438 10.4893 29.3491 10.9082 29.0952 11.2256C28.8413 11.543 28.5345 11.7736 28.1748 11.9175C27.8193 12.0571 27.4173 12.127 26.9688 12.127C26.6133 12.127 26.2853 12.0825 25.9849 11.9937C25.6844 11.9048 25.4136 11.763 25.1724 11.5684C24.9354 11.3695 24.7323 11.1113 24.563 10.7939C24.3937 10.4766 24.2646 10.0915 24.1758 9.63867C24.0869 9.18587 24.0425 8.6569 24.0425 8.05176V6.64258C24.0425 5.88509 24.1102 5.25033 24.2456 4.73828C24.3853 4.22624 24.582 3.81576 24.8359 3.50684C25.0898 3.19368 25.3945 2.9694 25.75 2.83398C26.1097 2.69857 26.5117 2.63086 26.9561 2.63086C27.3158 2.63086 27.6458 2.67529 27.9463 2.76416C28.251 2.8488 28.5218 2.98633 28.7588 3.17676C28.9958 3.36296 29.1968 3.61263 29.3618 3.92578C29.5311 4.2347 29.6602 4.61344 29.749 5.06201C29.8379 5.51058 29.8823 6.03743 29.8823 6.64258ZM28.7017 8.24219V6.4458C28.7017 6.03109 28.6763 5.66715 28.6255 5.354C28.5789 5.03662 28.5091 4.76579 28.416 4.5415C28.3229 4.31722 28.2044 4.13525 28.0605 3.99561C27.9209 3.85596 27.758 3.75439 27.5718 3.69092C27.3898 3.62321 27.1846 3.58936 26.9561 3.58936C26.6768 3.58936 26.4292 3.64225 26.2134 3.74805C25.9976 3.84961 25.8156 4.01253 25.6675 4.23682C25.5236 4.4611 25.4136 4.75521 25.3374 5.11914C25.2612 5.48307 25.2231 5.92529 25.2231 6.4458V8.24219C25.2231 8.6569 25.2464 9.02295 25.293 9.34033C25.3438 9.65771 25.4178 9.93278 25.5151 10.1655C25.6125 10.394 25.731 10.5824 25.8706 10.7305C26.0103 10.8786 26.1711 10.9886 26.353 11.0605C26.5392 11.1283 26.7445 11.1621 26.9688 11.1621C27.2565 11.1621 27.5083 11.1071 27.7241 10.9971C27.9399 10.887 28.1198 10.7157 28.2637 10.4829C28.4118 10.2459 28.5218 9.94336 28.5938 9.5752C28.6657 9.2028 28.7017 8.75846 28.7017 8.24219ZM35.2524 2.70703V12H34.0781V4.17334L31.7104 5.03662V3.97656L35.0684 2.70703H35.2524Z" fill="#1BCE2D"/>
<path d="M49.3696 2.75781L45.5166 12.7935H44.5073L48.3667 2.75781H49.3696Z" fill="black"/>
<path d="M76.1187 8.88965V9.85449H69.4409V9.1626L73.5796 2.75781H74.5381L73.5098 4.61133L70.7739 8.88965H76.1187ZM74.8301 2.75781V12H73.6558V2.75781H74.8301Z" fill="#FF0F0F"/>
<path d="M7.5 3L13.9952 12H1.00481L7.5 3Z" fill="#1BCE2D"/>
<path d="M59.5 12L53.0048 3L65.9952 3L59.5 12Z" fill="#FF0F0F"/>
<rect y="17" width="85" height="2" fill="#1BCE2D"/>
<rect x="85" y="17" width="12" height="2" fill="#FF0F0F"/>
</svg>
