<svg width="97" height="19" viewBox="0 0 97 19" fill="none" xmlns="http://www.w3.org/2000/svg">
<path d="M22.7412 2.75781V3.41797L18.9136 12H17.6758L21.4971 3.72266H16.4951V2.75781H22.7412Z" fill="#1BCE2D"/>
<path d="M34.7446 2.75781L30.8916 12.7935H29.8823L33.7417 2.75781H34.7446Z" fill="black"/>
<path d="M64.7183 8.88965V9.85449H58.0405V9.1626L62.1792 2.75781H63.1377L62.1094 4.61133L59.3735 8.88965H64.7183ZM63.4297 2.75781V12H62.2554V2.75781H63.4297Z" fill="#FF0F0F"/>
<path d="M7.5 3L13.9952 12H1.00481L7.5 3Z" fill="#1BCE2D"/>
<path d="M47.5 12L41.0048 3L53.9952 3L47.5 12Z" fill="#FF0F0F"/>
<rect y="17" width="49" height="2" fill="#1BCE2D"/>
<rect x="49" y="17" width="48" height="2" fill="#FF0F0F"/>
</svg>
