<svg width="97" height="19" viewBox="0 0 97 19" fill="none" xmlns="http://www.w3.org/2000/svg">
<path d="M22.5952 9.49902C22.5952 10.0618 22.464 10.54 22.2017 10.9336C21.9435 11.3229 21.5923 11.6191 21.1479 11.8223C20.7078 12.0254 20.2106 12.127 19.6562 12.127C19.1019 12.127 18.6025 12.0254 18.1582 11.8223C17.7139 11.6191 17.3626 11.3229 17.1045 10.9336C16.8464 10.54 16.7173 10.0618 16.7173 9.49902C16.7173 9.13086 16.7871 8.79443 16.9268 8.48975C17.0706 8.18083 17.2716 7.91211 17.5298 7.68359C17.7922 7.45508 18.1011 7.27946 18.4565 7.15674C18.8162 7.02979 19.2119 6.96631 19.6436 6.96631C20.2106 6.96631 20.7163 7.07633 21.1606 7.29639C21.605 7.51221 21.9541 7.81055 22.208 8.19141C22.4661 8.57227 22.5952 9.00814 22.5952 9.49902ZM21.4146 9.47363C21.4146 9.13086 21.3405 8.82829 21.1924 8.56592C21.0443 8.29932 20.8369 8.09196 20.5703 7.94385C20.3037 7.79574 19.9948 7.72168 19.6436 7.72168C19.2839 7.72168 18.9728 7.79574 18.7104 7.94385C18.4523 8.09196 18.2513 8.29932 18.1074 8.56592C17.9635 8.82829 17.8916 9.13086 17.8916 9.47363C17.8916 9.8291 17.9614 10.1338 18.1011 10.3877C18.245 10.6374 18.4481 10.8299 18.7104 10.9653C18.9771 11.0965 19.2923 11.1621 19.6562 11.1621C20.0202 11.1621 20.3333 11.0965 20.5957 10.9653C20.8581 10.8299 21.0591 10.6374 21.1987 10.3877C21.3426 10.1338 21.4146 9.8291 21.4146 9.47363ZM22.3794 5.16357C22.3794 5.61214 22.2609 6.01628 22.0239 6.37598C21.7869 6.73568 21.4632 7.01921 21.0527 7.22656C20.6423 7.43392 20.1768 7.5376 19.6562 7.5376C19.1273 7.5376 18.6554 7.43392 18.2407 7.22656C17.8302 7.01921 17.5086 6.73568 17.2759 6.37598C17.0431 6.01628 16.9268 5.61214 16.9268 5.16357C16.9268 4.62614 17.0431 4.16911 17.2759 3.79248C17.5129 3.41585 17.8366 3.12809 18.2471 2.9292C18.6576 2.73031 19.1252 2.63086 19.6499 2.63086C20.1789 2.63086 20.6486 2.73031 21.0591 2.9292C21.4696 3.12809 21.7912 3.41585 22.0239 3.79248C22.2609 4.16911 22.3794 4.62614 22.3794 5.16357ZM21.2051 5.18262C21.2051 4.8737 21.1395 4.60075 21.0083 4.36377C20.8771 4.12679 20.6951 3.94059 20.4624 3.80518C20.2297 3.66553 19.9588 3.5957 19.6499 3.5957C19.341 3.5957 19.0701 3.6613 18.8374 3.79248C18.6089 3.91943 18.429 4.1014 18.2979 4.33838C18.1709 4.57536 18.1074 4.85677 18.1074 5.18262C18.1074 5.5 18.1709 5.77718 18.2979 6.01416C18.429 6.25114 18.611 6.43522 18.8438 6.56641C19.0765 6.69759 19.3473 6.76318 19.6562 6.76318C19.9652 6.76318 20.2339 6.69759 20.4624 6.56641C20.6951 6.43522 20.8771 6.25114 21.0083 6.01416C21.1395 5.77718 21.2051 5.5 21.2051 5.18262ZM25.7944 6.80127H26.6323C27.0428 6.80127 27.3813 6.73356 27.6479 6.59814C27.9188 6.4585 28.1198 6.27018 28.251 6.0332C28.3864 5.79199 28.4541 5.52116 28.4541 5.2207C28.4541 4.86523 28.3949 4.56689 28.2764 4.32568C28.1579 4.08447 27.9801 3.90251 27.7432 3.77979C27.5062 3.65706 27.2057 3.5957 26.8418 3.5957C26.5117 3.5957 26.2197 3.6613 25.9658 3.79248C25.7161 3.91943 25.5194 4.1014 25.3755 4.33838C25.2358 4.57536 25.166 4.85465 25.166 5.17627H23.9917C23.9917 4.70654 24.1102 4.27913 24.3472 3.89404C24.5841 3.50895 24.9163 3.20215 25.3438 2.97363C25.7754 2.74512 26.2747 2.63086 26.8418 2.63086C27.4004 2.63086 27.8892 2.73031 28.3081 2.9292C28.7271 3.12386 29.0529 3.41585 29.2856 3.80518C29.5184 4.19027 29.6348 4.67057 29.6348 5.24609C29.6348 5.47884 29.5798 5.72852 29.4697 5.99512C29.3639 6.25749 29.1968 6.50293 28.9683 6.73145C28.744 6.95996 28.452 7.14827 28.0923 7.29639C27.7326 7.44027 27.3009 7.51221 26.7974 7.51221H25.7944V6.80127ZM25.7944 7.76611V7.06152H26.7974C27.3856 7.06152 27.8722 7.13135 28.2573 7.271C28.6424 7.41064 28.945 7.59684 29.165 7.82959C29.3893 8.06234 29.5459 8.31836 29.6348 8.59766C29.7279 8.87272 29.7744 9.14779 29.7744 9.42285C29.7744 9.85449 29.7004 10.2375 29.5522 10.5718C29.4084 10.9061 29.2031 11.1896 28.9365 11.4224C28.6742 11.6551 28.3652 11.8307 28.0098 11.9492C27.6543 12.0677 27.2671 12.127 26.8481 12.127C26.4461 12.127 26.0674 12.0698 25.7119 11.9556C25.3607 11.8413 25.0496 11.6763 24.7788 11.4604C24.508 11.2404 24.2964 10.9717 24.144 10.6543C23.9917 10.3327 23.9155 9.96663 23.9155 9.55615H25.0898C25.0898 9.87777 25.1597 10.1592 25.2993 10.4004C25.4432 10.6416 25.6463 10.8299 25.9087 10.9653C26.1753 11.0965 26.4884 11.1621 26.8481 11.1621C27.2078 11.1621 27.5168 11.1007 27.7749 10.978C28.0373 10.8511 28.2383 10.6606 28.3779 10.4067C28.5218 10.1528 28.5938 9.83333 28.5938 9.44824C28.5938 9.06315 28.5133 8.74788 28.3525 8.50244C28.1917 8.25277 27.9632 8.06868 27.667 7.9502C27.375 7.82747 27.0301 7.76611 26.6323 7.76611H25.7944Z" fill="#1BCE2D"/>
<path d="M42.0571 2.75781L38.2041 12.7935H37.1948L41.0542 2.75781H42.0571Z" fill="black"/>
<path d="M67.4985 6.80127H68.3364C68.7469 6.80127 69.0854 6.73356 69.3521 6.59814C69.6229 6.4585 69.8239 6.27018 69.9551 6.0332C70.0905 5.79199 70.1582 5.52116 70.1582 5.2207C70.1582 4.86523 70.099 4.56689 69.9805 4.32568C69.862 4.08447 69.6842 3.90251 69.4473 3.77979C69.2103 3.65706 68.9098 3.5957 68.5459 3.5957C68.2158 3.5957 67.9238 3.6613 67.6699 3.79248C67.4202 3.91943 67.2235 4.1014 67.0796 4.33838C66.9399 4.57536 66.8701 4.85465 66.8701 5.17627H65.6958C65.6958 4.70654 65.8143 4.27913 66.0513 3.89404C66.2882 3.50895 66.6204 3.20215 67.0479 2.97363C67.4795 2.74512 67.9788 2.63086 68.5459 2.63086C69.1045 2.63086 69.5933 2.73031 70.0122 2.9292C70.4312 3.12386 70.757 3.41585 70.9897 3.80518C71.2225 4.19027 71.3389 4.67057 71.3389 5.24609C71.3389 5.47884 71.2839 5.72852 71.1738 5.99512C71.068 6.25749 70.9009 6.50293 70.6724 6.73145C70.4481 6.95996 70.1561 7.14827 69.7964 7.29639C69.4367 7.44027 69.005 7.51221 68.5015 7.51221H67.4985V6.80127ZM67.4985 7.76611V7.06152H68.5015C69.0897 7.06152 69.5763 7.13135 69.9614 7.271C70.3465 7.41064 70.6491 7.59684 70.8691 7.82959C71.0934 8.06234 71.25 8.31836 71.3389 8.59766C71.432 8.87272 71.4785 9.14779 71.4785 9.42285C71.4785 9.85449 71.4045 10.2375 71.2563 10.5718C71.1125 10.9061 70.9072 11.1896 70.6406 11.4224C70.3783 11.6551 70.0693 11.8307 69.7139 11.9492C69.3584 12.0677 68.9712 12.127 68.5522 12.127C68.1502 12.127 67.7715 12.0698 67.416 11.9556C67.0648 11.8413 66.7537 11.6763 66.4829 11.4604C66.2121 11.2404 66.0005 10.9717 65.8481 10.6543C65.6958 10.3327 65.6196 9.96663 65.6196 9.55615H66.7939C66.7939 9.87777 66.8638 10.1592 67.0034 10.4004C67.1473 10.6416 67.3504 10.8299 67.6128 10.9653C67.8794 11.0965 68.1925 11.1621 68.5522 11.1621C68.9119 11.1621 69.2209 11.1007 69.479 10.978C69.7414 10.8511 69.9424 10.6606 70.082 10.4067C70.2259 10.1528 70.2979 9.83333 70.2979 9.44824C70.2979 9.06315 70.2174 8.74788 70.0566 8.50244C69.8958 8.25277 69.6673 8.06868 69.3711 7.9502C69.0791 7.82747 68.7342 7.76611 68.3364 7.76611H67.4985Z" fill="#FF0F0F"/>
<path d="M7.5 3L13.9952 12H1.00481L7.5 3Z" fill="#1BCE2D"/>
<path d="M57.5 12L51.0048 3L63.9952 3L57.5 12Z" fill="#FF0F0F"/>
<rect y="17" width="89" height="2" fill="#1BCE2D"/>
<rect x="89" y="17" width="8" height="2" fill="#FF0F0F"/>
</svg>
