<svg width="97" height="19" viewBox="0 0 97 19" fill="none" xmlns="http://www.w3.org/2000/svg">
<path d="M21.2749 2.74512H21.3765V3.7417H21.2749C20.6528 3.7417 20.1323 3.84326 19.7134 4.04639C19.2944 4.24528 18.9622 4.514 18.7168 4.85254C18.4714 5.18685 18.2936 5.56348 18.1836 5.98242C18.0778 6.40137 18.0249 6.82666 18.0249 7.2583V8.6167C18.0249 9.02718 18.0736 9.39111 18.1709 9.7085C18.2682 10.0216 18.4015 10.2861 18.5708 10.502C18.7401 10.7178 18.9305 10.8807 19.1421 10.9907C19.3579 11.1007 19.5822 11.1558 19.8149 11.1558C20.0858 11.1558 20.327 11.105 20.5386 11.0034C20.7502 10.8976 20.9279 10.7516 21.0718 10.5654C21.2199 10.375 21.332 10.1507 21.4082 9.89258C21.4844 9.63444 21.5225 9.35091 21.5225 9.04199C21.5225 8.76693 21.4886 8.50244 21.4209 8.24854C21.3532 7.9904 21.2495 7.76188 21.1099 7.56299C20.9702 7.35986 20.7946 7.20117 20.583 7.08691C20.3757 6.96842 20.1281 6.90918 19.8403 6.90918C19.5145 6.90918 19.2098 6.98958 18.9263 7.15039C18.647 7.30697 18.4163 7.51432 18.2344 7.77246C18.0566 8.02637 17.9551 8.30355 17.9297 8.604L17.3076 8.59766C17.3669 8.1237 17.4769 7.71956 17.6377 7.38525C17.8027 7.04671 18.0059 6.77165 18.2471 6.56006C18.4925 6.34424 18.7655 6.18766 19.0659 6.09033C19.3706 5.98877 19.6922 5.93799 20.0308 5.93799C20.492 5.93799 20.8898 6.02474 21.2241 6.19824C21.5584 6.37174 21.8335 6.60449 22.0493 6.89648C22.2651 7.18424 22.4238 7.51009 22.5254 7.87402C22.6312 8.23372 22.6841 8.604 22.6841 8.98486C22.6841 9.42074 22.6227 9.8291 22.5 10.21C22.3773 10.5908 22.1932 10.9251 21.9478 11.2129C21.7065 11.5007 21.4082 11.7249 21.0527 11.8857C20.6973 12.0465 20.2847 12.127 19.8149 12.127C19.3156 12.127 18.8797 12.0254 18.5073 11.8223C18.1349 11.6149 17.826 11.3398 17.5806 10.9971C17.3351 10.6543 17.151 10.2734 17.0283 9.85449C16.9056 9.43555 16.8442 9.01025 16.8442 8.57861V8.02637C16.8442 7.37467 16.9098 6.73568 17.041 6.10938C17.1722 5.48307 17.3986 4.91602 17.7202 4.4082C18.0461 3.90039 18.4967 3.49626 19.0723 3.1958C19.6478 2.89535 20.382 2.74512 21.2749 2.74512Z" fill="#1BCE2D"/>
<path d="M34.7446 2.75781L30.8916 12.7935H29.8823L33.7417 2.75781H34.7446Z" fill="black"/>
<path d="M59.6401 11.0161H59.7607C60.4378 11.0161 60.988 10.9209 61.4111 10.7305C61.8343 10.54 62.1602 10.284 62.3887 9.9624C62.6172 9.64079 62.7738 9.27897 62.8584 8.87695C62.943 8.4707 62.9854 8.05387 62.9854 7.62646V6.21094C62.9854 5.79199 62.9367 5.4196 62.8394 5.09375C62.7463 4.7679 62.6151 4.49495 62.4458 4.2749C62.2808 4.05485 62.0924 3.8877 61.8809 3.77344C61.6693 3.65918 61.445 3.60205 61.208 3.60205C60.9372 3.60205 60.6938 3.65706 60.478 3.76709C60.2664 3.87288 60.0866 4.02311 59.9385 4.21777C59.7946 4.41243 59.6846 4.64095 59.6084 4.90332C59.5322 5.16569 59.4941 5.45133 59.4941 5.76025C59.4941 6.03532 59.528 6.30192 59.5957 6.56006C59.6634 6.8182 59.7671 7.05094 59.9067 7.2583C60.0464 7.46566 60.2199 7.6307 60.4272 7.75342C60.6388 7.87191 60.8864 7.93115 61.1699 7.93115C61.4323 7.93115 61.6777 7.88037 61.9062 7.77881C62.139 7.67301 62.3442 7.53125 62.522 7.35352C62.7039 7.17155 62.8478 6.96631 62.9536 6.73779C63.0636 6.50928 63.1271 6.27018 63.144 6.02051H63.7026C63.7026 6.37174 63.6328 6.71875 63.4932 7.06152C63.3577 7.40007 63.1673 7.70898 62.9219 7.98828C62.6764 8.26758 62.3887 8.49186 62.0586 8.66113C61.7285 8.82617 61.3688 8.90869 60.9795 8.90869C60.5225 8.90869 60.1268 8.81982 59.7925 8.64209C59.4582 8.46436 59.1831 8.22738 58.9673 7.93115C58.7557 7.63493 58.597 7.30485 58.4912 6.94092C58.3896 6.57275 58.3389 6.20036 58.3389 5.82373C58.3389 5.38363 58.4002 4.97103 58.5229 4.58594C58.6457 4.20085 58.8276 3.8623 59.0688 3.57031C59.3101 3.27409 59.6084 3.04346 59.9639 2.87842C60.3236 2.71338 60.7383 2.63086 61.208 2.63086C61.737 2.63086 62.1877 2.73665 62.5601 2.94824C62.9325 3.15983 63.235 3.44336 63.4678 3.79883C63.7048 4.1543 63.8783 4.5542 63.9883 4.99854C64.0983 5.44287 64.1533 5.8999 64.1533 6.36963V6.79492C64.1533 7.27311 64.1216 7.75977 64.0581 8.25488C63.9989 8.74577 63.8825 9.21549 63.709 9.66406C63.5397 10.1126 63.2922 10.5146 62.9663 10.8701C62.6405 11.2214 62.2152 11.5007 61.6904 11.708C61.1699 11.9111 60.5267 12.0127 59.7607 12.0127H59.6401V11.0161Z" fill="#FF0F0F"/>
<path d="M7.5 3L13.9952 12H1.00481L7.5 3Z" fill="#1BCE2D"/>
<path d="M47.5 12L41.0048 3L53.9952 3L47.5 12Z" fill="#FF0F0F"/>
<rect y="17" width="44" height="2" fill="#1BCE2D"/>
<rect x="44" y="17" width="53" height="2" fill="#FF0F0F"/>
</svg>
