<svg width="97" height="19" viewBox="0 0 97 19" fill="none" xmlns="http://www.w3.org/2000/svg">
<path d="M23.0142 8.88965V9.85449H16.3364V9.1626L20.4751 2.75781H21.4336L20.4053 4.61133L17.6694 8.88965H23.0142ZM21.7256 2.75781V12H20.5513V2.75781H21.7256ZM27.9399 2.70703V12H26.7656V4.17334L24.3979 5.03662V3.97656L27.7559 2.70703H27.9399Z" fill="#1BCE2D"/>
<path d="M42.0571 2.75781L38.2041 12.7935H37.1948L41.0542 2.75781H42.0571Z" fill="black"/>
<path d="M69.644 2.70703V12H68.4697V4.17334L66.1021 5.03662V3.97656L69.46 2.70703H69.644ZM79.0703 2.75781V3.41797L75.2427 12H74.0049L77.8262 3.72266H72.8242V2.75781H79.0703Z" fill="#FF0F0F"/>
<path d="M7.5 3L13.9952 12H1.00481L7.5 3Z" fill="#1BCE2D"/>
<path d="M55.5 12L49.0048 3L61.9952 3L55.5 12Z" fill="#FF0F0F"/>
<rect y="17" width="75" height="2" fill="#1BCE2D"/>
<rect x="75" y="17" width="22" height="2" fill="#FF0F0F"/>
</svg>
