<svg width="97" height="19" viewBox="0 0 97 19" fill="none" xmlns="http://www.w3.org/2000/svg">
<path d="M20.6274 2.70703V12H19.4531V4.17334L17.0854 5.03662V3.97656L20.4434 2.70703H20.6274ZM29.8823 6.64258V8.05176C29.8823 8.80924 29.8146 9.44824 29.6792 9.96875C29.5438 10.4893 29.3491 10.9082 29.0952 11.2256C28.8413 11.543 28.5345 11.7736 28.1748 11.9175C27.8193 12.0571 27.4173 12.127 26.9688 12.127C26.6133 12.127 26.2853 12.0825 25.9849 11.9937C25.6844 11.9048 25.4136 11.763 25.1724 11.5684C24.9354 11.3695 24.7323 11.1113 24.563 10.7939C24.3937 10.4766 24.2646 10.0915 24.1758 9.63867C24.0869 9.18587 24.0425 8.6569 24.0425 8.05176V6.64258C24.0425 5.88509 24.1102 5.25033 24.2456 4.73828C24.3853 4.22624 24.582 3.81576 24.8359 3.50684C25.0898 3.19368 25.3945 2.9694 25.75 2.83398C26.1097 2.69857 26.5117 2.63086 26.9561 2.63086C27.3158 2.63086 27.6458 2.67529 27.9463 2.76416C28.251 2.8488 28.5218 2.98633 28.7588 3.17676C28.9958 3.36296 29.1968 3.61263 29.3618 3.92578C29.5311 4.2347 29.6602 4.61344 29.749 5.06201C29.8379 5.51058 29.8823 6.03743 29.8823 6.64258ZM28.7017 8.24219V6.4458C28.7017 6.03109 28.6763 5.66715 28.6255 5.354C28.5789 5.03662 28.5091 4.76579 28.416 4.5415C28.3229 4.31722 28.2044 4.13525 28.0605 3.99561C27.9209 3.85596 27.758 3.75439 27.5718 3.69092C27.3898 3.62321 27.1846 3.58936 26.9561 3.58936C26.6768 3.58936 26.4292 3.64225 26.2134 3.74805C25.9976 3.84961 25.8156 4.01253 25.6675 4.23682C25.5236 4.4611 25.4136 4.75521 25.3374 5.11914C25.2612 5.48307 25.2231 5.92529 25.2231 6.4458V8.24219C25.2231 8.6569 25.2464 9.02295 25.293 9.34033C25.3438 9.65771 25.4178 9.93278 25.5151 10.1655C25.6125 10.394 25.731 10.5824 25.8706 10.7305C26.0103 10.8786 26.1711 10.9886 26.353 11.0605C26.5392 11.1283 26.7445 11.1621 26.9688 11.1621C27.2565 11.1621 27.5083 11.1071 27.7241 10.9971C27.9399 10.887 28.1198 10.7157 28.2637 10.4829C28.4118 10.2459 28.5218 9.94336 28.5938 9.5752C28.6657 9.2028 28.7017 8.75846 28.7017 8.24219Z" fill="#1BCE2D"/>
<path d="M42.0571 2.75781L38.2041 12.7935H37.1948L41.0542 2.75781H42.0571Z" fill="black"/>
<path d="M67.4985 6.80127H68.3364C68.7469 6.80127 69.0854 6.73356 69.3521 6.59814C69.6229 6.4585 69.8239 6.27018 69.9551 6.0332C70.0905 5.79199 70.1582 5.52116 70.1582 5.2207C70.1582 4.86523 70.099 4.56689 69.9805 4.32568C69.862 4.08447 69.6842 3.90251 69.4473 3.77979C69.2103 3.65706 68.9098 3.5957 68.5459 3.5957C68.2158 3.5957 67.9238 3.6613 67.6699 3.79248C67.4202 3.91943 67.2235 4.1014 67.0796 4.33838C66.9399 4.57536 66.8701 4.85465 66.8701 5.17627H65.6958C65.6958 4.70654 65.8143 4.27913 66.0513 3.89404C66.2882 3.50895 66.6204 3.20215 67.0479 2.97363C67.4795 2.74512 67.9788 2.63086 68.5459 2.63086C69.1045 2.63086 69.5933 2.73031 70.0122 2.9292C70.4312 3.12386 70.757 3.41585 70.9897 3.80518C71.2225 4.19027 71.3389 4.67057 71.3389 5.24609C71.3389 5.47884 71.2839 5.72852 71.1738 5.99512C71.068 6.25749 70.9009 6.50293 70.6724 6.73145C70.4481 6.95996 70.1561 7.14827 69.7964 7.29639C69.4367 7.44027 69.005 7.51221 68.5015 7.51221H67.4985V6.80127ZM67.4985 7.76611V7.06152H68.5015C69.0897 7.06152 69.5763 7.13135 69.9614 7.271C70.3465 7.41064 70.6491 7.59684 70.8691 7.82959C71.0934 8.06234 71.25 8.31836 71.3389 8.59766C71.432 8.87272 71.4785 9.14779 71.4785 9.42285C71.4785 9.85449 71.4045 10.2375 71.2563 10.5718C71.1125 10.9061 70.9072 11.1896 70.6406 11.4224C70.3783 11.6551 70.0693 11.8307 69.7139 11.9492C69.3584 12.0677 68.9712 12.127 68.5522 12.127C68.1502 12.127 67.7715 12.0698 67.416 11.9556C67.0648 11.8413 66.7537 11.6763 66.4829 11.4604C66.2121 11.2404 66.0005 10.9717 65.8481 10.6543C65.6958 10.3327 65.6196 9.96663 65.6196 9.55615H66.7939C66.7939 9.87777 66.8638 10.1592 67.0034 10.4004C67.1473 10.6416 67.3504 10.8299 67.6128 10.9653C67.8794 11.0965 68.1925 11.1621 68.5522 11.1621C68.9119 11.1621 69.2209 11.1007 69.479 10.978C69.7414 10.8511 69.9424 10.6606 70.082 10.4067C70.2259 10.1528 70.2979 9.83333 70.2979 9.44824C70.2979 9.06315 70.2174 8.74788 70.0566 8.50244C69.8958 8.25277 69.6673 8.06868 69.3711 7.9502C69.0791 7.82747 68.7342 7.76611 68.3364 7.76611H67.4985ZM79.1528 11.0352V12H73.1035V11.1558L76.1313 7.78516C76.5037 7.37044 76.7915 7.01921 76.9946 6.73145C77.202 6.43945 77.3459 6.1792 77.4263 5.95068C77.5109 5.71794 77.5532 5.48096 77.5532 5.23975C77.5532 4.93506 77.4897 4.65999 77.3628 4.41455C77.2401 4.16488 77.0581 3.96598 76.8169 3.81787C76.5757 3.66976 76.2837 3.5957 75.9409 3.5957C75.5304 3.5957 75.1877 3.67611 74.9126 3.83691C74.6418 3.99349 74.4386 4.21354 74.3032 4.49707C74.1678 4.7806 74.1001 5.10645 74.1001 5.47461H72.9258C72.9258 4.9541 73.04 4.47803 73.2686 4.04639C73.4971 3.61475 73.8356 3.27197 74.2842 3.01807C74.7327 2.75993 75.285 2.63086 75.9409 2.63086C76.5249 2.63086 77.0243 2.73454 77.439 2.94189C77.8537 3.14502 78.1711 3.43278 78.3911 3.80518C78.6154 4.17334 78.7275 4.60498 78.7275 5.1001C78.7275 5.37093 78.681 5.646 78.5879 5.92529C78.499 6.20036 78.3742 6.47542 78.2134 6.75049C78.0568 7.02555 77.8727 7.29639 77.6611 7.56299C77.4538 7.82959 77.2316 8.09196 76.9946 8.3501L74.519 11.0352H79.1528ZM86.2114 6.64258V8.05176C86.2114 8.80924 86.1437 9.44824 86.0083 9.96875C85.8729 10.4893 85.6782 10.9082 85.4243 11.2256C85.1704 11.543 84.8636 11.7736 84.5039 11.9175C84.1484 12.0571 83.7464 12.127 83.2979 12.127C82.9424 12.127 82.6144 12.0825 82.314 11.9937C82.0135 11.9048 81.7427 11.763 81.5015 11.5684C81.2645 11.3695 81.0614 11.1113 80.8921 10.7939C80.7228 10.4766 80.5938 10.0915 80.5049 9.63867C80.416 9.18587 80.3716 8.6569 80.3716 8.05176V6.64258C80.3716 5.88509 80.4393 5.25033 80.5747 4.73828C80.7144 4.22624 80.9111 3.81576 81.165 3.50684C81.4189 3.19368 81.7236 2.9694 82.0791 2.83398C82.4388 2.69857 82.8408 2.63086 83.2852 2.63086C83.6449 2.63086 83.9749 2.67529 84.2754 2.76416C84.5801 2.8488 84.8509 2.98633 85.0879 3.17676C85.3249 3.36296 85.5259 3.61263 85.6909 3.92578C85.8602 4.2347 85.9893 4.61344 86.0781 5.06201C86.167 5.51058 86.2114 6.03743 86.2114 6.64258ZM85.0308 8.24219V6.4458C85.0308 6.03109 85.0054 5.66715 84.9546 5.354C84.908 5.03662 84.8382 4.76579 84.7451 4.5415C84.652 4.31722 84.5335 4.13525 84.3896 3.99561C84.25 3.85596 84.0871 3.75439 83.9009 3.69092C83.7189 3.62321 83.5137 3.58936 83.2852 3.58936C83.0059 3.58936 82.7583 3.64225 82.5425 3.74805C82.3267 3.84961 82.1447 4.01253 81.9966 4.23682C81.8527 4.4611 81.7427 4.75521 81.6665 5.11914C81.5903 5.48307 81.5522 5.92529 81.5522 6.4458V8.24219C81.5522 8.6569 81.5755 9.02295 81.6221 9.34033C81.6729 9.65771 81.7469 9.93278 81.8442 10.1655C81.9416 10.394 82.0601 10.5824 82.1997 10.7305C82.3394 10.8786 82.5002 10.9886 82.6821 11.0605C82.8683 11.1283 83.0736 11.1621 83.2979 11.1621C83.5856 11.1621 83.8374 11.1071 84.0532 10.9971C84.269 10.887 84.4489 10.7157 84.5928 10.4829C84.7409 10.2459 84.8509 9.94336 84.9229 9.5752C84.9948 9.2028 85.0308 8.75846 85.0308 8.24219Z" fill="#FF0F0F"/>
<path d="M7.5 3L13.9952 12H1.00481L7.5 3Z" fill="#1BCE2D"/>
<path d="M55.5 12L49.0048 3L61.9952 3L55.5 12Z" fill="#FF0F0F"/>
<rect y="17" width="6" height="2" fill="#1BCE2D"/>
<rect x="6" y="17" width="91" height="2" fill="#FF0F0F"/>
</svg>
