<svg width="97" height="19" viewBox="0 0 97 19" fill="none" xmlns="http://www.w3.org/2000/svg">
<path d="M18.4819 6.80127H19.3198C19.7303 6.80127 20.0688 6.73356 20.3354 6.59814C20.6063 6.4585 20.8073 6.27018 20.9385 6.0332C21.0739 5.79199 21.1416 5.52116 21.1416 5.2207C21.1416 4.86523 21.0824 4.56689 20.9639 4.32568C20.8454 4.08447 20.6676 3.90251 20.4307 3.77979C20.1937 3.65706 19.8932 3.5957 19.5293 3.5957C19.1992 3.5957 18.9072 3.6613 18.6533 3.79248C18.4036 3.91943 18.2069 4.1014 18.063 4.33838C17.9233 4.57536 17.8535 4.85465 17.8535 5.17627H16.6792C16.6792 4.70654 16.7977 4.27913 17.0347 3.89404C17.2716 3.50895 17.6038 3.20215 18.0312 2.97363C18.4629 2.74512 18.9622 2.63086 19.5293 2.63086C20.0879 2.63086 20.5767 2.73031 20.9956 2.9292C21.4146 3.12386 21.7404 3.41585 21.9731 3.80518C22.2059 4.19027 22.3223 4.67057 22.3223 5.24609C22.3223 5.47884 22.2673 5.72852 22.1572 5.99512C22.0514 6.25749 21.8843 6.50293 21.6558 6.73145C21.4315 6.95996 21.1395 7.14827 20.7798 7.29639C20.4201 7.44027 19.9884 7.51221 19.4849 7.51221H18.4819V6.80127ZM18.4819 7.76611V7.06152H19.4849C20.0731 7.06152 20.5597 7.13135 20.9448 7.271C21.3299 7.41064 21.6325 7.59684 21.8525 7.82959C22.0768 8.06234 22.2334 8.31836 22.3223 8.59766C22.4154 8.87272 22.4619 9.14779 22.4619 9.42285C22.4619 9.85449 22.3879 10.2375 22.2397 10.5718C22.0959 10.9061 21.8906 11.1896 21.624 11.4224C21.3617 11.6551 21.0527 11.8307 20.6973 11.9492C20.3418 12.0677 19.9546 12.127 19.5356 12.127C19.1336 12.127 18.7549 12.0698 18.3994 11.9556C18.0482 11.8413 17.7371 11.6763 17.4663 11.4604C17.1955 11.2404 16.9839 10.9717 16.8315 10.6543C16.6792 10.3327 16.603 9.96663 16.603 9.55615H17.7773C17.7773 9.87777 17.8472 10.1592 17.9868 10.4004C18.1307 10.6416 18.3338 10.8299 18.5962 10.9653C18.8628 11.0965 19.1759 11.1621 19.5356 11.1621C19.8953 11.1621 20.2043 11.1007 20.4624 10.978C20.7248 10.8511 20.9258 10.6606 21.0654 10.4067C21.2093 10.1528 21.2812 9.83333 21.2812 9.44824C21.2812 9.06315 21.2008 8.74788 21.04 8.50244C20.8792 8.25277 20.6507 8.06868 20.3545 7.9502C20.0625 7.82747 19.7176 7.76611 19.3198 7.76611H18.4819ZM29.8823 6.64258V8.05176C29.8823 8.80924 29.8146 9.44824 29.6792 9.96875C29.5438 10.4893 29.3491 10.9082 29.0952 11.2256C28.8413 11.543 28.5345 11.7736 28.1748 11.9175C27.8193 12.0571 27.4173 12.127 26.9688 12.127C26.6133 12.127 26.2853 12.0825 25.9849 11.9937C25.6844 11.9048 25.4136 11.763 25.1724 11.5684C24.9354 11.3695 24.7323 11.1113 24.563 10.7939C24.3937 10.4766 24.2646 10.0915 24.1758 9.63867C24.0869 9.18587 24.0425 8.6569 24.0425 8.05176V6.64258C24.0425 5.88509 24.1102 5.25033 24.2456 4.73828C24.3853 4.22624 24.582 3.81576 24.8359 3.50684C25.0898 3.19368 25.3945 2.9694 25.75 2.83398C26.1097 2.69857 26.5117 2.63086 26.9561 2.63086C27.3158 2.63086 27.6458 2.67529 27.9463 2.76416C28.251 2.8488 28.5218 2.98633 28.7588 3.17676C28.9958 3.36296 29.1968 3.61263 29.3618 3.92578C29.5311 4.2347 29.6602 4.61344 29.749 5.06201C29.8379 5.51058 29.8823 6.03743 29.8823 6.64258ZM28.7017 8.24219V6.4458C28.7017 6.03109 28.6763 5.66715 28.6255 5.354C28.5789 5.03662 28.5091 4.76579 28.416 4.5415C28.3229 4.31722 28.2044 4.13525 28.0605 3.99561C27.9209 3.85596 27.758 3.75439 27.5718 3.69092C27.3898 3.62321 27.1846 3.58936 26.9561 3.58936C26.6768 3.58936 26.4292 3.64225 26.2134 3.74805C25.9976 3.84961 25.8156 4.01253 25.6675 4.23682C25.5236 4.4611 25.4136 4.75521 25.3374 5.11914C25.2612 5.48307 25.2231 5.92529 25.2231 6.4458V8.24219C25.2231 8.6569 25.2464 9.02295 25.293 9.34033C25.3438 9.65771 25.4178 9.93278 25.5151 10.1655C25.6125 10.394 25.731 10.5824 25.8706 10.7305C26.0103 10.8786 26.1711 10.9886 26.353 11.0605C26.5392 11.1283 26.7445 11.1621 26.9688 11.1621C27.2565 11.1621 27.5083 11.1071 27.7241 10.9971C27.9399 10.887 28.1198 10.7157 28.2637 10.4829C28.4118 10.2459 28.5218 9.94336 28.5938 9.5752C28.6657 9.2028 28.7017 8.75846 28.7017 8.24219ZM37.4487 11.0352V12H31.3994V11.1558L34.4272 7.78516C34.7996 7.37044 35.0874 7.01921 35.2905 6.73145C35.4979 6.43945 35.6418 6.1792 35.7222 5.95068C35.8068 5.71794 35.8491 5.48096 35.8491 5.23975C35.8491 4.93506 35.7856 4.65999 35.6587 4.41455C35.536 4.16488 35.354 3.96598 35.1128 3.81787C34.8716 3.66976 34.5796 3.5957 34.2368 3.5957C33.8263 3.5957 33.4836 3.67611 33.2085 3.83691C32.9377 3.99349 32.7345 4.21354 32.5991 4.49707C32.4637 4.7806 32.396 5.10645 32.396 5.47461H31.2217C31.2217 4.9541 31.3359 4.47803 31.5645 4.04639C31.793 3.61475 32.1315 3.27197 32.5801 3.01807C33.0286 2.75993 33.5809 2.63086 34.2368 2.63086C34.8208 2.63086 35.3201 2.73454 35.7349 2.94189C36.1496 3.14502 36.467 3.43278 36.687 3.80518C36.9113 4.17334 37.0234 4.60498 37.0234 5.1001C37.0234 5.37093 36.9769 5.646 36.8838 5.92529C36.7949 6.20036 36.6701 6.47542 36.5093 6.75049C36.3527 7.02555 36.1686 7.29639 35.957 7.56299C35.7497 7.82959 35.5275 8.09196 35.2905 8.3501L32.8149 11.0352H37.4487Z" fill="#1BCE2D"/>
<path d="M49.3696 2.75781L45.5166 12.7935H44.5073L48.3667 2.75781H49.3696Z" fill="black"/>
<path d="M74.811 6.80127H75.6489C76.0594 6.80127 76.3979 6.73356 76.6646 6.59814C76.9354 6.4585 77.1364 6.27018 77.2676 6.0332C77.403 5.79199 77.4707 5.52116 77.4707 5.2207C77.4707 4.86523 77.4115 4.56689 77.293 4.32568C77.1745 4.08447 76.9967 3.90251 76.7598 3.77979C76.5228 3.65706 76.2223 3.5957 75.8584 3.5957C75.5283 3.5957 75.2363 3.6613 74.9824 3.79248C74.7327 3.91943 74.536 4.1014 74.3921 4.33838C74.2524 4.57536 74.1826 4.85465 74.1826 5.17627H73.0083C73.0083 4.70654 73.1268 4.27913 73.3638 3.89404C73.6007 3.50895 73.9329 3.20215 74.3604 2.97363C74.792 2.74512 75.2913 2.63086 75.8584 2.63086C76.417 2.63086 76.9058 2.73031 77.3247 2.9292C77.7437 3.12386 78.0695 3.41585 78.3022 3.80518C78.535 4.19027 78.6514 4.67057 78.6514 5.24609C78.6514 5.47884 78.5964 5.72852 78.4863 5.99512C78.3805 6.25749 78.2134 6.50293 77.9849 6.73145C77.7606 6.95996 77.4686 7.14827 77.1089 7.29639C76.7492 7.44027 76.3175 7.51221 75.814 7.51221H74.811V6.80127ZM74.811 7.76611V7.06152H75.814C76.4022 7.06152 76.8888 7.13135 77.2739 7.271C77.659 7.41064 77.9616 7.59684 78.1816 7.82959C78.4059 8.06234 78.5625 8.31836 78.6514 8.59766C78.7445 8.87272 78.791 9.14779 78.791 9.42285C78.791 9.85449 78.717 10.2375 78.5688 10.5718C78.425 10.9061 78.2197 11.1896 77.9531 11.4224C77.6908 11.6551 77.3818 11.8307 77.0264 11.9492C76.6709 12.0677 76.2837 12.127 75.8647 12.127C75.4627 12.127 75.084 12.0698 74.7285 11.9556C74.3773 11.8413 74.0662 11.6763 73.7954 11.4604C73.5246 11.2404 73.313 10.9717 73.1606 10.6543C73.0083 10.3327 72.9321 9.96663 72.9321 9.55615H74.1064C74.1064 9.87777 74.1763 10.1592 74.3159 10.4004C74.4598 10.6416 74.6629 10.8299 74.9253 10.9653C75.1919 11.0965 75.505 11.1621 75.8647 11.1621C76.2244 11.1621 76.5334 11.1007 76.7915 10.978C77.0539 10.8511 77.2549 10.6606 77.3945 10.4067C77.5384 10.1528 77.6104 9.83333 77.6104 9.44824C77.6104 9.06315 77.5299 8.74788 77.3691 8.50244C77.2083 8.25277 76.9798 8.06868 76.6836 7.9502C76.3916 7.82747 76.0467 7.76611 75.6489 7.76611H74.811ZM81.5776 11.0161H81.6982C82.3753 11.0161 82.9255 10.9209 83.3486 10.7305C83.7718 10.54 84.0977 10.284 84.3262 9.9624C84.5547 9.64079 84.7113 9.27897 84.7959 8.87695C84.8805 8.4707 84.9229 8.05387 84.9229 7.62646V6.21094C84.9229 5.79199 84.8742 5.4196 84.7769 5.09375C84.6838 4.7679 84.5526 4.49495 84.3833 4.2749C84.2183 4.05485 84.0299 3.8877 83.8184 3.77344C83.6068 3.65918 83.3825 3.60205 83.1455 3.60205C82.8747 3.60205 82.6313 3.65706 82.4155 3.76709C82.2039 3.87288 82.0241 4.02311 81.876 4.21777C81.7321 4.41243 81.6221 4.64095 81.5459 4.90332C81.4697 5.16569 81.4316 5.45133 81.4316 5.76025C81.4316 6.03532 81.4655 6.30192 81.5332 6.56006C81.6009 6.8182 81.7046 7.05094 81.8442 7.2583C81.9839 7.46566 82.1574 7.6307 82.3647 7.75342C82.5763 7.87191 82.8239 7.93115 83.1074 7.93115C83.3698 7.93115 83.6152 7.88037 83.8438 7.77881C84.0765 7.67301 84.2817 7.53125 84.4595 7.35352C84.6414 7.17155 84.7853 6.96631 84.8911 6.73779C85.0011 6.50928 85.0646 6.27018 85.0815 6.02051H85.6401C85.6401 6.37174 85.5703 6.71875 85.4307 7.06152C85.2952 7.40007 85.1048 7.70898 84.8594 7.98828C84.6139 8.26758 84.3262 8.49186 83.9961 8.66113C83.666 8.82617 83.3063 8.90869 82.917 8.90869C82.46 8.90869 82.0643 8.81982 81.73 8.64209C81.3957 8.46436 81.1206 8.22738 80.9048 7.93115C80.6932 7.63493 80.5345 7.30485 80.4287 6.94092C80.3271 6.57275 80.2764 6.20036 80.2764 5.82373C80.2764 5.38363 80.3377 4.97103 80.4604 4.58594C80.5832 4.20085 80.7651 3.8623 81.0063 3.57031C81.2476 3.27409 81.5459 3.04346 81.9014 2.87842C82.2611 2.71338 82.6758 2.63086 83.1455 2.63086C83.6745 2.63086 84.1252 2.73665 84.4976 2.94824C84.87 3.15983 85.1725 3.44336 85.4053 3.79883C85.6423 4.1543 85.8158 4.5542 85.9258 4.99854C86.0358 5.44287 86.0908 5.8999 86.0908 6.36963V6.79492C86.0908 7.27311 86.0591 7.75977 85.9956 8.25488C85.9364 8.74577 85.82 9.21549 85.6465 9.66406C85.4772 10.1126 85.2297 10.5146 84.9038 10.8701C84.578 11.2214 84.1527 11.5007 83.6279 11.708C83.1074 11.9111 82.4642 12.0127 81.6982 12.0127H81.5776V11.0161Z" fill="#FF0F0F"/>
<path d="M7.5 3L13.9952 12H1.00481L7.5 3Z" fill="#1BCE2D"/>
<path d="M63.5 12L57.0048 3L69.9952 3L63.5 12Z" fill="#FF0F0F"/>
<rect y="17" width="73" height="2" fill="#1BCE2D"/>
<rect x="73" y="17" width="24" height="2" fill="#FF0F0F"/>
</svg>
