<svg width="97" height="19" viewBox="0 0 97 19" fill="none" xmlns="http://www.w3.org/2000/svg">
<path d="M18.4819 6.80127H19.3198C19.7303 6.80127 20.0688 6.73356 20.3354 6.59814C20.6063 6.4585 20.8073 6.27018 20.9385 6.0332C21.0739 5.79199 21.1416 5.52116 21.1416 5.2207C21.1416 4.86523 21.0824 4.56689 20.9639 4.32568C20.8454 4.08447 20.6676 3.90251 20.4307 3.77979C20.1937 3.65706 19.8932 3.5957 19.5293 3.5957C19.1992 3.5957 18.9072 3.6613 18.6533 3.79248C18.4036 3.91943 18.2069 4.1014 18.063 4.33838C17.9233 4.57536 17.8535 4.85465 17.8535 5.17627H16.6792C16.6792 4.70654 16.7977 4.27913 17.0347 3.89404C17.2716 3.50895 17.6038 3.20215 18.0312 2.97363C18.4629 2.74512 18.9622 2.63086 19.5293 2.63086C20.0879 2.63086 20.5767 2.73031 20.9956 2.9292C21.4146 3.12386 21.7404 3.41585 21.9731 3.80518C22.2059 4.19027 22.3223 4.67057 22.3223 5.24609C22.3223 5.47884 22.2673 5.72852 22.1572 5.99512C22.0514 6.25749 21.8843 6.50293 21.6558 6.73145C21.4315 6.95996 21.1395 7.14827 20.7798 7.29639C20.4201 7.44027 19.9884 7.51221 19.4849 7.51221H18.4819V6.80127ZM18.4819 7.76611V7.06152H19.4849C20.0731 7.06152 20.5597 7.13135 20.9448 7.271C21.3299 7.41064 21.6325 7.59684 21.8525 7.82959C22.0768 8.06234 22.2334 8.31836 22.3223 8.59766C22.4154 8.87272 22.4619 9.14779 22.4619 9.42285C22.4619 9.85449 22.3879 10.2375 22.2397 10.5718C22.0959 10.9061 21.8906 11.1896 21.624 11.4224C21.3617 11.6551 21.0527 11.8307 20.6973 11.9492C20.3418 12.0677 19.9546 12.127 19.5356 12.127C19.1336 12.127 18.7549 12.0698 18.3994 11.9556C18.0482 11.8413 17.7371 11.6763 17.4663 11.4604C17.1955 11.2404 16.9839 10.9717 16.8315 10.6543C16.6792 10.3327 16.603 9.96663 16.603 9.55615H17.7773C17.7773 9.87777 17.8472 10.1592 17.9868 10.4004C18.1307 10.6416 18.3338 10.8299 18.5962 10.9653C18.8628 11.0965 19.1759 11.1621 19.5356 11.1621C19.8953 11.1621 20.2043 11.1007 20.4624 10.978C20.7248 10.8511 20.9258 10.6606 21.0654 10.4067C21.2093 10.1528 21.2812 9.83333 21.2812 9.44824C21.2812 9.06315 21.2008 8.74788 21.04 8.50244C20.8792 8.25277 20.6507 8.06868 20.3545 7.9502C20.0625 7.82747 19.7176 7.76611 19.3198 7.76611H18.4819ZM25.5659 7.60107L24.6265 7.35986L25.0898 2.75781H29.8315V3.84326H26.0864L25.8071 6.35693C25.9764 6.2596 26.1901 6.16862 26.4482 6.08398C26.7106 5.99935 27.0111 5.95703 27.3496 5.95703C27.777 5.95703 28.16 6.03109 28.4985 6.1792C28.8371 6.32308 29.1248 6.53044 29.3618 6.80127C29.603 7.0721 29.7871 7.39795 29.9141 7.77881C30.041 8.15967 30.1045 8.58496 30.1045 9.05469C30.1045 9.49902 30.0431 9.90739 29.9204 10.2798C29.8019 10.6522 29.6221 10.978 29.3809 11.2573C29.1396 11.5324 28.835 11.7461 28.4668 11.8984C28.1029 12.0508 27.6733 12.127 27.1782 12.127C26.8058 12.127 26.4525 12.0762 26.1182 11.9746C25.7881 11.8688 25.4919 11.7101 25.2295 11.4985C24.9714 11.2827 24.7598 11.0161 24.5947 10.6987C24.4339 10.3771 24.3324 10.0005 24.29 9.56885H25.4072C25.458 9.91585 25.5596 10.2078 25.7119 10.4448C25.8643 10.6818 26.0632 10.8617 26.3086 10.9844C26.5583 11.1029 26.8481 11.1621 27.1782 11.1621C27.4575 11.1621 27.7051 11.1134 27.9209 11.0161C28.1367 10.9188 28.3187 10.7791 28.4668 10.5972C28.6149 10.4152 28.7271 10.1951 28.8032 9.93701C28.8836 9.67887 28.9238 9.389 28.9238 9.06738C28.9238 8.77539 28.8836 8.50456 28.8032 8.25488C28.7228 8.00521 28.6022 7.78727 28.4414 7.60107C28.2848 7.41488 28.0923 7.271 27.8638 7.16943C27.6353 7.06364 27.3729 7.01074 27.0767 7.01074C26.6831 7.01074 26.3848 7.06364 26.1816 7.16943C25.9827 7.27523 25.7775 7.41911 25.5659 7.60107Z" fill="#1BCE2D"/>
<path d="M42.0571 2.75781L38.2041 12.7935H37.1948L41.0542 2.75781H42.0571Z" fill="black"/>
<path d="M72.0308 8.88965V9.85449H65.353V9.1626L69.4917 2.75781H70.4502L69.4219 4.61133L66.686 8.88965H72.0308ZM70.7422 2.75781V12H69.5679V2.75781H70.7422Z" fill="#FF0F0F"/>
<path d="M7.5 3L13.9952 12H1.00481L7.5 3Z" fill="#1BCE2D"/>
<path d="M55.5 12L49.0048 3L61.9952 3L55.5 12Z" fill="#FF0F0F"/>
<rect y="17" width="75" height="2" fill="#1BCE2D"/>
<rect x="75" y="17" width="22" height="2" fill="#FF0F0F"/>
</svg>
