<svg width="97" height="19" viewBox="0 0 97 19" fill="none" xmlns="http://www.w3.org/2000/svg">
<path d="M22.8237 11.0352V12H16.7744V11.1558L19.8022 7.78516C20.1746 7.37044 20.4624 7.01921 20.6655 6.73145C20.8729 6.43945 21.0168 6.1792 21.0972 5.95068C21.1818 5.71794 21.2241 5.48096 21.2241 5.23975C21.2241 4.93506 21.1606 4.65999 21.0337 4.41455C20.911 4.16488 20.729 3.96598 20.4878 3.81787C20.2466 3.66976 19.9546 3.5957 19.6118 3.5957C19.2013 3.5957 18.8586 3.67611 18.5835 3.83691C18.3127 3.99349 18.1095 4.21354 17.9741 4.49707C17.8387 4.7806 17.771 5.10645 17.771 5.47461H16.5967C16.5967 4.9541 16.7109 4.47803 16.9395 4.04639C17.168 3.61475 17.5065 3.27197 17.9551 3.01807C18.4036 2.75993 18.9559 2.63086 19.6118 2.63086C20.1958 2.63086 20.6951 2.73454 21.1099 2.94189C21.5246 3.14502 21.842 3.43278 22.062 3.80518C22.2863 4.17334 22.3984 4.60498 22.3984 5.1001C22.3984 5.37093 22.3519 5.646 22.2588 5.92529C22.1699 6.20036 22.0451 6.47542 21.8843 6.75049C21.7277 7.02555 21.5436 7.29639 21.332 7.56299C21.1247 7.82959 20.9025 8.09196 20.6655 8.3501L18.1899 11.0352H22.8237ZM30.3267 8.88965V9.85449H23.6489V9.1626L27.7876 2.75781H28.7461L27.7178 4.61133L24.9819 8.88965H30.3267ZM29.0381 2.75781V12H27.8638V2.75781H29.0381ZM32.8784 7.60107L31.939 7.35986L32.4023 2.75781H37.144V3.84326H33.3989L33.1196 6.35693C33.2889 6.2596 33.5026 6.16862 33.7607 6.08398C34.0231 5.99935 34.3236 5.95703 34.6621 5.95703C35.0895 5.95703 35.4725 6.03109 35.811 6.1792C36.1496 6.32308 36.4373 6.53044 36.6743 6.80127C36.9155 7.0721 37.0996 7.39795 37.2266 7.77881C37.3535 8.15967 37.417 8.58496 37.417 9.05469C37.417 9.49902 37.3556 9.90739 37.2329 10.2798C37.1144 10.6522 36.9346 10.978 36.6934 11.2573C36.4521 11.5324 36.1475 11.7461 35.7793 11.8984C35.4154 12.0508 34.9858 12.127 34.4907 12.127C34.1183 12.127 33.765 12.0762 33.4307 11.9746C33.1006 11.8688 32.8044 11.7101 32.542 11.4985C32.2839 11.2827 32.0723 11.0161 31.9072 10.6987C31.7464 10.3771 31.6449 10.0005 31.6025 9.56885H32.7197C32.7705 9.91585 32.8721 10.2078 33.0244 10.4448C33.1768 10.6818 33.3757 10.8617 33.6211 10.9844C33.8708 11.1029 34.1606 11.1621 34.4907 11.1621C34.77 11.1621 35.0176 11.1134 35.2334 11.0161C35.4492 10.9188 35.6312 10.7791 35.7793 10.5972C35.9274 10.4152 36.0396 10.1951 36.1157 9.93701C36.1961 9.67887 36.2363 9.389 36.2363 9.06738C36.2363 8.77539 36.1961 8.50456 36.1157 8.25488C36.0353 8.00521 35.9147 7.78727 35.7539 7.60107C35.5973 7.41488 35.4048 7.271 35.1763 7.16943C34.9478 7.06364 34.6854 7.01074 34.3892 7.01074C33.9956 7.01074 33.6973 7.06364 33.4941 7.16943C33.2952 7.27523 33.09 7.41911 32.8784 7.60107Z" fill="#1BCE2D"/>
<path d="M49.3696 2.75781L45.5166 12.7935H44.5073L48.3667 2.75781H49.3696Z" fill="black"/>
<path d="M74.811 6.80127H75.6489C76.0594 6.80127 76.3979 6.73356 76.6646 6.59814C76.9354 6.4585 77.1364 6.27018 77.2676 6.0332C77.403 5.79199 77.4707 5.52116 77.4707 5.2207C77.4707 4.86523 77.4115 4.56689 77.293 4.32568C77.1745 4.08447 76.9967 3.90251 76.7598 3.77979C76.5228 3.65706 76.2223 3.5957 75.8584 3.5957C75.5283 3.5957 75.2363 3.6613 74.9824 3.79248C74.7327 3.91943 74.536 4.1014 74.3921 4.33838C74.2524 4.57536 74.1826 4.85465 74.1826 5.17627H73.0083C73.0083 4.70654 73.1268 4.27913 73.3638 3.89404C73.6007 3.50895 73.9329 3.20215 74.3604 2.97363C74.792 2.74512 75.2913 2.63086 75.8584 2.63086C76.417 2.63086 76.9058 2.73031 77.3247 2.9292C77.7437 3.12386 78.0695 3.41585 78.3022 3.80518C78.535 4.19027 78.6514 4.67057 78.6514 5.24609C78.6514 5.47884 78.5964 5.72852 78.4863 5.99512C78.3805 6.25749 78.2134 6.50293 77.9849 6.73145C77.7606 6.95996 77.4686 7.14827 77.1089 7.29639C76.7492 7.44027 76.3175 7.51221 75.814 7.51221H74.811V6.80127ZM74.811 7.76611V7.06152H75.814C76.4022 7.06152 76.8888 7.13135 77.2739 7.271C77.659 7.41064 77.9616 7.59684 78.1816 7.82959C78.4059 8.06234 78.5625 8.31836 78.6514 8.59766C78.7445 8.87272 78.791 9.14779 78.791 9.42285C78.791 9.85449 78.717 10.2375 78.5688 10.5718C78.425 10.9061 78.2197 11.1896 77.9531 11.4224C77.6908 11.6551 77.3818 11.8307 77.0264 11.9492C76.6709 12.0677 76.2837 12.127 75.8647 12.127C75.4627 12.127 75.084 12.0698 74.7285 11.9556C74.3773 11.8413 74.0662 11.6763 73.7954 11.4604C73.5246 11.2404 73.313 10.9717 73.1606 10.6543C73.0083 10.3327 72.9321 9.96663 72.9321 9.55615H74.1064C74.1064 9.87777 74.1763 10.1592 74.3159 10.4004C74.4598 10.6416 74.6629 10.8299 74.9253 10.9653C75.1919 11.0965 75.505 11.1621 75.8647 11.1621C76.2244 11.1621 76.5334 11.1007 76.7915 10.978C77.0539 10.8511 77.2549 10.6606 77.3945 10.4067C77.5384 10.1528 77.6104 9.83333 77.6104 9.44824C77.6104 9.06315 77.5299 8.74788 77.3691 8.50244C77.2083 8.25277 76.9798 8.06868 76.6836 7.9502C76.3916 7.82747 76.0467 7.76611 75.6489 7.76611H74.811ZM84.9165 2.74512H85.0181V3.7417H84.9165C84.2944 3.7417 83.7739 3.84326 83.355 4.04639C82.936 4.24528 82.6038 4.514 82.3584 4.85254C82.113 5.18685 81.9352 5.56348 81.8252 5.98242C81.7194 6.40137 81.6665 6.82666 81.6665 7.2583V8.6167C81.6665 9.02718 81.7152 9.39111 81.8125 9.7085C81.9098 10.0216 82.0431 10.2861 82.2124 10.502C82.3817 10.7178 82.5721 10.8807 82.7837 10.9907C82.9995 11.1007 83.2238 11.1558 83.4565 11.1558C83.7274 11.1558 83.9686 11.105 84.1802 11.0034C84.3918 10.8976 84.5695 10.7516 84.7134 10.5654C84.8615 10.375 84.9736 10.1507 85.0498 9.89258C85.126 9.63444 85.1641 9.35091 85.1641 9.04199C85.1641 8.76693 85.1302 8.50244 85.0625 8.24854C84.9948 7.9904 84.8911 7.76188 84.7515 7.56299C84.6118 7.35986 84.4362 7.20117 84.2246 7.08691C84.0173 6.96842 83.7697 6.90918 83.4819 6.90918C83.1561 6.90918 82.8514 6.98958 82.5679 7.15039C82.2886 7.30697 82.0579 7.51432 81.876 7.77246C81.6982 8.02637 81.5967 8.30355 81.5713 8.604L80.9492 8.59766C81.0085 8.1237 81.1185 7.71956 81.2793 7.38525C81.4443 7.04671 81.6475 6.77165 81.8887 6.56006C82.1341 6.34424 82.4071 6.18766 82.7075 6.09033C83.0122 5.98877 83.3338 5.93799 83.6724 5.93799C84.1336 5.93799 84.5314 6.02474 84.8657 6.19824C85.2 6.37174 85.4751 6.60449 85.6909 6.89648C85.9067 7.18424 86.0654 7.51009 86.167 7.87402C86.2728 8.23372 86.3257 8.604 86.3257 8.98486C86.3257 9.42074 86.2643 9.8291 86.1416 10.21C86.0189 10.5908 85.8348 10.9251 85.5894 11.2129C85.3481 11.5007 85.0498 11.7249 84.6943 11.8857C84.3389 12.0465 83.9263 12.127 83.4565 12.127C82.9572 12.127 82.5213 12.0254 82.1489 11.8223C81.7765 11.6149 81.4676 11.3398 81.2222 10.9971C80.9767 10.6543 80.7926 10.2734 80.6699 9.85449C80.5472 9.43555 80.4858 9.01025 80.4858 8.57861V8.02637C80.4858 7.37467 80.5514 6.73568 80.6826 6.10938C80.8138 5.48307 81.0402 4.91602 81.3618 4.4082C81.6877 3.90039 82.1383 3.49626 82.7139 3.1958C83.2894 2.89535 84.0236 2.74512 84.9165 2.74512Z" fill="#FF0F0F"/>
<path d="M7.5 3L13.9952 12H1.00481L7.5 3Z" fill="#1BCE2D"/>
<path d="M63.5 12L57.0048 3L69.9952 3L63.5 12Z" fill="#FF0F0F"/>
<rect y="17" width="75" height="2" fill="#1BCE2D"/>
<rect x="75" y="17" width="22" height="2" fill="#FF0F0F"/>
</svg>
