<svg width="97" height="19" viewBox="0 0 97 19" fill="none" xmlns="http://www.w3.org/2000/svg">
<path d="M20.6274 2.70703V12H19.4531V4.17334L17.0854 5.03662V3.97656L20.4434 2.70703H20.6274ZM25.5659 7.60107L24.6265 7.35986L25.0898 2.75781H29.8315V3.84326H26.0864L25.8071 6.35693C25.9764 6.2596 26.1901 6.16862 26.4482 6.08398C26.7106 5.99935 27.0111 5.95703 27.3496 5.95703C27.777 5.95703 28.16 6.03109 28.4985 6.1792C28.8371 6.32308 29.1248 6.53044 29.3618 6.80127C29.603 7.0721 29.7871 7.39795 29.9141 7.77881C30.041 8.15967 30.1045 8.58496 30.1045 9.05469C30.1045 9.49902 30.0431 9.90739 29.9204 10.2798C29.8019 10.6522 29.6221 10.978 29.3809 11.2573C29.1396 11.5324 28.835 11.7461 28.4668 11.8984C28.1029 12.0508 27.6733 12.127 27.1782 12.127C26.8058 12.127 26.4525 12.0762 26.1182 11.9746C25.7881 11.8688 25.4919 11.7101 25.2295 11.4985C24.9714 11.2827 24.7598 11.0161 24.5947 10.6987C24.4339 10.3771 24.3324 10.0005 24.29 9.56885H25.4072C25.458 9.91585 25.5596 10.2078 25.7119 10.4448C25.8643 10.6818 26.0632 10.8617 26.3086 10.9844C26.5583 11.1029 26.8481 11.1621 27.1782 11.1621C27.4575 11.1621 27.7051 11.1134 27.9209 11.0161C28.1367 10.9188 28.3187 10.7791 28.4668 10.5972C28.6149 10.4152 28.7271 10.1951 28.8032 9.93701C28.8836 9.67887 28.9238 9.389 28.9238 9.06738C28.9238 8.77539 28.8836 8.50456 28.8032 8.25488C28.7228 8.00521 28.6022 7.78727 28.4414 7.60107C28.2848 7.41488 28.0923 7.271 27.8638 7.16943C27.6353 7.06364 27.3729 7.01074 27.0767 7.01074C26.6831 7.01074 26.3848 7.06364 26.1816 7.16943C25.9827 7.27523 25.7775 7.41911 25.5659 7.60107ZM37.6392 8.88965V9.85449H30.9614V9.1626L35.1001 2.75781H36.0586L35.0303 4.61133L32.2944 8.88965H37.6392ZM36.3506 2.75781V12H35.1763V2.75781H36.3506Z" fill="#1BCE2D"/>
<path d="M49.3696 2.75781L45.5166 12.7935H44.5073L48.3667 2.75781H49.3696Z" fill="black"/>
<path d="M71.3579 7.60107L70.4185 7.35986L70.8818 2.75781H75.6235V3.84326H71.8784L71.5991 6.35693C71.7684 6.2596 71.9821 6.16862 72.2402 6.08398C72.5026 5.99935 72.8031 5.95703 73.1416 5.95703C73.569 5.95703 73.952 6.03109 74.2905 6.1792C74.6291 6.32308 74.9168 6.53044 75.1538 6.80127C75.395 7.0721 75.5791 7.39795 75.7061 7.77881C75.833 8.15967 75.8965 8.58496 75.8965 9.05469C75.8965 9.49902 75.8351 9.90739 75.7124 10.2798C75.5939 10.6522 75.4141 10.978 75.1729 11.2573C74.9316 11.5324 74.627 11.7461 74.2588 11.8984C73.8949 12.0508 73.4653 12.127 72.9702 12.127C72.5978 12.127 72.2445 12.0762 71.9102 11.9746C71.5801 11.8688 71.2839 11.7101 71.0215 11.4985C70.7633 11.2827 70.5518 11.0161 70.3867 10.6987C70.2259 10.3771 70.1243 10.0005 70.082 9.56885H71.1992C71.25 9.91585 71.3516 10.2078 71.5039 10.4448C71.6562 10.6818 71.8551 10.8617 72.1006 10.9844C72.3503 11.1029 72.6401 11.1621 72.9702 11.1621C73.2495 11.1621 73.4971 11.1134 73.7129 11.0161C73.9287 10.9188 74.1107 10.7791 74.2588 10.5972C74.4069 10.4152 74.519 10.1951 74.5952 9.93701C74.6756 9.67887 74.7158 9.389 74.7158 9.06738C74.7158 8.77539 74.6756 8.50456 74.5952 8.25488C74.5148 8.00521 74.3942 7.78727 74.2334 7.60107C74.0768 7.41488 73.8843 7.271 73.6558 7.16943C73.4272 7.06364 73.1649 7.01074 72.8687 7.01074C72.4751 7.01074 72.1768 7.06364 71.9736 7.16943C71.7747 7.27523 71.5695 7.41911 71.3579 7.60107ZM78.8989 6.80127H79.7368C80.1473 6.80127 80.4858 6.73356 80.7524 6.59814C81.0233 6.4585 81.2243 6.27018 81.3555 6.0332C81.4909 5.79199 81.5586 5.52116 81.5586 5.2207C81.5586 4.86523 81.4993 4.56689 81.3809 4.32568C81.2624 4.08447 81.0846 3.90251 80.8477 3.77979C80.6107 3.65706 80.3102 3.5957 79.9463 3.5957C79.6162 3.5957 79.3242 3.6613 79.0703 3.79248C78.8206 3.91943 78.6239 4.1014 78.48 4.33838C78.3403 4.57536 78.2705 4.85465 78.2705 5.17627H77.0962C77.0962 4.70654 77.2147 4.27913 77.4517 3.89404C77.6886 3.50895 78.0208 3.20215 78.4482 2.97363C78.8799 2.74512 79.3792 2.63086 79.9463 2.63086C80.5049 2.63086 80.9937 2.73031 81.4126 2.9292C81.8315 3.12386 82.1574 3.41585 82.3901 3.80518C82.6229 4.19027 82.7393 4.67057 82.7393 5.24609C82.7393 5.47884 82.6842 5.72852 82.5742 5.99512C82.4684 6.25749 82.3013 6.50293 82.0728 6.73145C81.8485 6.95996 81.5565 7.14827 81.1968 7.29639C80.8371 7.44027 80.4054 7.51221 79.9019 7.51221H78.8989V6.80127ZM78.8989 7.76611V7.06152H79.9019C80.4901 7.06152 80.9767 7.13135 81.3618 7.271C81.7469 7.41064 82.0495 7.59684 82.2695 7.82959C82.4938 8.06234 82.6504 8.31836 82.7393 8.59766C82.8324 8.87272 82.8789 9.14779 82.8789 9.42285C82.8789 9.85449 82.8049 10.2375 82.6567 10.5718C82.5129 10.9061 82.3076 11.1896 82.041 11.4224C81.7786 11.6551 81.4697 11.8307 81.1143 11.9492C80.7588 12.0677 80.3716 12.127 79.9526 12.127C79.5506 12.127 79.1719 12.0698 78.8164 11.9556C78.4652 11.8413 78.1541 11.6763 77.8833 11.4604C77.6125 11.2404 77.4009 10.9717 77.2485 10.6543C77.0962 10.3327 77.02 9.96663 77.02 9.55615H78.1943C78.1943 9.87777 78.2642 10.1592 78.4038 10.4004C78.5477 10.6416 78.7508 10.8299 79.0132 10.9653C79.2798 11.0965 79.5929 11.1621 79.9526 11.1621C80.3123 11.1621 80.6213 11.1007 80.8794 10.978C81.1418 10.8511 81.3428 10.6606 81.4824 10.4067C81.6263 10.1528 81.6982 9.83333 81.6982 9.44824C81.6982 9.06315 81.6178 8.74788 81.457 8.50244C81.2962 8.25277 81.0677 8.06868 80.7715 7.9502C80.4795 7.82747 80.1346 7.76611 79.7368 7.76611H78.8989Z" fill="#FF0F0F"/>
<path d="M7.5 3L13.9952 12H1.00481L7.5 3Z" fill="#1BCE2D"/>
<path d="M59.5 12L53.0048 3L65.9952 3L59.5 12Z" fill="#FF0F0F"/>
<rect y="17" width="63" height="2" fill="#1BCE2D"/>
<rect x="63" y="17" width="34" height="2" fill="#FF0F0F"/>
</svg>
