<svg width="97" height="19" viewBox="0 0 97 19" fill="none" xmlns="http://www.w3.org/2000/svg">
<path d="M20.6274 2.70703V12H19.4531V4.17334L17.0854 5.03662V3.97656L20.4434 2.70703H20.6274ZM30.0537 2.75781V3.41797L26.2261 12H24.9883L28.8096 3.72266H23.8076V2.75781H30.0537ZM37.1948 6.64258V8.05176C37.1948 8.80924 37.1271 9.44824 36.9917 9.96875C36.8563 10.4893 36.6616 10.9082 36.4077 11.2256C36.1538 11.543 35.847 11.7736 35.4873 11.9175C35.1318 12.0571 34.7298 12.127 34.2812 12.127C33.9258 12.127 33.5978 12.0825 33.2974 11.9937C32.9969 11.9048 32.7261 11.763 32.4849 11.5684C32.2479 11.3695 32.0448 11.1113 31.8755 10.7939C31.7062 10.4766 31.5771 10.0915 31.4883 9.63867C31.3994 9.18587 31.355 8.6569 31.355 8.05176V6.64258C31.355 5.88509 31.4227 5.25033 31.5581 4.73828C31.6978 4.22624 31.8945 3.81576 32.1484 3.50684C32.4023 3.19368 32.707 2.9694 33.0625 2.83398C33.4222 2.69857 33.8242 2.63086 34.2686 2.63086C34.6283 2.63086 34.9583 2.67529 35.2588 2.76416C35.5635 2.8488 35.8343 2.98633 36.0713 3.17676C36.3083 3.36296 36.5093 3.61263 36.6743 3.92578C36.8436 4.2347 36.9727 4.61344 37.0615 5.06201C37.1504 5.51058 37.1948 6.03743 37.1948 6.64258ZM36.0142 8.24219V6.4458C36.0142 6.03109 35.9888 5.66715 35.938 5.354C35.8914 5.03662 35.8216 4.76579 35.7285 4.5415C35.6354 4.31722 35.5169 4.13525 35.373 3.99561C35.2334 3.85596 35.0705 3.75439 34.8843 3.69092C34.7023 3.62321 34.4971 3.58936 34.2686 3.58936C33.9893 3.58936 33.7417 3.64225 33.5259 3.74805C33.3101 3.84961 33.1281 4.01253 32.98 4.23682C32.8361 4.4611 32.7261 4.75521 32.6499 5.11914C32.5737 5.48307 32.5356 5.92529 32.5356 6.4458V8.24219C32.5356 8.6569 32.5589 9.02295 32.6055 9.34033C32.6562 9.65771 32.7303 9.93278 32.8276 10.1655C32.925 10.394 33.0435 10.5824 33.1831 10.7305C33.3228 10.8786 33.4836 10.9886 33.6655 11.0605C33.8517 11.1283 34.057 11.1621 34.2812 11.1621C34.569 11.1621 34.8208 11.1071 35.0366 10.9971C35.2524 10.887 35.4323 10.7157 35.5762 10.4829C35.7243 10.2459 35.8343 9.94336 35.9062 9.5752C35.9782 9.2028 36.0142 8.75846 36.0142 8.24219Z" fill="#1BCE2D"/>
<path d="M49.3696 2.75781L45.5166 12.7935H44.5073L48.3667 2.75781H49.3696Z" fill="black"/>
<path d="M76.9565 2.70703V12H75.7822V4.17334L73.4146 5.03662V3.97656L76.7725 2.70703H76.9565ZM86.2114 6.64258V8.05176C86.2114 8.80924 86.1437 9.44824 86.0083 9.96875C85.8729 10.4893 85.6782 10.9082 85.4243 11.2256C85.1704 11.543 84.8636 11.7736 84.5039 11.9175C84.1484 12.0571 83.7464 12.127 83.2979 12.127C82.9424 12.127 82.6144 12.0825 82.314 11.9937C82.0135 11.9048 81.7427 11.763 81.5015 11.5684C81.2645 11.3695 81.0614 11.1113 80.8921 10.7939C80.7228 10.4766 80.5938 10.0915 80.5049 9.63867C80.416 9.18587 80.3716 8.6569 80.3716 8.05176V6.64258C80.3716 5.88509 80.4393 5.25033 80.5747 4.73828C80.7144 4.22624 80.9111 3.81576 81.165 3.50684C81.4189 3.19368 81.7236 2.9694 82.0791 2.83398C82.4388 2.69857 82.8408 2.63086 83.2852 2.63086C83.6449 2.63086 83.9749 2.67529 84.2754 2.76416C84.5801 2.8488 84.8509 2.98633 85.0879 3.17676C85.3249 3.36296 85.5259 3.61263 85.6909 3.92578C85.8602 4.2347 85.9893 4.61344 86.0781 5.06201C86.167 5.51058 86.2114 6.03743 86.2114 6.64258ZM85.0308 8.24219V6.4458C85.0308 6.03109 85.0054 5.66715 84.9546 5.354C84.908 5.03662 84.8382 4.76579 84.7451 4.5415C84.652 4.31722 84.5335 4.13525 84.3896 3.99561C84.25 3.85596 84.0871 3.75439 83.9009 3.69092C83.7189 3.62321 83.5137 3.58936 83.2852 3.58936C83.0059 3.58936 82.7583 3.64225 82.5425 3.74805C82.3267 3.84961 82.1447 4.01253 81.9966 4.23682C81.8527 4.4611 81.7427 4.75521 81.6665 5.11914C81.5903 5.48307 81.5522 5.92529 81.5522 6.4458V8.24219C81.5522 8.6569 81.5755 9.02295 81.6221 9.34033C81.6729 9.65771 81.7469 9.93278 81.8442 10.1655C81.9416 10.394 82.0601 10.5824 82.1997 10.7305C82.3394 10.8786 82.5002 10.9886 82.6821 11.0605C82.8683 11.1283 83.0736 11.1621 83.2979 11.1621C83.5856 11.1621 83.8374 11.1071 84.0532 10.9971C84.269 10.887 84.4489 10.7157 84.5928 10.4829C84.7409 10.2459 84.8509 9.94336 84.9229 9.5752C84.9948 9.2028 85.0308 8.75846 85.0308 8.24219Z" fill="#FF0F0F"/>
<path d="M7.5 3L13.9952 12H1.00481L7.5 3Z" fill="#1BCE2D"/>
<path d="M63.5 12L57.0048 3L69.9952 3L63.5 12Z" fill="#FF0F0F"/>
<rect y="17" width="85" height="2" fill="#1BCE2D"/>
<rect x="85" y="17" width="12" height="2" fill="#FF0F0F"/>
</svg>
