<svg width="97" height="19" viewBox="0 0 97 19" fill="none" xmlns="http://www.w3.org/2000/svg">
<path d="M21.2749 2.74512H21.3765V3.7417H21.2749C20.6528 3.7417 20.1323 3.84326 19.7134 4.04639C19.2944 4.24528 18.9622 4.514 18.7168 4.85254C18.4714 5.18685 18.2936 5.56348 18.1836 5.98242C18.0778 6.40137 18.0249 6.82666 18.0249 7.2583V8.6167C18.0249 9.02718 18.0736 9.39111 18.1709 9.7085C18.2682 10.0216 18.4015 10.2861 18.5708 10.502C18.7401 10.7178 18.9305 10.8807 19.1421 10.9907C19.3579 11.1007 19.5822 11.1558 19.8149 11.1558C20.0858 11.1558 20.327 11.105 20.5386 11.0034C20.7502 10.8976 20.9279 10.7516 21.0718 10.5654C21.2199 10.375 21.332 10.1507 21.4082 9.89258C21.4844 9.63444 21.5225 9.35091 21.5225 9.04199C21.5225 8.76693 21.4886 8.50244 21.4209 8.24854C21.3532 7.9904 21.2495 7.76188 21.1099 7.56299C20.9702 7.35986 20.7946 7.20117 20.583 7.08691C20.3757 6.96842 20.1281 6.90918 19.8403 6.90918C19.5145 6.90918 19.2098 6.98958 18.9263 7.15039C18.647 7.30697 18.4163 7.51432 18.2344 7.77246C18.0566 8.02637 17.9551 8.30355 17.9297 8.604L17.3076 8.59766C17.3669 8.1237 17.4769 7.71956 17.6377 7.38525C17.8027 7.04671 18.0059 6.77165 18.2471 6.56006C18.4925 6.34424 18.7655 6.18766 19.0659 6.09033C19.3706 5.98877 19.6922 5.93799 20.0308 5.93799C20.492 5.93799 20.8898 6.02474 21.2241 6.19824C21.5584 6.37174 21.8335 6.60449 22.0493 6.89648C22.2651 7.18424 22.4238 7.51009 22.5254 7.87402C22.6312 8.23372 22.6841 8.604 22.6841 8.98486C22.6841 9.42074 22.6227 9.8291 22.5 10.21C22.3773 10.5908 22.1932 10.9251 21.9478 11.2129C21.7065 11.5007 21.4082 11.7249 21.0527 11.8857C20.6973 12.0465 20.2847 12.127 19.8149 12.127C19.3156 12.127 18.8797 12.0254 18.5073 11.8223C18.1349 11.6149 17.826 11.3398 17.5806 10.9971C17.3351 10.6543 17.151 10.2734 17.0283 9.85449C16.9056 9.43555 16.8442 9.01025 16.8442 8.57861V8.02637C16.8442 7.37467 16.9098 6.73568 17.041 6.10938C17.1722 5.48307 17.3986 4.91602 17.7202 4.4082C18.0461 3.90039 18.4967 3.49626 19.0723 3.1958C19.6478 2.89535 20.382 2.74512 21.2749 2.74512ZM30.1362 11.0352V12H24.0869V11.1558L27.1147 7.78516C27.4871 7.37044 27.7749 7.01921 27.978 6.73145C28.1854 6.43945 28.3293 6.1792 28.4097 5.95068C28.4943 5.71794 28.5366 5.48096 28.5366 5.23975C28.5366 4.93506 28.4731 4.65999 28.3462 4.41455C28.2235 4.16488 28.0415 3.96598 27.8003 3.81787C27.5591 3.66976 27.2671 3.5957 26.9243 3.5957C26.5138 3.5957 26.1711 3.67611 25.896 3.83691C25.6252 3.99349 25.422 4.21354 25.2866 4.49707C25.1512 4.7806 25.0835 5.10645 25.0835 5.47461H23.9092C23.9092 4.9541 24.0234 4.47803 24.252 4.04639C24.4805 3.61475 24.819 3.27197 25.2676 3.01807C25.7161 2.75993 26.2684 2.63086 26.9243 2.63086C27.5083 2.63086 28.0076 2.73454 28.4224 2.94189C28.8371 3.14502 29.1545 3.43278 29.3745 3.80518C29.5988 4.17334 29.7109 4.60498 29.7109 5.1001C29.7109 5.37093 29.6644 5.646 29.5713 5.92529C29.4824 6.20036 29.3576 6.47542 29.1968 6.75049C29.0402 7.02555 28.8561 7.29639 28.6445 7.56299C28.4372 7.82959 28.215 8.09196 27.978 8.3501L25.5024 11.0352H30.1362Z" fill="#1BCE2D"/>
<path d="M42.0571 2.75781L38.2041 12.7935H37.1948L41.0542 2.75781H42.0571Z" fill="black"/>
<path d="M70.2915 2.74512H70.3931V3.7417H70.2915C69.6694 3.7417 69.1489 3.84326 68.73 4.04639C68.311 4.24528 67.9788 4.514 67.7334 4.85254C67.488 5.18685 67.3102 5.56348 67.2002 5.98242C67.0944 6.40137 67.0415 6.82666 67.0415 7.2583V8.6167C67.0415 9.02718 67.0902 9.39111 67.1875 9.7085C67.2848 10.0216 67.4181 10.2861 67.5874 10.502C67.7567 10.7178 67.9471 10.8807 68.1587 10.9907C68.3745 11.1007 68.5988 11.1558 68.8315 11.1558C69.1024 11.1558 69.3436 11.105 69.5552 11.0034C69.7668 10.8976 69.9445 10.7516 70.0884 10.5654C70.2365 10.375 70.3486 10.1507 70.4248 9.89258C70.501 9.63444 70.5391 9.35091 70.5391 9.04199C70.5391 8.76693 70.5052 8.50244 70.4375 8.24854C70.3698 7.9904 70.2661 7.76188 70.1265 7.56299C69.9868 7.35986 69.8112 7.20117 69.5996 7.08691C69.3923 6.96842 69.1447 6.90918 68.8569 6.90918C68.5311 6.90918 68.2264 6.98958 67.9429 7.15039C67.6636 7.30697 67.4329 7.51432 67.251 7.77246C67.0732 8.02637 66.9717 8.30355 66.9463 8.604L66.3242 8.59766C66.3835 8.1237 66.4935 7.71956 66.6543 7.38525C66.8193 7.04671 67.0225 6.77165 67.2637 6.56006C67.5091 6.34424 67.7821 6.18766 68.0825 6.09033C68.3872 5.98877 68.7088 5.93799 69.0474 5.93799C69.5086 5.93799 69.9064 6.02474 70.2407 6.19824C70.575 6.37174 70.8501 6.60449 71.0659 6.89648C71.2817 7.18424 71.4404 7.51009 71.542 7.87402C71.6478 8.23372 71.7007 8.604 71.7007 8.98486C71.7007 9.42074 71.6393 9.8291 71.5166 10.21C71.3939 10.5908 71.2098 10.9251 70.9644 11.2129C70.7231 11.5007 70.4248 11.7249 70.0693 11.8857C69.7139 12.0465 69.3013 12.127 68.8315 12.127C68.3322 12.127 67.8963 12.0254 67.5239 11.8223C67.1515 11.6149 66.8426 11.3398 66.5972 10.9971C66.3517 10.6543 66.1676 10.2734 66.0449 9.85449C65.9222 9.43555 65.8608 9.01025 65.8608 8.57861V8.02637C65.8608 7.37467 65.9264 6.73568 66.0576 6.10938C66.1888 5.48307 66.4152 4.91602 66.7368 4.4082C67.0627 3.90039 67.5133 3.49626 68.0889 3.1958C68.6644 2.89535 69.3986 2.74512 70.2915 2.74512Z" fill="#FF0F0F"/>
<path d="M7.5 3L13.9952 12H1.00481L7.5 3Z" fill="#1BCE2D"/>
<path d="M55.5 12L49.0048 3L61.9952 3L55.5 12Z" fill="#FF0F0F"/>
<rect y="17" width="83" height="2" fill="#1BCE2D"/>
<rect x="83" y="17" width="14" height="2" fill="#FF0F0F"/>
</svg>
