<svg width="97" height="19" viewBox="0 0 97 19" fill="none" xmlns="http://www.w3.org/2000/svg">
<path d="M22.8237 11.0352V12H16.7744V11.1558L19.8022 7.78516C20.1746 7.37044 20.4624 7.01921 20.6655 6.73145C20.8729 6.43945 21.0168 6.1792 21.0972 5.95068C21.1818 5.71794 21.2241 5.48096 21.2241 5.23975C21.2241 4.93506 21.1606 4.65999 21.0337 4.41455C20.911 4.16488 20.729 3.96598 20.4878 3.81787C20.2466 3.66976 19.9546 3.5957 19.6118 3.5957C19.2013 3.5957 18.8586 3.67611 18.5835 3.83691C18.3127 3.99349 18.1095 4.21354 17.9741 4.49707C17.8387 4.7806 17.771 5.10645 17.771 5.47461H16.5967C16.5967 4.9541 16.7109 4.47803 16.9395 4.04639C17.168 3.61475 17.5065 3.27197 17.9551 3.01807C18.4036 2.75993 18.9559 2.63086 19.6118 2.63086C20.1958 2.63086 20.6951 2.73454 21.1099 2.94189C21.5246 3.14502 21.842 3.43278 22.062 3.80518C22.2863 4.17334 22.3984 4.60498 22.3984 5.1001C22.3984 5.37093 22.3519 5.646 22.2588 5.92529C22.1699 6.20036 22.0451 6.47542 21.8843 6.75049C21.7277 7.02555 21.5436 7.29639 21.332 7.56299C21.1247 7.82959 20.9025 8.09196 20.6655 8.3501L18.1899 11.0352H22.8237ZM25.5659 7.60107L24.6265 7.35986L25.0898 2.75781H29.8315V3.84326H26.0864L25.8071 6.35693C25.9764 6.2596 26.1901 6.16862 26.4482 6.08398C26.7106 5.99935 27.0111 5.95703 27.3496 5.95703C27.777 5.95703 28.16 6.03109 28.4985 6.1792C28.8371 6.32308 29.1248 6.53044 29.3618 6.80127C29.603 7.0721 29.7871 7.39795 29.9141 7.77881C30.041 8.15967 30.1045 8.58496 30.1045 9.05469C30.1045 9.49902 30.0431 9.90739 29.9204 10.2798C29.8019 10.6522 29.6221 10.978 29.3809 11.2573C29.1396 11.5324 28.835 11.7461 28.4668 11.8984C28.1029 12.0508 27.6733 12.127 27.1782 12.127C26.8058 12.127 26.4525 12.0762 26.1182 11.9746C25.7881 11.8688 25.4919 11.7101 25.2295 11.4985C24.9714 11.2827 24.7598 11.0161 24.5947 10.6987C24.4339 10.3771 24.3324 10.0005 24.29 9.56885H25.4072C25.458 9.91585 25.5596 10.2078 25.7119 10.4448C25.8643 10.6818 26.0632 10.8617 26.3086 10.9844C26.5583 11.1029 26.8481 11.1621 27.1782 11.1621C27.4575 11.1621 27.7051 11.1134 27.9209 11.0161C28.1367 10.9188 28.3187 10.7791 28.4668 10.5972C28.6149 10.4152 28.7271 10.1951 28.8032 9.93701C28.8836 9.67887 28.9238 9.389 28.9238 9.06738C28.9238 8.77539 28.8836 8.50456 28.8032 8.25488C28.7228 8.00521 28.6022 7.78727 28.4414 7.60107C28.2848 7.41488 28.0923 7.271 27.8638 7.16943C27.6353 7.06364 27.3729 7.01074 27.0767 7.01074C26.6831 7.01074 26.3848 7.06364 26.1816 7.16943C25.9827 7.27523 25.7775 7.41911 25.5659 7.60107Z" fill="#1BCE2D"/>
<path d="M42.0571 2.75781L38.2041 12.7935H37.1948L41.0542 2.75781H42.0571Z" fill="black"/>
<path d="M68.6157 11.0352V12H62.5664V11.1558L65.5942 7.78516C65.9666 7.37044 66.2544 7.01921 66.4575 6.73145C66.6649 6.43945 66.8088 6.1792 66.8892 5.95068C66.9738 5.71794 67.0161 5.48096 67.0161 5.23975C67.0161 4.93506 66.9526 4.65999 66.8257 4.41455C66.703 4.16488 66.521 3.96598 66.2798 3.81787C66.0386 3.66976 65.7466 3.5957 65.4038 3.5957C64.9933 3.5957 64.6506 3.67611 64.3755 3.83691C64.1047 3.99349 63.9015 4.21354 63.7661 4.49707C63.6307 4.7806 63.563 5.10645 63.563 5.47461H62.3887C62.3887 4.9541 62.5029 4.47803 62.7314 4.04639C62.96 3.61475 63.2985 3.27197 63.7471 3.01807C64.1956 2.75993 64.7479 2.63086 65.4038 2.63086C65.9878 2.63086 66.4871 2.73454 66.9019 2.94189C67.3166 3.14502 67.634 3.43278 67.854 3.80518C68.0783 4.17334 68.1904 4.60498 68.1904 5.1001C68.1904 5.37093 68.1439 5.646 68.0508 5.92529C67.9619 6.20036 67.8371 6.47542 67.6763 6.75049C67.5197 7.02555 67.3356 7.29639 67.124 7.56299C66.9167 7.82959 66.6945 8.09196 66.4575 8.3501L63.9819 11.0352H68.6157ZM75.6743 6.64258V8.05176C75.6743 8.80924 75.6066 9.44824 75.4712 9.96875C75.3358 10.4893 75.1411 10.9082 74.8872 11.2256C74.6333 11.543 74.3265 11.7736 73.9668 11.9175C73.6113 12.0571 73.2093 12.127 72.7607 12.127C72.4053 12.127 72.0773 12.0825 71.7769 11.9937C71.4764 11.9048 71.2056 11.763 70.9644 11.5684C70.7274 11.3695 70.5243 11.1113 70.355 10.7939C70.1857 10.4766 70.0566 10.0915 69.9678 9.63867C69.8789 9.18587 69.8345 8.6569 69.8345 8.05176V6.64258C69.8345 5.88509 69.9022 5.25033 70.0376 4.73828C70.1772 4.22624 70.374 3.81576 70.6279 3.50684C70.8818 3.19368 71.1865 2.9694 71.542 2.83398C71.9017 2.69857 72.3037 2.63086 72.748 2.63086C73.1077 2.63086 73.4378 2.67529 73.7383 2.76416C74.043 2.8488 74.3138 2.98633 74.5508 3.17676C74.7878 3.36296 74.9888 3.61263 75.1538 3.92578C75.3231 4.2347 75.4521 4.61344 75.541 5.06201C75.6299 5.51058 75.6743 6.03743 75.6743 6.64258ZM74.4937 8.24219V6.4458C74.4937 6.03109 74.4683 5.66715 74.4175 5.354C74.3709 5.03662 74.3011 4.76579 74.208 4.5415C74.1149 4.31722 73.9964 4.13525 73.8525 3.99561C73.7129 3.85596 73.55 3.75439 73.3638 3.69092C73.1818 3.62321 72.9766 3.58936 72.748 3.58936C72.4688 3.58936 72.2212 3.64225 72.0054 3.74805C71.7896 3.84961 71.6076 4.01253 71.4595 4.23682C71.3156 4.4611 71.2056 4.75521 71.1294 5.11914C71.0532 5.48307 71.0151 5.92529 71.0151 6.4458V8.24219C71.0151 8.6569 71.0384 9.02295 71.085 9.34033C71.1357 9.65771 71.2098 9.93278 71.3071 10.1655C71.4045 10.394 71.5229 10.5824 71.6626 10.7305C71.8022 10.8786 71.9631 10.9886 72.145 11.0605C72.3312 11.1283 72.5365 11.1621 72.7607 11.1621C73.0485 11.1621 73.3003 11.1071 73.5161 10.9971C73.7319 10.887 73.9118 10.7157 74.0557 10.4829C74.2038 10.2459 74.3138 9.94336 74.3857 9.5752C74.4577 9.2028 74.4937 8.75846 74.4937 8.24219ZM83.2407 11.0352V12H77.1914V11.1558L80.2192 7.78516C80.5916 7.37044 80.8794 7.01921 81.0825 6.73145C81.2899 6.43945 81.4338 6.1792 81.5142 5.95068C81.5988 5.71794 81.6411 5.48096 81.6411 5.23975C81.6411 4.93506 81.5776 4.65999 81.4507 4.41455C81.328 4.16488 81.146 3.96598 80.9048 3.81787C80.6636 3.66976 80.3716 3.5957 80.0288 3.5957C79.6183 3.5957 79.2756 3.67611 79.0005 3.83691C78.7297 3.99349 78.5265 4.21354 78.3911 4.49707C78.2557 4.7806 78.188 5.10645 78.188 5.47461H77.0137C77.0137 4.9541 77.1279 4.47803 77.3564 4.04639C77.585 3.61475 77.9235 3.27197 78.3721 3.01807C78.8206 2.75993 79.3729 2.63086 80.0288 2.63086C80.6128 2.63086 81.1121 2.73454 81.5269 2.94189C81.9416 3.14502 82.259 3.43278 82.479 3.80518C82.7033 4.17334 82.8154 4.60498 82.8154 5.1001C82.8154 5.37093 82.7689 5.646 82.6758 5.92529C82.5869 6.20036 82.4621 6.47542 82.3013 6.75049C82.1447 7.02555 81.9606 7.29639 81.749 7.56299C81.5417 7.82959 81.3195 8.09196 81.0825 8.3501L78.6069 11.0352H83.2407Z" fill="#FF0F0F"/>
<path d="M7.5 3L13.9952 12H1.00481L7.5 3Z" fill="#1BCE2D"/>
<path d="M53.5 12L47.0048 3L59.9952 3L53.5 12Z" fill="#FF0F0F"/>
<rect y="17" width="11" height="2" fill="#1BCE2D"/>
<rect x="11" y="17" width="86" height="2" fill="#FF0F0F"/>
</svg>
