<svg width="111" height="35" viewBox="0 0 111 35" fill="none" xmlns="http://www.w3.org/2000/svg">
<path d="M21.9212 29.0187C23.2672 27.5677 24.2767 25.875 24.9978 23.8437C25.7189 21.8124 26.1035 19.5393 26.1035 17.0727C26.1035 14.7996 25.767 12.6716 25.1421 10.6887C24.5171 8.70572 23.5557 6.96461 22.2577 5.46532C20.9597 3.96603 19.3733 2.80529 17.4504 1.93474C15.4794 1.06418 13.22 0.628906 10.6241 0.628906H0V33.5165H10.6241C12.9796 33.5165 15.1429 33.1296 17.0178 32.3558C18.9407 31.582 20.5751 30.4696 21.9212 29.0187ZM10.6241 32.0656H1.5864V2.12819H10.6722C12.8835 2.12819 14.8545 2.51511 16.5851 3.24057C18.3157 3.96603 19.7579 5.03004 20.9597 6.33588C22.1135 7.64171 23.0269 9.23773 23.6518 11.0756C24.2767 12.9134 24.5652 14.8963 24.5652 17.0727C24.5652 19.2007 24.2767 21.1837 23.6999 23.0215C23.123 24.8593 22.2577 26.4554 21.0559 27.8096C19.9021 29.1638 18.4599 30.2278 16.6812 30.9532C14.9026 31.6787 12.9316 32.0656 10.6241 32.0656Z" fill="#BD3190"/>
<path d="M58.0719 0.628906H52.9281V33.5165H75.6184V28.9703H58.0719V0.628906Z" fill="#BD3190"/>
<path d="M100.232 27.8088L95.9051 26.5514C95.6647 27.1317 95.3282 27.6154 94.8956 28.099C94.4629 28.5826 93.9822 28.9696 93.4053 29.2597C92.8765 29.5983 92.2516 29.8401 91.5786 29.9852C90.9055 30.1787 90.2325 30.227 89.5595 30.227C88.6461 30.227 87.7327 30.0819 86.9155 29.695C86.0502 29.3565 85.3291 28.8728 84.6561 28.2441C83.9831 27.6154 83.4543 26.8415 83.0216 26.0193C82.5889 25.1488 82.3486 24.1815 82.2524 23.1175H101.578C101.626 22.924 101.626 22.6339 101.674 22.2953C101.722 21.9568 101.722 21.6182 101.722 21.2313C101.722 19.5869 101.433 18.0393 100.857 16.54C100.28 15.0407 99.4625 13.7349 98.4049 12.6225C97.3473 11.5101 96.0493 10.5912 94.511 9.91408C92.9727 9.23699 91.2901 8.89844 89.4153 8.89844C87.4924 8.89844 85.8098 9.23699 84.2715 9.91408C82.7332 10.5912 81.4352 11.5101 80.3295 12.6708C79.2239 13.8316 78.4066 15.1858 77.7817 16.6851C77.2048 18.2327 76.8683 19.8287 76.8683 21.5215C76.8683 23.2142 77.1567 24.8102 77.7817 26.3579C78.3585 27.8572 79.2239 29.2114 80.3295 30.3238C81.4352 31.4845 82.7332 32.3551 84.2715 33.0322C85.8098 33.7092 87.4924 34.0478 89.3672 34.0478C91.9151 34.0478 94.1745 33.4674 96.0493 32.3067C98.0203 31.0976 99.4144 29.5983 100.232 27.8088ZM82.9255 16.7818C83.31 15.9112 83.8388 15.1858 84.5119 14.557C85.1368 13.9767 85.906 13.493 86.7232 13.1545C87.5885 12.8159 88.4538 12.6225 89.4153 12.6225C90.3767 12.6225 91.2901 12.8159 92.1554 13.1545C93.0207 13.493 93.7899 13.9767 94.4148 14.557C95.0398 15.1374 95.5686 15.9112 96.0012 16.7818C96.4339 17.6523 96.6743 18.5713 96.7704 19.5869H82.2044C82.2524 18.5713 82.4928 17.604 82.9255 16.7818Z" fill="#BD3190"/>
<path d="M33.4586 9.42969H31.8722V33.515H33.4586V9.42969Z" fill="#BD3190"/>
<path d="M32.6414 3.67675C33.1724 3.67675 33.6028 3.24369 33.6028 2.70947C33.6028 2.17525 33.1724 1.74219 32.6414 1.74219C32.1104 1.74219 31.6799 2.17525 31.6799 2.70947C31.6799 3.24369 32.1104 3.67675 32.6414 3.67675Z" fill="#BD3190"/>
<path d="M46.5825 21.4722C46.5825 19.2958 44.8518 17.5547 42.6886 17.5547C40.5253 17.5547 38.7947 19.2958 38.7947 21.4722C38.7947 23.6486 40.5253 25.3897 42.6886 25.3897C44.8518 25.3897 46.5825 23.6486 46.5825 21.4722ZM40.333 21.4722C40.333 20.1664 41.3906 19.1023 42.6886 19.1023C43.9865 19.1023 45.0441 20.1664 45.0441 21.4722C45.0441 22.778 43.9865 23.842 42.6886 23.842C41.3906 23.842 40.333 22.778 40.333 21.4722Z" fill="#A9BF8F"/>
<path d="M110.808 9.23828H105.76V33.4687H110.808V9.23828Z" fill="#BD3190"/>
<path d="M108.308 5.41678C109.795 5.41678 111 4.2042 111 2.70839C111 1.21259 109.795 0 108.308 0C106.821 0 105.616 1.21259 105.616 2.70839C105.616 4.2042 106.821 5.41678 108.308 5.41678Z" fill="#BD3190"/>
</svg>
