<svg width="140" height="26" viewBox="0 0 140 26" fill="none" xmlns="http://www.w3.org/2000/svg">
<path d="M33.25 9.51832H35.63V21.5238H33.25V9.51832ZM41.51 9.51832V4.90084H38.57V9.51832H36.68V12.2178H38.57V21.5238H41.51V12.2178H43.68V9.51832H41.51ZM55.93 21.3817H54.25V19.3926C53.34 20.8844 51.52 21.6659 49.77 21.6659C46.34 21.6659 43.68 19.2506 43.68 15.4855C43.68 11.7205 46.41 9.37625 49.77 9.37625C51.52 9.37625 53.41 10.0866 54.25 11.5784V9.6604H55.93V21.3817ZM49.7 19.9609C52.15 19.9609 54.18 18.3981 54.18 15.4855C54.18 12.573 51.8 11.0812 49.7 11.0812C47.25 11.0812 45.29 12.7861 45.29 15.4855C45.29 18.114 47.18 19.9609 49.7 19.9609ZM58.24 4.47461H59.92V21.3817H58.24V4.47461ZM62.65 9.30521H64.33V21.3817H62.65V9.30521ZM78.68 21.3817H77V19.3926C76.09 20.8844 74.27 21.6659 72.52 21.6659C69.09 21.6659 66.43 19.2506 66.43 15.4855C66.43 11.7205 69.16 9.37625 72.52 9.37625C74.27 9.37625 76.16 10.0866 77 11.5784V9.6604H78.68V21.3817ZM72.45 19.9609C74.9 19.9609 76.93 18.3981 76.93 15.4855C76.93 12.573 74.55 11.0812 72.45 11.0812C70 11.0812 68.04 12.7861 68.04 15.4855C68.04 18.114 70 19.9609 72.45 19.9609Z" fill="white"/>
<path d="M93.4501 12.6455C92.9601 11.4379 92.1201 10.5144 91.0701 9.87502C89.8123 9.12036 88.3537 8.78316 86.898 8.91052C85.4422 9.03788 84.062 9.62343 82.9501 10.5854C82.3201 11.1537 81.9001 11.7931 81.5501 12.5745C81.2001 13.3559 81.0601 14.2794 81.0601 15.2029C81.0601 17.1209 81.8301 18.7548 83.0201 19.8914C84.2101 21.028 85.8201 21.6674 87.5701 21.6674C89.3201 21.6674 90.9301 21.028 92.1201 19.8914C93.3101 18.7548 94.0801 17.1209 94.0801 15.2029C93.9401 14.2794 93.8001 13.4269 93.4501 12.6455ZM87.4301 18.8969C86.3801 18.8969 85.4701 18.5417 84.7701 17.9023C84.0701 17.263 83.6501 16.3395 83.6501 15.2029C83.6501 14.6346 83.7901 14.1373 83.9301 13.7111C84.2101 13.0717 84.7001 12.5745 85.2601 12.1482C85.8201 11.7931 86.5901 11.5799 87.3601 11.5799C88.4101 11.5799 89.3201 11.9351 90.0201 12.5745C90.3701 12.8586 90.6501 13.2849 90.7901 13.7111C91.0001 14.1373 91.0701 14.6346 91.0701 15.2029C91.0701 16.3395 90.6501 17.263 89.9501 17.9023C89.4601 18.5417 88.4801 18.8969 87.4301 18.8969ZM105.56 12.0772C105.21 11.0827 104.65 10.2302 103.88 9.73294C103.11 9.16464 102.06 8.88049 100.94 8.88049C100.17 8.88049 99.4001 9.02256 98.6301 9.44879C98.3501 9.59087 98.1401 9.73294 97.8601 9.94606V9.0936H95.2001V21.5963H97.8601V14.8477C97.8601 14.2084 97.9301 13.7821 98.0701 13.3559C98.3501 12.7876 98.7001 12.3614 99.2601 12.0772C99.7501 11.7931 100.38 11.651 100.94 11.651C101.29 11.651 101.64 11.722 101.85 11.8641C102.2 12.0062 102.55 12.2903 102.76 12.7166C102.97 13.1428 103.11 13.7111 103.11 14.4215V21.5963H105.77V14.3504C105.84 13.498 105.77 12.7876 105.56 12.0772ZM107.52 4.90234H110.18V21.5253H107.52V4.90234ZM111.86 9.51983H114.52V21.5963H111.86V9.51983ZM138.25 10.5854C137.674 10.0036 136.983 9.55117 136.224 9.25746C135.464 8.96376 134.652 8.83533 133.84 8.88049C132.09 8.88049 130.48 9.51983 129.36 10.5854C128.773 11.1959 128.309 11.918 127.997 12.7103C127.685 13.5026 127.53 14.3496 127.54 15.2029C127.54 17.1209 128.24 18.7548 129.36 19.8914C130.563 21.0614 132.174 21.6999 133.84 21.6674C135.1 21.6674 136.22 21.3832 137.2 20.7439C138.18 20.1756 139.02 19.2521 139.51 18.1865L139.79 17.5472L137.06 16.9078L136.85 17.263C136.57 17.7603 136.15 18.1865 135.59 18.4706C135.1 18.7548 134.47 18.8969 133.77 18.8969C132.86 18.8969 132.02 18.6127 131.46 18.1155C131.04 17.7603 130.69 17.1209 130.48 16.6237H139.86C139.86 16.6237 139.93 15.487 139.93 15.2029C140 13.3559 139.37 11.722 138.25 10.5854ZM131.53 12.4324C132.16 11.9351 132.93 11.651 133.84 11.651C134.75 11.651 135.52 11.9351 136.08 12.4324C136.5 12.7876 136.85 13.2138 136.99 13.9242H130.48C130.76 13.2138 131.11 12.8586 131.53 12.4324Z" fill="white"/>
<path d="M115.5 4.83059C115.5 3.5519 114.45 2.48633 113.19 2.48633C111.93 2.48633 110.88 3.5519 110.88 4.83059H115.5Z" fill="#8ED800"/>
<path d="M110.95 4.83008C110.95 6.10877 112 7.17434 113.26 7.17434C114.52 7.17434 115.57 6.10877 115.57 4.83008H110.95Z" fill="#FFCE06"/>
<path d="M126.56 12.0756C126.21 11.0811 125.65 10.2286 124.88 9.73137C124.11 9.16306 123.06 8.87891 121.94 8.87891C121.17 8.87891 120.4 9.02098 119.63 9.44721C119.35 9.58929 119.14 9.73137 118.86 9.94448V9.09202H116.2V21.5948H118.86V14.8461C118.86 14.2068 118.93 13.7805 119.07 13.3543C119.35 12.786 119.7 12.3598 120.26 12.0756C120.75 11.7915 121.38 11.6494 121.94 11.6494C122.29 11.6494 122.64 11.7204 122.85 11.8625C123.2 12.0046 123.55 12.2887 123.76 12.715C123.97 13.1412 124.11 13.7095 124.11 14.4199V21.5948H126.77V14.3489C126.84 13.4964 126.77 12.786 126.56 12.0756Z" fill="white"/>
<path d="M32.2 4.83008C32.2 6.10877 33.25 7.17434 34.51 7.17434C35.77 7.17434 36.82 6.10877 36.82 4.83008H32.2Z" fill="#2B0052"/>
<path d="M36.75 4.83059C36.75 3.5519 35.7 2.48633 34.44 2.48633C33.25 2.55737 32.2 3.5519 32.2 4.83059H36.75Z" fill="#20C3F3"/>
<path d="M0 13C0 16.4478 1.34962 19.7544 3.75196 22.1924C6.1543 24.6304 9.41258 26 12.81 26C16.2074 26 19.4657 24.6304 21.868 22.1924C24.2704 19.7544 25.62 16.4478 25.62 13H0Z" fill="#FF005C"/>
<path d="M12.81 0C5.74 0 0 6.03825 0 13H25.62C25.62 6.03825 19.88 0 12.81 0Z" fill="#8ED800"/>
<path d="M12.81 4.54688C8.19003 4.54688 4.41003 8.3119 4.41003 13.0004H21.21C21.21 8.3119 17.43 4.54688 12.81 4.54688Z" fill="#FFCE06"/>
<path d="M12.81 7.74414C9.94 7.74414 7.63 10.0174 7.63 13.001H17.99C17.99 10.0174 15.68 7.74414 12.81 7.74414Z" fill="#20C3F3"/>
</svg>
