<svg width="635" height="15" fill="none" xmlns="http://www.w3.org/2000/svg"><path d="M4.703 14.477a.639.639 0 001.067 0C9.762 8.734 10.5 8.133 10.5 6A5.251 5.251 0 005.25.75 5.234 5.234 0 000 6c0 2.133.71 2.734 4.703 8.477zm.547-6.29A2.16 2.16 0 013.062 6c0-1.203.958-2.188 2.188-2.188 1.203 0 2.188.985 2.188 2.188 0 1.23-.985 2.188-2.188 2.188zm206.617-6.753l-2.844-.657c-.3-.082-.628.082-.765.383l-1.313 3.063a.678.678 0 00.192.765l1.668 1.367a10.267 10.267 0 01-4.84 4.84l-1.367-1.668a.678.678 0 00-.766-.191l-3.062 1.312a.697.697 0 00-.383.766l.656 2.844a.65.65 0 00.656.492c7 0 12.688-5.66 12.688-12.688 0-.3-.219-.546-.52-.628zm261.75 4.539c-.629.492-1.422 1.093-4.211 3.117-.547.41-1.558 1.312-2.515 1.312-.985 0-1.969-.902-2.543-1.312-2.789-2.024-3.582-2.625-4.211-3.117-.11-.082-.246 0-.246.136v5.579c0 .738.574 1.312 1.312 1.312h11.375c.711 0 1.313-.574 1.313-1.313V6.11c0-.136-.164-.218-.274-.136zM466.891 9.5c.629.027 1.531-.793 1.996-1.121 3.636-2.625 3.91-2.871 4.73-3.527a.624.624 0 00.274-.52v-.52c0-.71-.602-1.312-1.313-1.312h-11.375c-.738 0-1.312.602-1.312 1.313v.519c0 .219.082.41.246.52.82.656 1.093.902 4.73 3.527.465.328 1.367 1.148 2.024 1.121z" fill="#E8C300"/><path d="M23.45 7.527c.827 0 1.486.233 1.974.698.492.464.738 1.101.738 1.91 0 .957-.295 1.693-.885 2.209-.59.515-1.433.773-2.53.773-.954 0-1.724-.154-2.31-.463V11.09c.31.164.668.299 1.079.404.41.102.799.152 1.166.152 1.105 0 1.658-.453 1.658-1.359 0-.863-.572-1.295-1.717-1.295a4.08 4.08 0 00-.686.065 4.68 4.68 0 00-.609.129l-.72-.387.322-4.365h4.646v1.535h-3.058l-.159 1.681.205-.04c.239-.055.534-.083.885-.083zm6.954 4.166c.313 0 .688-.068 1.125-.205v1.33c-.445.2-.992.3-1.64.3-.715 0-1.237-.18-1.565-.54-.324-.363-.486-.906-.486-1.629V7.791h-.856v-.756l.985-.598.515-1.382h1.143v1.394h1.834v1.342h-1.834v3.158c0 .254.07.442.21.563.145.12.335.181.57.181zM38.906 13H37.12V9.174c0-.945-.351-1.418-1.054-1.418-.5 0-.862.17-1.084.51-.223.34-.334.89-.334 1.652V13H32.86V3.883h1.788V5.74c0 .145-.014.485-.041 1.02l-.041.527h.093c.399-.64 1.032-.96 1.899-.96.77 0 1.353.206 1.752.62.398.414.597 1.008.597 1.782V13zm5.098 0V4.434h1.816V11.5h3.475V13h-5.291zm8.068-3.287c0 .648.106 1.139.317 1.47.214.333.562.499 1.043.499.476 0 .818-.164 1.025-.492.211-.333.316-.825.316-1.477 0-.649-.105-1.135-.316-1.46-.21-.323-.557-.485-1.037-.485-.477 0-.82.162-1.031.486-.211.32-.317.807-.317 1.459zm4.53 0c0 1.066-.282 1.9-.844 2.502-.563.601-1.346.902-2.35.902-.629 0-1.183-.137-1.664-.41a2.767 2.767 0 01-1.107-1.19c-.258-.515-.387-1.117-.387-1.804 0-1.07.28-1.902.838-2.496.559-.594 1.344-.89 2.355-.89.63 0 1.184.136 1.664.41.48.273.85.665 1.108 1.177.258.512.387 1.111.387 1.799zM64.125 13h-1.787V9.174c0-.473-.084-.826-.252-1.06-.168-.239-.436-.358-.803-.358-.5 0-.861.168-1.084.504-.222.332-.334.885-.334 1.658V13h-1.787V6.45h1.365l.24.837h.1c.2-.316.473-.555.82-.715.352-.164.75-.246 1.196-.246.761 0 1.34.207 1.734.621.395.41.592 1.004.592 1.782V13zm3.914.117c-.77 0-1.375-.299-1.816-.896-.438-.598-.657-1.426-.657-2.485 0-1.074.223-1.91.668-2.507.45-.602 1.067-.903 1.852-.903.824 0 1.453.32 1.887.961h.058a7.31 7.31 0 01-.135-1.307V3.883h1.793V13h-1.37l-.346-.85h-.076c-.407.645-1.026.967-1.858.967zm.627-1.424c.457 0 .791-.133 1.002-.398.215-.266.332-.717.351-1.354v-.193c0-.703-.109-1.207-.328-1.512-.214-.304-.566-.457-1.054-.457-.399 0-.71.17-.932.51-.219.336-.328.826-.328 1.47 0 .645.111 1.13.334 1.454.223.32.541.48.955.48zm6.316-1.98c0 .648.106 1.139.317 1.47.215.333.562.499 1.043.499.476 0 .818-.164 1.025-.492.211-.333.317-.825.317-1.477 0-.649-.106-1.135-.317-1.46-.21-.323-.556-.485-1.037-.485-.477 0-.82.162-1.031.486-.211.32-.317.807-.317 1.459zm4.53 0c0 1.066-.281 1.9-.844 2.502-.563.601-1.346.902-2.35.902-.629 0-1.183-.137-1.664-.41a2.766 2.766 0 01-1.107-1.19c-.258-.515-.387-1.117-.387-1.804 0-1.07.28-1.902.838-2.496.559-.594 1.344-.89 2.355-.89.63 0 1.184.136 1.665.41.48.273.85.665 1.107 1.177.258.512.387 1.111.387 1.799zM87.035 13h-1.787V9.174c0-.473-.084-.826-.252-1.06-.168-.239-.435-.358-.803-.358-.5 0-.861.168-1.084.504-.222.332-.334.885-.334 1.658V13h-1.787V6.45h1.365l.24.837h.1c.2-.316.473-.555.82-.715.352-.164.75-.246 1.196-.246.762 0 1.34.207 1.734.621.395.41.592 1.004.592 1.782V13zm5.098-8.566h2.666c1.215 0 2.095.173 2.642.521.551.344.827.893.827 1.647 0 .511-.121.931-.364 1.26a1.429 1.429 0 01-.955.591v.059c.543.12.934.347 1.172.68.242.331.363.773.363 1.324 0 .78-.283 1.39-.85 1.828-.562.437-1.327.656-2.296.656h-3.205V4.434zm1.816 3.392h1.055c.492 0 .848-.076 1.066-.228.223-.153.334-.405.334-.756 0-.328-.12-.563-.363-.703-.238-.145-.617-.217-1.137-.217h-.955v1.904zm0 1.442V11.5h1.184c.5 0 .869-.096 1.107-.287.239-.191.358-.484.358-.879 0-.711-.508-1.066-1.524-1.066H93.95zm7.53.445c0 .648.105 1.139.316 1.47.215.333.562.499 1.043.499.476 0 .818-.164 1.025-.492.211-.333.317-.825.317-1.477 0-.649-.106-1.135-.317-1.46-.211-.323-.556-.485-1.037-.485-.476 0-.82.162-1.031.486-.211.32-.316.807-.316 1.459zm4.529 0c0 1.066-.281 1.9-.844 2.502-.562.601-1.346.902-2.35.902-.628 0-1.183-.137-1.664-.41a2.77 2.77 0 01-1.107-1.19c-.258-.515-.387-1.117-.387-1.804 0-1.07.28-1.902.838-2.496.559-.594 1.344-.89 2.356-.89.629 0 1.183.136 1.664.41.48.273.849.665 1.107 1.177s.387 1.111.387 1.799zM112.125 13l-.24-.838h-.094a1.904 1.904 0 01-.814.71 2.811 2.811 0 01-1.202.245c-.769 0-1.349-.205-1.74-.615-.39-.414-.586-1.008-.586-1.781V6.449h1.787v3.826c0 .473.084.829.252 1.067.168.234.436.351.803.351.5 0 .861-.166 1.084-.498.223-.336.334-.89.334-1.664V6.45h1.787V13h-1.371zm5.033 0h-1.787V3.883h1.787V13zm4.594-5.402c-.379 0-.676.12-.891.363-.215.238-.338.578-.369 1.02H123c-.008-.442-.123-.782-.346-1.02-.222-.242-.523-.363-.902-.363zm.252 5.52c-1.055 0-1.879-.292-2.473-.874-.593-.582-.89-1.406-.89-2.473 0-1.097.273-1.945.82-2.542.551-.602 1.31-.903 2.279-.903.926 0 1.647.264 2.162.791.516.528.774 1.256.774 2.186v.867h-4.225c.02.508.17.904.451 1.19.282.285.676.427 1.184.427.394 0 .768-.04 1.119-.123a5.601 5.601 0 001.102-.393v1.383a4.123 4.123 0 01-1.002.346 6.17 6.17 0 01-1.301.117zm5.684-.118l-2.497-6.55h1.87l1.265 3.732c.141.472.229.92.264 1.341h.035c.02-.375.107-.822.264-1.341l1.259-3.733h1.87L129.521 13h-1.833zm9.433 0l-.346-.89h-.046c-.301.378-.612.642-.932.79-.317.145-.731.217-1.242.217-.629 0-1.125-.18-1.489-.539-.359-.36-.539-.871-.539-1.535 0-.695.243-1.207.727-1.535.488-.332 1.223-.516 2.203-.551l1.137-.035v-.287c0-.664-.34-.996-1.02-.996-.523 0-1.138.158-1.845.474l-.592-1.207c.754-.394 1.59-.592 2.508-.592.878 0 1.552.192 2.021.575.469.382.703.965.703 1.746V13h-1.248zm-.527-3.035l-.692.023c-.519.016-.906.11-1.16.282-.254.171-.381.433-.381.785 0 .504.289.755.868.755.414 0 .744-.119.99-.357.25-.238.375-.555.375-.95v-.538zm7.277-3.639c.242 0 .443.018.604.053l-.135 1.676a2.05 2.05 0 00-.528-.059c-.57 0-1.015.147-1.335.44-.317.293-.475.703-.475 1.23V13h-1.787V6.45h1.353l.264 1.1h.088c.203-.366.476-.661.82-.884a2.03 2.03 0 011.131-.34zm3.867 6.791c-.769 0-1.375-.299-1.816-.896-.438-.598-.656-1.426-.656-2.485 0-1.074.222-1.91.668-2.507.449-.602 1.066-.903 1.851-.903.824 0 1.453.32 1.887.961h.058a7.378 7.378 0 01-.134-1.307V3.883h1.793V13h-1.371l-.346-.85h-.076c-.407.645-1.026.967-1.858.967zm.627-1.424c.457 0 .791-.133 1.002-.398.215-.266.332-.717.352-1.354v-.193c0-.703-.11-1.207-.328-1.512-.215-.304-.567-.457-1.055-.457-.398 0-.709.17-.932.51-.218.336-.328.826-.328 1.47 0 .645.112 1.13.334 1.454.223.32.541.48.955.48zm6.645.047c-.203.79-.547 1.725-1.031 2.807h-1.29c.254-1.04.452-2.02.592-2.942h1.641l.088.135zm11.959-7.306v5.543c0 .632-.143 1.187-.428 1.664a2.742 2.742 0 01-1.225 1.095c-.535.254-1.168.381-1.898.381-1.102 0-1.957-.281-2.566-.844-.61-.566-.914-1.34-.914-2.32v-5.52h1.81v5.245c0 .66.133 1.144.398 1.453.266.309.706.463 1.319.463.594 0 1.023-.154 1.289-.463.269-.313.404-.8.404-1.465V4.434h1.811zm1.705 7.728c0-.328.088-.576.264-.744.175-.168.431-.252.767-.252.324 0 .574.086.75.258.18.172.27.418.27.738 0 .309-.09.553-.27.732-.18.176-.43.264-.75.264-.328 0-.582-.086-.762-.258-.179-.175-.269-.421-.269-.738zm10.705.838h-2.063l-2.244-3.61-.767.551V13h-1.817V4.434h1.817v3.92l.715-1.008 2.32-2.912h2.015l-2.988 3.79L179.379 13zm.685-.838c0-.328.088-.576.264-.744.176-.168.432-.252.768-.252.324 0 .574.086.75.258.179.172.269.418.269.738 0 .309-.09.553-.269.732-.18.176-.43.264-.75.264-.328 0-.582-.086-.762-.258-.18-.175-.27-.421-.27-.738zm78.832-2.748h-2.267V8.131h2.267V5.846h1.284V8.13h2.267v1.283h-2.267v2.256h-1.284V9.414zm10.735 1.81H268.6V13h-1.77v-1.775h-3.656v-1.26l3.756-5.531h1.67v5.384h1.031v1.407zm-2.801-1.406V8.365c0-.242.01-.594.029-1.054.02-.461.036-.729.047-.803h-.047c-.144.32-.318.633-.521.937l-1.57 2.373h2.062zm9.416-1.101c0 1.496-.246 2.603-.738 3.322-.488.719-1.242 1.078-2.262 1.078-.988 0-1.734-.37-2.238-1.113-.5-.742-.75-1.838-.75-3.287 0-1.512.244-2.625.732-3.34.489-.719 1.24-1.078 2.256-1.078.988 0 1.734.375 2.238 1.125.508.75.762 1.847.762 3.293zm-4.189 0c0 1.05.089 1.804.269 2.261.184.454.49.68.92.68.422 0 .727-.23.914-.691.188-.461.281-1.211.281-2.25 0-1.051-.095-1.805-.287-2.262-.187-.46-.49-.691-.908-.691-.426 0-.73.23-.914.691-.184.457-.275 1.211-.275 2.262zm9.07 4.283l3.217-7.031h-4.225V4.445h6.147v1.137L283.025 13h-1.898zm11.994 0h-5.988v-1.26l2.15-2.174c.637-.652 1.053-1.103 1.248-1.353.196-.254.336-.488.422-.703.086-.215.129-.438.129-.668 0-.344-.096-.6-.287-.768-.188-.168-.44-.252-.756-.252-.332 0-.654.076-.967.229a4.999 4.999 0 00-.978.65l-.985-1.166c.422-.36.772-.613 1.049-.762.278-.148.58-.261.908-.34a4.558 4.558 0 011.102-.122c.535 0 1.008.097 1.418.293.41.195.728.468.955.82.227.351.34.754.34 1.207 0 .394-.07.765-.211 1.113a4.18 4.18 0 01-.645 1.06c-.289.364-.8.882-1.535 1.553l-1.101 1.038v.082h3.732V13zm6.82-4.91c0 1.687-.355 2.947-1.066 3.78-.711.831-1.787 1.247-3.229 1.247-.507 0-.892-.027-1.154-.082v-1.453c.328.082.672.123 1.031.123.606 0 1.104-.088 1.495-.264.39-.18.689-.459.896-.838.207-.382.326-.908.357-1.576h-.07c-.226.368-.488.625-.785.774-.297.148-.668.222-1.113.222-.746 0-1.334-.238-1.764-.714-.43-.48-.644-1.147-.644-1.998 0-.918.259-1.643.779-2.174.523-.535 1.234-.803 2.133-.803.632 0 1.185.148 1.658.445.476.297.842.729 1.096 1.295.253.563.38 1.235.38 2.016zm-3.099-2.303c-.375 0-.668.129-.879.387-.211.258-.317.629-.317 1.113 0 .414.096.742.288.984.191.243.482.364.873.364.367 0 .681-.12.943-.358.262-.242.393-.52.393-.832 0-.465-.123-.857-.37-1.177-.242-.32-.552-.48-.931-.48zM308.438 13h-1.811V8.043l.018-.814.029-.891c-.301.3-.51.498-.627.592l-.985.79-.873-1.09 2.76-2.196h1.489V13zm8.033-6.65c0 .535-.162.99-.487 1.365-.324.375-.779.633-1.365.773v.035c.692.086 1.215.297 1.57.633.356.332.534.781.534 1.348 0 .824-.299 1.467-.897 1.928-.597.457-1.451.685-2.56.685-.93 0-1.754-.154-2.473-.463v-1.54c.332.167.697.304 1.096.41.398.105.793.158 1.183.158.598 0 1.039-.102 1.324-.305.286-.203.428-.53.428-.979 0-.402-.164-.687-.492-.855-.328-.168-.852-.252-1.57-.252h-.651V7.902h.662c.665 0 1.149-.086 1.454-.257.308-.176.462-.475.462-.897 0-.648-.406-.973-1.218-.973a2.81 2.81 0 00-.862.141 4.206 4.206 0 00-.966.486l-.838-1.248c.781-.562 1.713-.843 2.795-.843.886 0 1.586.18 2.097.539.516.359.774.859.774 1.5zm5.677 6.65h-1.81V8.043l.017-.814.03-.891c-.301.3-.51.498-.627.592l-.985.79-.873-1.09 2.76-2.196h1.488V13zm5.438-3.639c0-1.695.357-2.957 1.072-3.785.719-.828 1.793-1.242 3.223-1.242.488 0 .871.03 1.148.088v1.447a4.685 4.685 0 00-1.031-.117c-.621 0-1.129.094-1.523.281a1.89 1.89 0 00-.879.832c-.196.367-.311.889-.346 1.565h.076c.387-.664 1.006-.996 1.858-.996.765 0 1.365.24 1.798.72.434.48.651 1.145.651 1.992 0 .914-.258 1.64-.774 2.174-.515.532-1.23.797-2.144.797-.633 0-1.186-.146-1.658-.44-.469-.292-.832-.72-1.09-1.282-.254-.563-.381-1.24-.381-2.034zm3.094 2.309c.386 0 .683-.129.89-.387.207-.261.311-.633.311-1.113 0-.418-.098-.746-.293-.984-.192-.243-.483-.364-.873-.364-.367 0-.682.12-.944.358-.257.238-.386.515-.386.832 0 .465.121.857.363 1.178.246.32.557.48.932.48zm9.474-5.32c0 .535-.162.99-.486 1.365-.324.375-.779.633-1.365.773v.035c.691.086 1.215.297 1.57.633.356.332.533.781.533 1.348 0 .824-.299 1.467-.896 1.928-.598.457-1.451.685-2.561.685-.929 0-1.754-.154-2.472-.463v-1.54c.332.167.697.304 1.095.41.399.105.793.158 1.184.158.598 0 1.039-.102 1.324-.305.285-.203.428-.53.428-.979 0-.402-.164-.687-.492-.855-.328-.168-.852-.252-1.571-.252h-.65V7.902h.662c.664 0 1.148-.086 1.453-.257.309-.176.463-.475.463-.897 0-.648-.406-.973-1.219-.973a2.81 2.81 0 00-.861.141 4.231 4.231 0 00-.967.486l-.838-1.248c.782-.562 1.713-.843 2.795-.843.887 0 1.586.18 2.098.539.515.359.773.859.773 1.5zm2.051 6.65l3.217-7.031h-4.225V4.445h6.147v1.137L344.104 13h-1.899zm10.424-8.566L349.436 13h-1.624l3.194-8.566h1.623zm2.842 4.98h-2.268V8.131h2.268V5.846h1.283V8.13h2.267v1.283h-2.267v2.256h-1.283V9.414zm10.734 1.81h-1.031V13h-1.77v-1.775h-3.656v-1.26l3.756-5.531h1.67v5.384h1.031v1.407zm-2.801-1.406V8.365c0-.242.01-.594.03-1.054.019-.461.035-.729.046-.803h-.046a6.57 6.57 0 01-.522.937l-1.57 2.373h2.062zm9.416-1.101c0 1.496-.246 2.603-.738 3.322-.488.719-1.242 1.078-2.262 1.078-.988 0-1.734-.37-2.238-1.113-.5-.742-.75-1.838-.75-3.287 0-1.512.244-2.625.732-3.34.489-.719 1.241-1.078 2.256-1.078.989 0 1.735.375 2.239 1.125.507.75.761 1.847.761 3.293zm-4.189 0c0 1.05.09 1.804.269 2.261.184.454.491.68.92.68.422 0 .727-.23.914-.691.188-.461.282-1.211.282-2.25 0-1.051-.096-1.805-.287-2.262-.188-.46-.491-.691-.909-.691-.425 0-.73.23-.914.691-.183.457-.275 1.211-.275 2.262zm9.07 4.283l3.217-7.031h-4.225V4.445h6.147v1.137L379.6 13h-1.899zm11.994 0h-5.988v-1.26l2.15-2.174c.637-.652 1.053-1.103 1.248-1.353.196-.254.336-.488.422-.703.086-.215.129-.438.129-.668 0-.344-.095-.6-.287-.768-.187-.168-.439-.252-.756-.252-.332 0-.654.076-.967.229a4.999 4.999 0 00-.978.65l-.984-1.166c.421-.36.771-.613 1.048-.762a3.82 3.82 0 01.909-.34 4.544 4.544 0 011.101-.122c.535 0 1.008.097 1.418.293.41.195.729.468.955.82.227.351.34.754.34 1.207 0 .394-.07.765-.211 1.113a4.174 4.174 0 01-.644 1.06c-.289.364-.801.882-1.536 1.553l-1.101 1.038v.082h3.732V13zm.809-3.639c0-1.695.357-2.957 1.072-3.785.719-.828 1.793-1.242 3.223-1.242.488 0 .871.03 1.148.088v1.447a4.685 4.685 0 00-1.031-.117c-.621 0-1.129.094-1.523.281a1.89 1.89 0 00-.879.832c-.196.367-.311.889-.346 1.565h.076c.387-.664 1.006-.996 1.858-.996.765 0 1.365.24 1.798.72.434.48.651 1.145.651 1.992 0 .914-.258 1.64-.774 2.174-.515.532-1.23.797-2.144.797-.633 0-1.186-.146-1.658-.44-.469-.292-.832-.72-1.09-1.282-.254-.563-.381-1.24-.381-2.034zm3.094 2.309c.386 0 .683-.129.89-.387.207-.261.311-.633.311-1.113 0-.418-.098-.746-.293-.984-.192-.243-.483-.364-.873-.364-.367 0-.682.12-.944.358-.257.238-.386.515-.386.832 0 .465.121.857.363 1.178.246.32.557.48.932.48zm13.119-.445h-1.031V13h-1.77v-1.775h-3.656v-1.26l3.756-5.531h1.67v5.384h1.031v1.407zm-2.801-1.407V8.365c0-.242.01-.594.029-1.054.02-.461.035-.729.047-.803h-.047c-.144.32-.318.633-.521.937l-1.57 2.373h2.062zm6.592-2.29c.828 0 1.486.232 1.974.697.493.464.739 1.101.739 1.91 0 .957-.295 1.693-.885 2.209-.59.515-1.434.773-2.531.773-.953 0-1.723-.154-2.309-.463V11.09c.309.164.668.299 1.078.404.41.102.799.152 1.166.152 1.106 0 1.658-.453 1.658-1.359 0-.863-.572-1.295-1.716-1.295a4.08 4.08 0 00-.686.065 4.68 4.68 0 00-.609.129l-.721-.387.322-4.365h4.647v1.535h-3.059l-.158 1.681.205-.04a4.03 4.03 0 01.885-.083zm6.691-3.206c.821 0 1.481.188 1.981.563.504.37.756.873.756 1.506 0 .437-.122.828-.364 1.171-.242.34-.633.645-1.172.915.641.343 1.1.703 1.377 1.078.282.37.422.779.422 1.224 0 .703-.275 1.27-.826 1.7-.551.425-1.275.638-2.174.638-.937 0-1.674-.199-2.209-.598-.535-.398-.802-.962-.802-1.693 0-.488.128-.922.386-1.3.262-.38.68-.713 1.254-1.003-.488-.308-.84-.638-1.055-.99a2.18 2.18 0 01-.322-1.154c0-.613.254-1.11.762-1.488.508-.38 1.17-.569 1.986-.569zm-1.336 6.399c0 .336.117.597.352.785.234.187.555.281.961.281.449 0 .785-.096 1.008-.287a.974.974 0 00.334-.768c0-.261-.112-.505-.334-.732-.219-.23-.577-.475-1.073-.732-.832.382-1.248.867-1.248 1.453zm1.325-5.075c-.309 0-.559.08-.75.24a.78.78 0 00-.282.634.99.99 0 00.223.632c.152.184.426.373.82.569.383-.18.651-.364.803-.551.152-.188.228-.404.228-.65a.774.774 0 00-.292-.64c-.196-.155-.446-.234-.75-.234zm7.88 7.354l3.217-7.031h-4.224V4.445h6.146v1.137L426.967 13h-1.899zm8.959-8.678c.821 0 1.481.188 1.981.563.504.37.756.873.756 1.506 0 .437-.121.828-.364 1.171-.242.34-.632.645-1.171.915.64.343 1.099.703 1.376 1.078.282.37.422.779.422 1.224 0 .703-.275 1.27-.826 1.7-.551.425-1.275.638-2.174.638-.937 0-1.673-.199-2.209-.598-.535-.398-.802-.962-.802-1.693 0-.488.129-.922.386-1.3.262-.38.68-.713 1.254-1.003-.488-.308-.84-.638-1.054-.99a2.171 2.171 0 01-.323-1.154c0-.613.254-1.11.762-1.488.508-.38 1.17-.569 1.986-.569zm-1.336 6.399c0 .336.118.597.352.785.234.187.555.281.961.281.449 0 .785-.096 1.008-.287a.974.974 0 00.334-.768c0-.261-.112-.505-.334-.732-.219-.23-.576-.475-1.073-.732-.832.382-1.248.867-1.248 1.453zm1.325-5.075c-.309 0-.559.08-.75.24a.78.78 0 00-.282.634c0 .234.075.445.223.632.152.184.426.373.82.569.383-.18.651-.364.803-.551.152-.188.229-.404.229-.65a.775.775 0 00-.293-.64c-.196-.155-.446-.234-.75-.234zM443.918 13h-5.988v-1.26l2.15-2.174c.637-.652 1.053-1.103 1.248-1.353a3.05 3.05 0 00.422-.703c.086-.215.129-.438.129-.668 0-.344-.096-.6-.287-.768-.188-.168-.44-.252-.756-.252-.332 0-.654.076-.967.229a4.97 4.97 0 00-.978.65l-.985-1.166c.422-.36.772-.613 1.049-.762.277-.148.58-.261.908-.34a4.552 4.552 0 011.102-.122c.535 0 1.008.097 1.418.293.41.195.728.468.955.82.226.351.34.754.34 1.207 0 .394-.071.765-.211 1.113a4.18 4.18 0 01-.645 1.06c-.289.364-.801.882-1.535 1.553l-1.101 1.038v.082h3.732V13zm51.061-3.287c0 .648.105 1.139.316 1.47.215.333.562.499 1.043.499.476 0 .818-.164 1.025-.492.211-.333.317-.825.317-1.477 0-.649-.106-1.135-.317-1.46-.211-.323-.556-.485-1.037-.485-.476 0-.82.162-1.031.486-.211.32-.316.807-.316 1.459zm4.529 0c0 1.066-.281 1.9-.844 2.502-.562.601-1.346.902-2.35.902-.628 0-1.183-.137-1.664-.41a2.77 2.77 0 01-1.107-1.19c-.258-.515-.387-1.117-.387-1.804 0-1.07.28-1.902.838-2.496.559-.594 1.344-.89 2.356-.89.629 0 1.183.136 1.664.41.48.273.849.665 1.107 1.177s.387 1.111.387 1.799zm5.097-1.922h-1.546V13h-1.788V7.791h-.984V6.93l.984-.48v-.481c0-.746.184-1.291.551-1.635.367-.344.955-.516 1.764-.516.617 0 1.166.092 1.646.276l-.457 1.312a3.327 3.327 0 00-.996-.17c-.254 0-.437.077-.55.229-.114.148-.17.34-.17.574v.41h1.546v1.342zm4.647 0h-1.547V13h-1.787V7.791h-.984V6.93l.984-.48v-.481c0-.746.184-1.291.551-1.635.367-.344.955-.516 1.763-.516.618 0 1.166.092 1.647.276l-.457 1.312a3.337 3.337 0 00-.996-.17c-.254 0-.438.077-.551.229-.113.148-.17.34-.17.574v.41h1.547v1.342zm.932-3.035c0-.582.324-.873.972-.873.649 0 .973.29.973.873 0 .277-.082.494-.246.65-.16.153-.403.229-.727.229-.648 0-.972-.293-.972-.88zM512.047 13h-1.787V6.45h1.787V13zm4.535.117c-2.039 0-3.059-1.119-3.059-3.357 0-1.114.278-1.963.832-2.55.555-.589 1.35-.884 2.385-.884.758 0 1.438.149 2.039.445l-.527 1.383a8.335 8.335 0 00-.785-.275 2.471 2.471 0 00-.727-.111c-.929 0-1.394.66-1.394 1.98 0 1.281.465 1.922 1.394 1.922.344 0 .662-.045.955-.135a3.53 3.53 0 00.879-.433v1.529c-.289.184-.582.31-.879.38-.293.071-.664.106-1.113.106zm6.229-5.52c-.379 0-.676.122-.891.364-.215.238-.338.578-.369 1.02h2.508c-.008-.442-.123-.782-.346-1.02-.223-.242-.524-.363-.902-.363zm.251 5.52c-1.054 0-1.878-.29-2.472-.873-.594-.582-.891-1.406-.891-2.473 0-1.097.274-1.945.821-2.542.55-.602 1.31-.903 2.279-.903.926 0 1.646.264 2.162.791.516.528.773 1.256.773 2.186v.867h-4.224c.019.508.17.904.451 1.19.281.285.676.427 1.184.427a4.92 4.92 0 001.119-.123 5.616 5.616 0 001.101-.393v1.383a4.093 4.093 0 01-1.002.346 6.163 6.163 0 01-1.301.117zm13.354-4.523c0 .562-.09 1.078-.27 1.547-.179.464-.433.83-.761 1.095a1.763 1.763 0 01-1.143.399 1.44 1.44 0 01-.767-.205 1.21 1.21 0 01-.481-.551h-.094a2.008 2.008 0 01-1.611.756c-.691 0-1.236-.207-1.635-.621-.398-.418-.597-.989-.597-1.711 0-.824.261-1.489.785-1.992.523-.504 1.207-.756 2.051-.756.336 0 .705.033 1.107.1.406.062.74.138 1.002.228l-.135 2.865c0 .543.149.815.445.815.25 0 .45-.182.598-.545.149-.368.223-.846.223-1.436 0-.629-.131-1.184-.393-1.664a2.654 2.654 0 00-1.107-1.107c-.473-.254-1.014-.381-1.623-.381-.789 0-1.475.162-2.057.486a3.269 3.269 0 00-1.342 1.406c-.308.61-.463 1.315-.463 2.115 0 1.079.288 1.907.862 2.485.578.574 1.414.861 2.508.861a7.7 7.7 0 001.365-.135 9.277 9.277 0 001.465-.404v1.125c-.836.356-1.764.533-2.784.533-1.484 0-2.642-.39-3.474-1.171-.828-.782-1.242-1.868-1.242-3.258 0-.965.211-1.84.632-2.625a4.618 4.618 0 011.811-1.852c.785-.45 1.688-.674 2.707-.674.859 0 1.627.176 2.303.528a3.736 3.736 0 011.564 1.5c.367.648.551 1.396.551 2.244zm-6 .732c0 .824.336 1.236 1.008 1.236.351 0 .619-.122.803-.369.183-.25.294-.654.334-1.213l.076-1.294a3.209 3.209 0 00-.674-.065c-.488 0-.869.152-1.143.457-.269.305-.404.72-.404 1.248zM543.822 13h-1.787V9.174c0-.473-.08-.826-.24-1.06-.156-.239-.404-.358-.744-.358-.457 0-.789.168-.996.504-.207.336-.311.888-.311 1.658V13h-1.787V6.45h1.365l.24.837h.1a1.8 1.8 0 01.762-.703 2.45 2.45 0 011.142-.258c.981 0 1.645.32 1.993.961h.158c.176-.305.433-.54.773-.709a2.61 2.61 0 011.16-.252c.743 0 1.303.192 1.682.574.383.38.574.989.574 1.829V13h-1.793V9.174c0-.473-.08-.826-.24-1.06-.156-.239-.404-.358-.744-.358-.438 0-.766.156-.984.469-.215.312-.323.808-.323 1.488V13zm5.848-8.244c0-.582.324-.873.973-.873.648 0 .972.29.972.873 0 .277-.082.494-.246.65-.16.153-.402.229-.726.229-.649 0-.973-.293-.973-.88zM551.533 13h-1.787V6.45h1.787V13zm7.928 0h-1.787V9.174c0-.473-.084-.826-.252-1.06-.168-.239-.436-.358-.803-.358-.5 0-.861.168-1.084.504-.223.332-.334.885-.334 1.658V13h-1.787V6.45h1.365l.241.837h.099c.199-.316.473-.555.82-.715.352-.164.75-.246 1.196-.246.761 0 1.34.207 1.734.621.395.41.592 1.004.592 1.782V13zm3.914.117c-.77 0-1.375-.299-1.816-.896-.438-.598-.657-1.426-.657-2.485 0-1.074.223-1.91.668-2.507.45-.602 1.067-.903 1.852-.903.824 0 1.453.32 1.887.961h.058a7.294 7.294 0 01-.135-1.307V3.883h1.793V13h-1.371l-.345-.85h-.077c-.406.645-1.025.967-1.857.967zm.627-1.424c.457 0 .791-.133 1.002-.398.215-.266.332-.717.351-1.354v-.193c0-.703-.109-1.207-.328-1.512-.215-.304-.566-.457-1.054-.457-.399 0-.709.17-.932.51-.219.336-.328.826-.328 1.47 0 .645.111 1.13.334 1.454.223.32.541.48.955.48zm8.537-5.367c.773 0 1.379.303 1.816.908.438.602.657 1.428.657 2.479 0 1.082-.227 1.92-.68 2.514-.449.593-1.062.89-1.84.89-.769 0-1.373-.28-1.81-.838h-.123l-.299.721h-1.365V3.883h1.787v2.12c0 .27-.024.702-.071 1.296h.071c.418-.649 1.037-.973 1.857-.973zm-.574 1.43c-.442 0-.764.137-.967.41-.203.27-.309.717-.316 1.342V9.7c0 .703.103 1.207.31 1.512.211.305.543.457.996.457.367 0 .658-.168.873-.504.219-.34.328-.832.328-1.477 0-.644-.109-1.127-.328-1.447-.218-.324-.517-.486-.896-.486zm6.31 5.244h-1.787V3.883h1.787V13zm1.805-8.244c0-.582.324-.873.973-.873.648 0 .972.29.972.873 0 .277-.082.494-.246.65-.16.153-.402.229-.726.229-.649 0-.973-.293-.973-.88zM581.943 13h-1.787V6.45h1.787V13zm6.452-1.945c0 .672-.235 1.183-.704 1.535-.464.351-1.162.527-2.091.527a6.34 6.34 0 01-1.219-.1 4.466 4.466 0 01-.943-.28V11.26c.332.156.705.287 1.119.392.418.106.785.159 1.101.159.649 0 .973-.188.973-.563a.46.46 0 00-.129-.34c-.086-.09-.234-.19-.445-.299a10.477 10.477 0 00-.844-.392c-.504-.211-.875-.406-1.113-.586a1.686 1.686 0 01-.516-.615c-.105-.235-.158-.522-.158-.862 0-.582.224-1.03.674-1.347.453-.32 1.093-.48 1.921-.48.79 0 1.557.171 2.303.515l-.539 1.289a9.918 9.918 0 00-.92-.346 2.887 2.887 0 00-.873-.135c-.527 0-.791.143-.791.428 0 .16.084.299.252.416.172.117.545.291 1.119.522.512.207.887.4 1.125.58.239.18.414.386.528.62.113.235.17.514.17.839zm4.154.638c.312 0 .687-.068 1.125-.205v1.33c-.445.2-.992.3-1.641.3-.715 0-1.236-.18-1.564-.54-.324-.363-.487-.906-.487-1.629V7.791h-.855v-.756l.984-.598.516-1.382h1.143v1.394h1.834v1.342h-1.834v3.158c0 .254.07.442.21.563.145.12.334.181.569.181zm5.168-4.095c-.379 0-.676.12-.891.363-.215.238-.338.578-.369 1.02h2.508c-.008-.442-.123-.782-.346-1.02-.223-.242-.523-.363-.902-.363zm.252 5.52c-1.055 0-1.879-.292-2.473-.874-.594-.582-.891-1.406-.891-2.473 0-1.097.274-1.945.821-2.542.551-.602 1.31-.903 2.279-.903.926 0 1.647.264 2.162.791.516.528.774 1.256.774 2.186v.867h-4.225c.02.508.17.904.451 1.19.281.285.676.427 1.184.427a4.92 4.92 0 001.119-.123 5.594 5.594 0 001.101-.393v1.383a4.1 4.1 0 01-1.001.346c-.356.078-.79.117-1.301.117zm7.781-6.792c.242 0 .443.018.604.053l-.135 1.676a2.055 2.055 0 00-.528-.059c-.57 0-1.015.147-1.336.44-.316.293-.474.703-.474 1.23V13h-1.787V6.45h1.353l.264 1.1h.088c.203-.366.476-.661.82-.884a2.03 2.03 0 011.131-.34zm1.541 5.836c0-.328.088-.576.264-.744.175-.168.431-.252.767-.252.324 0 .574.086.75.258.18.172.27.418.27.738 0 .309-.09.553-.27.732-.179.176-.429.264-.75.264-.328 0-.582-.086-.761-.258-.18-.175-.27-.421-.27-.738zm6.334.955c-2.039 0-3.059-1.119-3.059-3.357 0-1.114.278-1.963.832-2.55.555-.589 1.35-.884 2.385-.884.758 0 1.438.149 2.039.445l-.527 1.383a8.335 8.335 0 00-.785-.275 2.471 2.471 0 00-.727-.111c-.929 0-1.394.66-1.394 1.98 0 1.281.465 1.922 1.394 1.922.344 0 .662-.045.955-.135a3.53 3.53 0 00.879-.433v1.529c-.289.184-.582.31-.879.38-.293.071-.664.106-1.113.106zm4.939-3.404c0 .648.106 1.139.317 1.47.215.333.562.499 1.043.499.476 0 .818-.164 1.025-.492.211-.333.317-.825.317-1.477 0-.649-.106-1.135-.317-1.46-.211-.323-.556-.485-1.037-.485-.476 0-.82.162-1.031.486-.211.32-.317.807-.317 1.459zm4.53 0c0 1.066-.282 1.9-.844 2.502-.562.601-1.346.902-2.35.902-.629 0-1.183-.137-1.664-.41a2.77 2.77 0 01-1.107-1.19c-.258-.515-.387-1.117-.387-1.804 0-1.07.279-1.902.838-2.496.559-.594 1.344-.89 2.356-.89.628 0 1.183.136 1.664.41.48.273.849.665 1.107 1.177s.387 1.111.387 1.799zM630.436 13h-1.788V9.174c0-.473-.08-.826-.24-1.06-.156-.239-.404-.358-.744-.358-.457 0-.789.168-.996.504-.207.336-.311.888-.311 1.658V13h-1.787V6.45h1.366l.24.837h.099a1.8 1.8 0 01.762-.703 2.45 2.45 0 011.143-.258c.98 0 1.644.32 1.992.961h.158c.176-.305.434-.54.774-.709.343-.168.73-.252 1.16-.252.742 0 1.302.192 1.681.574.383.38.575.989.575 1.829V13h-1.793V9.174c0-.473-.081-.826-.241-1.06-.156-.239-.404-.358-.744-.358-.437 0-.765.156-.984.469-.215.312-.322.808-.322 1.488V13z" fill="#333" fill-opacity=".5"/></svg>